<?xml version="1.0" encoding="utf-8"?>
<!-- Svg Vector Icons : http://www.onlinewebfonts.com/icon -->
<!DOCTYPE svg PUBLIC "-//W3C//DTD SVG 1.1//EN" "http://www.w3.org/Graphics/SVG/1.1/DTD/svg11.dtd">
<svg version="1.1" xmlns="http://www.w3.org/2000/svg" xmlns:xlink="http://www.w3.org/1999/xlink" x="0px" y="0px" viewBox="0 0 1000 1000" enable-background="new 0 0 1000 1000" xml:space="preserve">
<metadata> Svg Vector Icons : http://www.onlinewebfonts.com/icon </metadata>
<g><g transform="translate(0.000000,511.000000) scale(0.100000,-0.100000)"><path d="M1048.4,4298.7v-553.2H890.3H732.3v-316.1v-316.1H416.1H100V110v-3003.2h316.1h316.1v-316.1v-316.1h158.1h158.1v-553.2v-553.2h158.1h158.1v553.2v553.2h158.1h158.1v316.1v316.1h158.1h158.1v-316.1v-316.1h158.1h158.1v-553.2v-553.2H2471H2629v553.2v553.2h158.1h158.1v316.1v316.1h158.1h158.1v-316.1v-316.1h158.1h158.1v-553.2v-553.2h158.1h158.1v553.2v553.2h158.1h158.1v316.1v316.1h158.1h158.1v-316.1v-316.1h158.1h158.1v-553.2v-553.2H5000h158.1v553.2v553.2h158.1h158.1v316.1v316.1h158.1h158.1v-316.1v-316.1h158.1h158.1v-553.2v-553.2h158.1h158.1v553.2v553.2h158.1h158.1v316.1v316.1h158.1h158.1v-316.1v-316.1h158.1H7371v-553.2v-553.2H7529h158.1v553.2v553.2h158.1h158.1v316.1v316.1h158.1h158.1v-316.1v-316.1h158.1h158.1v-553.2v-553.2h158.1h158.1v553.2v553.2h158.1h158.1v316.1v316.1h316.1H9900V110v3003.2h-316.1h-316.1v316.1v316.1h-158.1h-158.1v553.2v553.2h-158.1h-158.1v-553.2v-553.2h-158.1h-158.1v-316.1v-316.1h-158.1h-158.1v316.1v316.1h-158.1h-158.1v553.2v553.2H7529H7371v-553.2v-553.2h-158.1h-158.1v-316.1v-316.1h-158.1h-158.1v316.1v316.1h-158.1h-158.1v553.2v553.2h-158.1h-158.1v-553.2v-553.2h-158.1h-158.1v-316.1v-316.1h-158.1h-158.1v316.1v316.1h-158.1h-158.1v553.2v553.2H5000h-158.1v-553.2v-553.2h-158.1h-158.1v-316.1v-316.1h-158.1h-158.1v316.1v316.1h-158.1h-158.1v553.2v553.2h-158.1h-158.1v-553.2v-553.2h-158.1h-158.1v-316.1v-316.1h-158.1h-158.1v316.1v316.1h-158.1H2629v553.2v553.2H2471h-158.1v-553.2v-553.2h-158.1h-158.1v-316.1v-316.1h-158.1h-158.1v316.1v316.1h-158.1h-158.1v553.2v553.2h-158.1h-158.1V4298.7z M1364.5,3271.3v-158.1h-158.1h-158.1v158.1v158.1h158.1h158.1V3271.3z M2629,3271.3v-158.1H2471h-158.1v158.1v158.1H2471H2629V3271.3z M3893.5,3271.3v-158.1h-158.1h-158.1v158.1v158.1h158.1h158.1V3271.3z M5158.1,3271.3v-158.1H5000h-158.1v158.1v158.1H5000h158.1V3271.3z M6422.6,3271.3v-158.1h-158.1h-158.1v158.1v158.1h158.1h158.1V3271.3z M7687.1,3271.3v-158.1H7529H7371v158.1v158.1H7529h158.1V3271.3z M8951.6,3271.3v-158.1h-158.1h-158.1v158.1v158.1h158.1h158.1V3271.3z M9583.9,110v-2687.1H5000H416.1V110v2687.1H5000h4583.9V110z M1364.5-3051.3v-158.1h-158.1h-158.1v158.1v158.1h158.1h158.1V-3051.3z M2629-3051.3v-158.1H2471h-158.1v158.1v158.1H2471H2629V-3051.3z M3893.5-3051.3v-158.1h-158.1h-158.1v158.1v158.1h158.1h158.1V-3051.3z M5158.1-3051.3v-158.1H5000h-158.1v158.1v158.1H5000h158.1V-3051.3z M6422.6-3051.3v-158.1h-158.1h-158.1v158.1v158.1h158.1h158.1V-3051.3z M7687.1-3051.3v-158.1H7529H7371v158.1v158.1H7529h158.1V-3051.3z M8951.6-3051.3v-158.1h-158.1h-158.1v158.1v158.1h158.1h158.1V-3051.3z"/><path d="M1048.4,2322.9v-158.1H890.3H732.3v-948.4V268.1h158.1h158.1V110V-48.1H890.3H732.3v-948.4v-948.4h158.1h158.1v-158.1V-2261h1106.5h1106.5v158.1v158.1h158.1h158.1v948.4v948.4h-158.1h-158.1V110v158.1h158.1h158.1v948.4v948.4h-158.1h-158.1v158.1V2481H2154.8H1048.4V2322.9z M3261.3,1216.5V268.1H2154.8H1048.4v948.4v948.4h1106.5h1106.5V1216.5z M3261.3-996.4v-948.4H2154.8H1048.4v948.4v948.4h1106.5h1106.5V-996.4z"/><path d="M5474.2,2322.9v-158.1h-158.1h-158.1v-948.4V268.1h158.1h158.1V110V-48.1h-158.1h-158.1v-948.4v-948.4h158.1h158.1v-158.1V-2261h1106.4h1106.5v158.1v158.1h158.1h158.1v948.4v948.4h-158.1h-158.1V110v158.1h158.1h158.1v948.4v948.4h-158.1h-158.1v158.1V2481H6580.6H5474.2V2322.9z M7687.1,1216.5V268.1H6580.6H5474.2v948.4v948.4h1106.4h1106.5V1216.5z M7687.1-996.4v-948.4H6580.6H5474.2v948.4v948.4h1106.4h1106.5V-996.4z"/><path d="M4229.4-1338.3c-98.8-31.6-282.5-221.3-312.2-322.1c-51.4-173.9-13.8-294.4,134.4-442.6c209.4-211.4,422.8-211.4,632.3,0c211.4,209.4,211.4,422.8,0,632.3C4537.7-1322.5,4403.3-1282.9,4229.4-1338.3z M4486.3-1668.2c25.7-25.7,39.5-65.2,39.5-118.6c0-53.3-13.8-92.9-39.5-118.5c-25.7-25.7-65.2-39.5-118.5-39.5c-53.4,0-92.9,13.8-118.5,39.5c-25.7,25.7-39.5,65.2-39.5,118.5c0,53.4,13.8,92.9,39.5,118.6c25.7,25.7,65.2,39.5,118.5,39.5C4421.1-1628.7,4460.6-1642.5,4486.3-1668.2z"/><path d="M8655.2-1338.3c-98.8-31.6-282.5-221.3-312.2-322.1c-13.8-45.5-23.7-102.8-23.7-126.5c0-217.3,256.9-474.2,474.2-474.2c217.3,0,474.2,256.9,474.2,474.2c0,108.7-51.4,209.4-158.1,316.1C8963.5-1322.5,8829.1-1282.9,8655.2-1338.3z M8912.1-1668.2c25.7-25.7,39.5-65.2,39.5-118.6c0-104.7-53.3-158.1-158.1-158.1c-104.7,0-158.1,53.4-158.1,158.1c0,53.4,13.8,92.9,39.5,118.6s65.2,39.5,118.5,39.5S8886.4-1642.5,8912.1-1668.2z"/></g></g>
</svg>