<svg id="svg" version="1.1" xmlns="http://www.w3.org/2000/svg" xmlns:xlink="http://www.w3.org/1999/xlink" width="400" height="400" viewBox="0, 0, 400,400"><g id="svgg"><path id="path0" d="M69.753 254.476 C 69.591 254.738,69.670 255.023,69.929 255.110 C 70.188 255.196,70.400 255.612,70.400 256.033 C 70.400 256.455,70.580 256.800,70.800 256.800 C 71.020 256.800,71.200 257.160,71.200 257.600 C 71.200 258.040,71.380 258.400,71.600 258.400 C 71.820 258.400,72.000 258.760,72.000 259.200 C 72.000 259.640,72.180 260.000,72.400 260.000 C 72.620 260.000,72.800 260.540,72.800 261.200 C 72.800 261.860,72.980 262.400,73.200 262.400 C 73.420 262.400,73.600 262.745,73.600 263.167 C 73.600 263.588,73.735 263.993,73.900 264.067 C 74.312 264.250,76.000 267.557,76.000 268.183 C 76.000 268.461,76.720 270.089,77.600 271.800 C 78.480 273.511,79.200 275.131,79.200 275.400 C 79.200 275.797,82.156 281.889,82.530 282.264 C 82.589 282.322,83.144 282.107,83.764 281.785 C 84.384 281.463,85.105 281.200,85.366 281.200 C 86.066 281.200,87.993 280.248,87.997 279.900 C 87.999 279.735,88.540 279.600,89.200 279.600 C 89.860 279.600,90.400 279.420,90.400 279.200 C 90.400 278.980,90.940 278.800,91.600 278.800 C 92.260 278.800,92.800 278.620,92.800 278.400 C 92.800 278.180,93.160 278.000,93.600 278.000 C 94.040 278.000,94.400 277.820,94.400 277.600 C 94.400 277.380,94.940 277.200,95.600 277.200 C 96.260 277.200,96.800 277.020,96.800 276.800 C 96.800 276.580,97.340 276.400,98.000 276.400 C 98.660 276.400,99.201 276.265,99.203 276.100 C 99.207 275.744,101.141 274.800,101.868 274.800 C 102.147 274.800,103.017 274.440,103.800 274.000 C 104.583 273.560,105.568 273.200,105.989 273.200 C 106.409 273.200,106.864 273.020,107.000 272.800 C 107.136 272.580,107.591 272.400,108.011 272.400 C 108.432 272.400,109.417 272.040,110.200 271.600 C 110.983 271.160,111.883 270.800,112.200 270.800 C 112.517 270.800,113.417 270.440,114.200 270.000 C 114.983 269.560,115.889 269.200,116.212 269.200 C 116.599 269.200,116.800 268.789,116.800 268.000 C 116.800 266.867,116.711 266.800,115.200 266.800 C 114.320 266.800,113.600 266.620,113.600 266.400 C 113.600 266.180,113.060 266.000,112.400 266.000 C 111.740 266.000,111.200 265.820,111.200 265.600 C 111.200 265.380,110.570 265.200,109.800 265.200 C 109.030 265.200,108.400 265.020,108.400 264.800 C 108.400 264.580,107.860 264.400,107.200 264.400 C 106.540 264.400,106.000 264.220,106.000 264.000 C 106.000 263.780,105.460 263.600,104.800 263.600 C 104.140 263.600,103.600 263.420,103.600 263.200 C 103.600 262.980,103.060 262.800,102.400 262.800 C 101.740 262.800,101.200 262.620,101.200 262.400 C 101.200 262.180,100.660 262.000,100.000 262.000 C 99.340 262.000,98.800 261.820,98.800 261.600 C 98.800 261.380,98.080 261.200,97.200 261.200 C 96.320 261.200,95.600 261.041,95.600 260.846 C 95.600 260.651,94.610 260.368,93.400 260.217 C 92.190 260.066,91.200 259.775,91.200 259.571 C 91.200 259.367,90.675 259.200,90.033 259.200 C 89.392 259.200,88.773 258.975,88.658 258.700 C 88.511 258.346,88.268 258.427,87.824 258.979 C 87.337 259.583,87.090 259.650,86.719 259.279 C 86.455 259.015,85.837 258.800,85.344 258.800 C 84.851 258.800,84.336 258.620,84.200 258.400 C 84.064 258.180,83.524 258.000,83.000 258.000 C 82.476 258.000,81.936 257.820,81.800 257.600 C 81.664 257.380,81.113 257.200,80.576 257.200 C 80.039 257.200,79.600 257.020,79.600 256.800 C 79.600 256.580,78.880 256.400,78.000 256.400 C 77.120 256.400,76.400 256.220,76.400 256.000 C 76.400 255.780,75.860 255.600,75.200 255.600 C 74.540 255.600,74.000 255.420,74.000 255.200 C 74.000 254.980,73.460 254.800,72.800 254.800 C 72.140 254.800,71.600 254.620,71.600 254.400 C 71.600 253.838,70.109 253.900,69.753 254.476 " stroke="none" fill="#fcfcfc" fill-rule="evenodd"></path><path id="path1" d="M178.601 10.277 C 176.842 10.365,175.231 10.609,175.021 10.819 C 174.812 11.028,173.542 11.200,172.200 11.200 C 170.858 11.200,169.589 11.363,169.380 11.563 C 169.171 11.763,168.055 12.033,166.900 12.163 C 161.614 12.759,160.800 12.897,160.800 13.198 C 160.800 13.375,160.035 13.622,159.100 13.747 C 155.011 14.294,153.982 14.506,153.774 14.842 C 153.652 15.039,152.944 15.200,152.200 15.200 C 151.456 15.200,150.736 15.380,150.600 15.600 C 150.464 15.820,149.823 16.000,149.176 16.000 C 148.529 16.000,148.000 16.180,148.000 16.400 C 148.000 16.620,147.370 16.800,146.600 16.800 C 145.830 16.800,145.200 16.980,145.200 17.200 C 145.200 17.420,144.660 17.600,144.000 17.600 C 143.340 17.600,142.800 17.780,142.800 18.000 C 142.800 18.220,142.260 18.400,141.600 18.400 C 140.940 18.400,140.400 18.580,140.400 18.800 C 140.400 19.020,139.860 19.200,139.200 19.200 C 138.540 19.200,138.000 19.380,138.000 19.600 C 138.000 19.820,137.460 20.000,136.800 20.000 C 136.140 20.000,135.600 20.180,135.600 20.400 C 135.600 20.620,135.060 20.800,134.400 20.800 C 133.740 20.800,133.200 20.980,133.200 21.200 C 133.200 21.420,132.840 21.600,132.400 21.600 C 131.960 21.600,131.600 21.780,131.600 22.000 C 131.600 22.220,131.060 22.400,130.400 22.400 C 129.740 22.400,129.200 22.580,129.200 22.800 C 129.200 23.020,128.840 23.200,128.400 23.200 C 127.960 23.200,127.600 23.380,127.600 23.600 C 127.600 23.820,127.150 24.000,126.600 24.000 C 126.050 24.000,125.600 24.180,125.600 24.400 C 125.600 24.620,125.240 24.800,124.800 24.800 C 124.360 24.800,124.000 24.980,124.000 25.200 C 124.000 25.420,123.640 25.600,123.200 25.600 C 122.760 25.600,122.400 25.780,122.400 26.000 C 122.400 26.220,122.040 26.400,121.600 26.400 C 121.160 26.400,120.800 26.580,120.800 26.800 C 120.800 27.020,120.360 27.200,119.821 27.200 C 118.976 27.200,112.964 29.782,112.400 30.387 C 112.290 30.505,111.705 30.856,111.100 31.168 C 110.495 31.480,110.000 31.885,110.000 32.068 C 110.000 32.250,109.640 32.400,109.200 32.400 C 108.760 32.400,108.400 32.580,108.400 32.800 C 108.400 33.020,108.040 33.200,107.600 33.200 C 107.160 33.200,106.800 33.380,106.800 33.600 C 106.800 33.820,106.480 34.000,106.088 34.000 C 105.697 34.000,105.117 34.360,104.800 34.800 C 104.483 35.240,103.903 35.600,103.512 35.600 C 103.120 35.600,102.800 35.780,102.800 36.000 C 102.800 36.220,102.480 36.400,102.088 36.400 C 101.697 36.400,101.117 36.760,100.800 37.200 C 100.483 37.640,99.903 38.000,99.512 38.000 C 99.120 38.000,98.800 38.180,98.800 38.400 C 98.800 38.620,98.564 38.800,98.275 38.800 C 97.987 38.800,97.402 39.115,96.975 39.500 C 96.549 39.885,95.705 40.455,95.100 40.768 C 94.495 41.080,94.000 41.485,94.000 41.668 C 94.000 41.850,93.812 42.000,93.582 42.000 C 93.352 42.000,92.714 42.450,92.164 43.000 C 91.614 43.550,90.894 44.000,90.564 44.000 C 90.234 44.000,89.514 44.450,88.964 45.000 C 88.414 45.550,87.800 46.000,87.600 46.000 C 87.400 46.000,86.786 46.450,86.236 47.000 C 85.686 47.550,85.070 48.000,84.866 48.000 C 84.663 48.000,83.755 48.720,82.848 49.600 C 81.941 50.480,81.041 51.200,80.848 51.200 C 80.355 51.200,77.200 54.313,77.200 54.800 C 77.200 55.020,76.927 55.200,76.593 55.200 C 75.945 55.200,73.904 57.093,65.498 65.493 C 58.722 72.263,57.600 73.476,57.600 74.031 C 57.600 74.281,56.700 75.330,55.600 76.363 C 54.500 77.396,53.600 78.366,53.600 78.520 C 53.600 78.673,52.880 79.541,52.000 80.448 C 51.120 81.355,50.400 82.273,50.400 82.488 C 50.400 82.703,49.860 83.383,49.200 84.000 C 48.540 84.617,48.000 85.327,48.000 85.579 C 48.000 85.830,47.550 86.486,47.000 87.036 C 46.450 87.586,46.000 88.181,46.000 88.357 C 46.000 88.533,45.619 89.110,45.153 89.639 C 44.687 90.167,44.129 91.095,43.914 91.700 C 43.698 92.305,43.359 92.800,43.161 92.800 C 42.962 92.800,42.800 93.070,42.800 93.400 C 42.800 93.730,42.650 94.000,42.468 94.000 C 42.285 94.000,41.880 94.495,41.568 95.100 C 41.255 95.705,40.685 96.549,40.300 96.975 C 39.915 97.402,39.600 97.987,39.600 98.275 C 39.600 98.564,39.420 98.800,39.200 98.800 C 38.980 98.800,38.800 99.120,38.800 99.512 C 38.800 99.903,38.440 100.483,38.000 100.800 C 37.560 101.117,37.200 101.697,37.200 102.088 C 37.200 102.480,37.020 102.800,36.800 102.800 C 36.580 102.800,36.400 103.160,36.400 103.600 C 36.400 104.040,36.220 104.400,36.000 104.400 C 35.780 104.400,35.600 104.720,35.600 105.112 C 35.600 105.503,35.240 106.083,34.800 106.400 C 34.360 106.717,34.000 107.297,34.000 107.688 C 34.000 108.080,33.820 108.400,33.600 108.400 C 33.380 108.400,33.200 108.760,33.200 109.200 C 33.200 109.640,33.065 110.001,32.900 110.001 C 32.735 110.002,32.150 110.992,31.600 112.200 C 31.050 113.408,30.465 114.398,30.300 114.399 C 30.135 114.399,30.000 114.628,30.000 114.906 C 30.000 115.184,29.476 116.489,28.835 117.806 C 28.194 119.123,27.544 120.875,27.390 121.700 C 27.237 122.525,26.951 123.200,26.755 123.200 C 26.560 123.200,26.400 123.560,26.400 124.000 C 26.400 124.440,26.220 124.800,26.000 124.800 C 25.780 124.800,25.600 125.340,25.600 126.000 C 25.600 126.660,25.465 127.201,25.300 127.203 C 24.894 127.207,24.000 129.186,24.000 130.080 C 24.000 130.476,23.820 130.800,23.600 130.800 C 23.380 130.800,23.200 131.160,23.200 131.600 C 23.200 132.040,23.020 132.400,22.800 132.400 C 22.580 132.400,22.400 132.940,22.400 133.600 C 22.400 134.260,22.220 134.800,22.000 134.800 C 21.780 134.800,21.600 135.340,21.600 136.000 C 21.600 136.660,21.420 137.200,21.200 137.200 C 20.980 137.200,20.800 137.740,20.800 138.400 C 20.800 139.060,20.620 139.600,20.400 139.600 C 20.180 139.600,20.000 140.140,20.000 140.800 C 20.000 141.460,19.820 142.000,19.600 142.000 C 19.380 142.000,19.200 142.540,19.200 143.200 C 19.200 143.860,19.020 144.400,18.800 144.400 C 18.580 144.400,18.400 145.030,18.400 145.800 C 18.400 146.570,18.220 147.200,18.000 147.200 C 17.780 147.200,17.600 147.920,17.600 148.800 C 17.600 149.680,17.420 150.400,17.200 150.400 C 16.980 150.400,16.800 151.019,16.800 151.776 C 16.800 152.533,16.620 153.264,16.400 153.400 C 16.180 153.536,16.000 154.357,16.000 155.224 C 16.000 156.091,15.820 156.800,15.600 156.800 C 15.380 156.800,15.200 157.509,15.200 158.376 C 15.200 159.243,15.020 160.064,14.800 160.200 C 14.580 160.336,14.400 161.337,14.400 162.424 C 14.400 163.511,14.220 164.400,14.000 164.400 C 13.780 164.400,13.600 165.354,13.600 166.520 C 13.600 167.686,13.435 168.811,13.234 169.020 C 13.032 169.229,12.761 170.570,12.630 172.000 C 12.499 173.430,12.195 176.220,11.954 178.200 C 11.383 182.888,11.375 215.416,11.943 220.200 C 12.179 222.180,12.564 225.150,12.799 226.800 C 13.034 228.450,13.328 230.745,13.450 231.900 C 13.573 233.055,13.837 234.000,14.037 234.000 C 14.237 234.000,14.400 234.889,14.400 235.976 C 14.400 237.063,14.580 238.064,14.800 238.200 C 15.020 238.336,15.200 239.157,15.200 240.024 C 15.200 240.891,15.380 241.600,15.600 241.600 C 15.820 241.600,16.000 242.309,16.000 243.176 C 16.000 244.043,16.180 244.864,16.400 245.000 C 16.620 245.136,16.800 245.867,16.800 246.624 C 16.800 247.381,16.980 248.000,17.200 248.000 C 17.420 248.000,17.600 248.720,17.600 249.600 C 17.600 250.480,17.780 251.200,18.000 251.200 C 18.220 251.200,18.400 251.830,18.400 252.600 C 18.400 253.370,18.580 254.000,18.800 254.000 C 19.020 254.000,19.200 254.529,19.200 255.176 C 19.200 255.823,19.380 256.464,19.600 256.600 C 19.820 256.736,20.000 257.287,20.000 257.824 C 20.000 258.361,20.180 258.800,20.400 258.800 C 20.620 258.800,20.800 259.340,20.800 260.000 C 20.800 260.660,20.980 261.200,21.200 261.200 C 21.420 261.200,21.600 261.740,21.600 262.400 C 21.600 263.060,21.780 263.600,22.000 263.600 C 22.220 263.600,22.400 264.140,22.400 264.800 C 22.400 265.460,22.580 266.000,22.800 266.000 C 23.020 266.000,23.200 266.360,23.200 266.800 C 23.200 267.240,23.380 267.600,23.600 267.600 C 23.820 267.600,24.000 268.140,24.000 268.800 C 24.000 269.460,24.180 270.000,24.400 270.000 C 24.620 270.000,24.800 270.360,24.800 270.800 C 24.800 271.240,24.980 271.600,25.200 271.600 C 25.420 271.600,25.600 271.924,25.600 272.320 C 25.600 273.175,26.487 275.192,26.865 275.197 C 27.011 275.199,27.257 275.952,27.412 276.872 C 27.568 277.792,28.033 279.147,28.447 279.884 C 28.861 280.621,29.200 281.489,29.200 281.812 C 29.200 282.135,29.380 282.400,29.600 282.400 C 29.820 282.400,30.000 282.760,30.000 283.200 C 30.000 283.640,30.180 284.000,30.400 284.000 C 30.620 284.000,30.800 284.360,30.800 284.800 C 30.800 285.240,30.980 285.600,31.200 285.600 C 31.420 285.600,31.600 285.945,31.600 286.367 C 31.600 286.788,31.735 287.193,31.900 287.267 C 32.065 287.340,32.647 288.300,33.193 289.400 C 33.739 290.500,34.504 291.691,34.893 292.047 C 35.282 292.403,35.600 292.988,35.600 293.347 C 35.600 293.706,35.780 294.000,36.000 294.000 C 36.220 294.000,36.400 294.360,36.400 294.800 C 36.400 295.240,36.580 295.600,36.800 295.600 C 37.020 295.600,37.200 295.920,37.200 296.312 C 37.200 296.703,37.560 297.283,38.000 297.600 C 38.440 297.917,38.800 298.497,38.800 298.888 C 38.800 299.280,38.980 299.600,39.200 299.600 C 39.420 299.600,39.600 299.920,39.600 300.312 C 39.600 300.703,39.960 301.283,40.400 301.600 C 40.840 301.917,41.200 302.457,41.200 302.800 C 41.200 303.143,41.560 303.683,42.000 304.000 C 42.440 304.317,42.800 304.897,42.800 305.288 C 42.800 305.680,42.939 306.000,43.109 306.000 C 43.279 306.000,43.757 306.630,44.172 307.400 C 44.587 308.170,45.066 308.800,45.236 308.800 C 45.407 308.800,45.662 309.166,45.804 309.613 C 45.946 310.060,46.498 310.862,47.031 311.395 C 47.564 311.928,48.000 312.570,48.000 312.821 C 48.000 313.073,48.540 313.783,49.200 314.400 C 49.860 315.017,50.400 315.733,50.400 315.992 C 50.400 316.251,51.120 317.154,52.000 318.000 C 52.880 318.846,53.600 319.743,53.600 319.995 C 53.600 320.246,54.500 321.329,55.600 322.400 C 56.700 323.471,57.600 324.455,57.600 324.585 C 57.600 324.932,59.396 326.810,67.088 334.507 C 75.413 342.838,75.808 343.200,76.586 343.200 C 76.924 343.200,77.200 343.380,77.200 343.600 C 77.200 344.087,80.355 347.200,80.848 347.200 C 81.041 347.200,81.941 347.920,82.848 348.800 C 83.755 349.680,84.656 350.400,84.852 350.400 C 85.047 350.400,85.772 350.940,86.463 351.600 C 87.154 352.260,87.922 352.800,88.171 352.800 C 88.420 352.800,88.883 353.160,89.200 353.600 C 89.517 354.040,90.031 354.400,90.341 354.400 C 90.652 354.400,91.197 354.724,91.553 355.119 C 92.395 356.055,97.775 359.600,98.354 359.600 C 98.599 359.600,98.800 359.780,98.800 360.000 C 98.800 360.220,99.120 360.400,99.512 360.400 C 99.903 360.400,100.483 360.760,100.800 361.200 C 101.117 361.640,101.697 362.000,102.088 362.000 C 102.480 362.000,102.800 362.180,102.800 362.400 C 102.800 362.620,103.120 362.800,103.512 362.800 C 103.903 362.800,104.483 363.160,104.800 363.600 C 105.117 364.040,105.697 364.400,106.088 364.400 C 106.480 364.400,106.800 364.580,106.800 364.800 C 106.800 365.020,107.160 365.200,107.600 365.200 C 108.040 365.200,108.400 365.380,108.400 365.600 C 108.400 365.820,108.760 366.000,109.200 366.000 C 109.640 366.000,110.000 366.150,110.000 366.332 C 110.000 366.515,110.495 366.920,111.100 367.232 C 111.705 367.544,112.290 367.893,112.400 368.009 C 112.903 368.538,119.477 371.606,120.100 371.603 C 120.485 371.601,120.800 371.780,120.800 372.000 C 120.800 372.220,121.160 372.400,121.600 372.400 C 122.040 372.400,122.400 372.580,122.400 372.800 C 122.400 373.020,122.760 373.200,123.200 373.200 C 123.640 373.200,124.000 373.380,124.000 373.600 C 124.000 373.820,124.349 374.000,124.776 374.000 C 125.203 374.000,125.654 374.164,125.778 374.365 C 125.903 374.566,126.723 374.852,127.602 375.000 C 128.481 375.149,129.200 375.434,129.200 375.635 C 129.200 375.836,129.740 376.000,130.400 376.000 C 131.060 376.000,131.600 376.180,131.600 376.400 C 131.600 376.620,131.960 376.800,132.400 376.800 C 132.840 376.800,133.200 376.980,133.200 377.200 C 133.200 377.420,133.740 377.600,134.400 377.600 C 135.060 377.600,135.600 377.780,135.600 378.000 C 135.600 378.220,136.140 378.400,136.800 378.400 C 137.460 378.400,138.000 378.580,138.000 378.800 C 138.000 379.020,138.540 379.200,139.200 379.200 C 139.860 379.200,140.400 379.380,140.400 379.600 C 140.400 379.820,140.940 380.000,141.600 380.000 C 142.260 380.000,142.800 380.180,142.800 380.400 C 142.800 380.620,143.340 380.800,144.000 380.800 C 144.660 380.800,145.200 380.980,145.200 381.200 C 145.200 381.420,145.830 381.600,146.600 381.600 C 147.370 381.600,148.000 381.780,148.000 382.000 C 148.000 382.220,148.529 382.400,149.176 382.400 C 149.823 382.400,150.464 382.580,150.600 382.800 C 150.736 383.020,151.467 383.200,152.224 383.200 C 152.981 383.200,153.600 383.380,153.600 383.600 C 153.600 383.820,154.309 384.000,155.176 384.000 C 156.043 384.000,156.864 384.180,157.000 384.400 C 157.136 384.620,157.946 384.800,158.800 384.800 C 159.654 384.800,160.464 384.980,160.600 385.200 C 160.736 385.420,161.636 385.600,162.600 385.600 C 163.564 385.600,164.464 385.780,164.600 386.000 C 164.736 386.220,165.827 386.400,167.024 386.400 C 168.221 386.400,169.200 386.580,169.200 386.800 C 169.200 387.029,170.400 387.200,172.000 387.200 C 173.600 387.200,174.800 387.371,174.800 387.600 C 174.800 387.835,176.192 388.000,178.176 388.000 C 180.033 388.000,181.664 388.180,181.800 388.400 C 182.139 388.948,216.261 388.948,216.600 388.400 C 216.736 388.180,218.356 388.000,220.200 388.000 C 222.044 388.000,223.664 387.820,223.800 387.600 C 223.936 387.380,225.207 387.200,226.624 387.200 C 228.075 387.200,229.200 387.025,229.200 386.800 C 229.200 386.580,230.179 386.400,231.376 386.400 C 232.573 386.400,233.664 386.220,233.800 386.000 C 233.936 385.780,234.836 385.600,235.800 385.600 C 236.764 385.600,237.664 385.420,237.800 385.200 C 237.936 384.980,238.746 384.800,239.600 384.800 C 240.454 384.800,241.264 384.620,241.400 384.400 C 241.536 384.180,242.357 384.000,243.224 384.000 C 244.091 384.000,244.800 383.820,244.800 383.600 C 244.800 383.380,245.520 383.200,246.400 383.200 C 247.280 383.200,248.000 383.020,248.000 382.800 C 248.000 382.580,248.540 382.400,249.200 382.400 C 249.860 382.400,250.400 382.220,250.400 382.000 C 250.400 381.780,251.120 381.600,252.000 381.600 C 252.880 381.600,253.600 381.420,253.600 381.200 C 253.600 380.980,254.140 380.800,254.800 380.800 C 255.460 380.800,256.000 380.620,256.000 380.400 C 256.000 380.180,256.439 380.000,256.976 380.000 C 257.513 380.000,258.064 379.820,258.200 379.600 C 258.336 379.380,258.887 379.200,259.424 379.200 C 259.961 379.200,260.400 379.020,260.400 378.800 C 260.400 378.580,260.940 378.400,261.600 378.400 C 262.260 378.400,262.800 378.220,262.800 378.000 C 262.800 377.780,263.340 377.600,264.000 377.600 C 264.660 377.600,265.200 377.420,265.200 377.200 C 265.200 376.980,265.560 376.800,266.000 376.800 C 266.440 376.800,266.800 376.620,266.800 376.400 C 266.800 376.180,267.340 376.000,268.000 376.000 C 268.660 376.000,269.200 375.840,269.200 375.645 C 269.200 375.449,269.852 375.167,270.649 375.017 C 271.446 374.868,272.391 374.589,272.749 374.399 C 273.107 374.208,273.985 373.817,274.700 373.529 C 275.415 373.240,276.000 372.869,276.000 372.702 C 276.000 372.536,276.360 372.400,276.800 372.400 C 277.240 372.400,277.600 372.220,277.600 372.000 C 277.600 371.780,278.039 371.600,278.576 371.600 C 279.113 371.600,279.664 371.420,279.800 371.200 C 279.936 370.980,280.397 370.800,280.824 370.800 C 281.251 370.800,281.600 370.620,281.600 370.400 C 281.600 370.180,281.960 370.000,282.400 370.000 C 282.840 370.000,283.201 369.865,283.201 369.700 C 283.202 369.535,284.192 368.950,285.400 368.400 C 286.608 367.850,287.598 367.265,287.599 367.100 C 287.599 366.935,287.870 366.800,288.200 366.800 C 288.530 366.800,288.800 366.620,288.800 366.400 C 288.800 366.180,289.160 366.000,289.600 366.000 C 290.040 366.000,290.400 365.820,290.400 365.600 C 290.400 365.380,290.670 365.200,291.000 365.200 C 291.330 365.200,291.600 365.020,291.600 364.800 C 291.600 364.580,291.920 364.400,292.312 364.400 C 292.703 364.400,293.283 364.040,293.600 363.600 C 293.917 363.160,294.497 362.800,294.888 362.800 C 295.280 362.800,295.600 362.620,295.600 362.400 C 295.600 362.180,295.920 362.000,296.312 362.000 C 296.703 362.000,297.283 361.640,297.600 361.200 C 297.917 360.760,298.497 360.400,298.888 360.400 C 299.280 360.400,299.600 360.220,299.600 360.000 C 299.600 359.780,299.878 359.600,300.217 359.600 C 300.556 359.600,301.051 359.413,301.317 359.185 C 301.583 358.957,302.886 358.078,304.214 357.230 C 305.541 356.383,306.868 355.399,307.163 355.045 C 307.457 354.690,307.906 354.400,308.161 354.400 C 308.415 354.400,308.883 354.040,309.200 353.600 C 309.517 353.160,310.025 352.800,310.328 352.800 C 310.631 352.800,311.383 352.260,312.000 351.600 C 312.617 350.940,313.333 350.400,313.592 350.400 C 313.851 350.400,314.754 349.680,315.600 348.800 C 316.446 347.920,317.343 347.200,317.595 347.200 C 317.846 347.200,318.929 346.300,320.000 345.200 C 321.071 344.100,322.048 343.200,322.169 343.200 C 322.831 343.200,341.200 325.034,341.200 324.379 C 341.200 324.182,342.010 323.211,343.000 322.221 C 343.990 321.231,344.800 320.222,344.800 319.979 C 344.800 319.736,345.520 318.846,346.400 318.000 C 347.280 317.154,348.000 316.251,348.000 315.992 C 348.000 315.733,348.540 315.017,349.200 314.400 C 349.860 313.783,350.400 313.080,350.400 312.836 C 350.400 312.592,350.940 311.828,351.600 311.137 C 352.260 310.446,352.800 309.681,352.800 309.437 C 352.800 309.192,353.160 308.768,353.600 308.493 C 354.040 308.218,354.400 307.753,354.400 307.459 C 354.400 307.165,354.760 306.598,355.200 306.200 C 355.640 305.802,356.000 305.262,356.000 305.000 C 356.000 304.738,356.360 304.198,356.800 303.800 C 357.240 303.402,357.600 302.911,357.600 302.709 C 357.600 302.508,357.870 302.073,358.200 301.743 C 358.530 301.413,358.800 300.796,358.800 300.371 C 358.800 299.947,358.980 299.600,359.200 299.600 C 359.420 299.600,359.600 299.280,359.600 298.888 C 359.600 298.497,359.960 297.917,360.400 297.600 C 360.840 297.283,361.200 296.703,361.200 296.312 C 361.200 295.920,361.380 295.600,361.600 295.600 C 361.820 295.600,362.000 295.240,362.000 294.800 C 362.000 294.360,362.180 294.000,362.400 294.000 C 362.620 294.000,362.800 293.706,362.800 293.347 C 362.800 292.988,363.129 292.403,363.530 292.047 C 363.932 291.691,364.516 290.815,364.828 290.100 C 365.140 289.385,365.531 288.800,365.698 288.800 C 365.864 288.800,366.000 288.440,366.000 288.000 C 366.000 287.560,366.180 287.200,366.400 287.200 C 366.620 287.200,366.800 286.840,366.800 286.400 C 366.800 285.960,366.980 285.600,367.200 285.600 C 367.420 285.600,367.600 285.240,367.600 284.800 C 367.600 284.360,367.780 284.000,368.000 284.000 C 368.220 284.000,368.400 283.640,368.400 283.200 C 368.400 282.760,368.580 282.400,368.800 282.400 C 369.020 282.400,369.200 282.040,369.200 281.600 C 369.200 281.160,369.380 280.800,369.600 280.800 C 369.820 280.800,370.000 280.440,370.000 280.000 C 370.000 279.560,370.180 279.200,370.400 279.200 C 370.620 279.200,370.800 278.660,370.800 278.000 C 370.800 277.340,370.980 276.800,371.200 276.800 C 371.420 276.800,371.600 276.440,371.600 276.000 C 371.600 275.560,371.735 275.199,371.900 275.197 C 372.256 275.193,373.200 273.259,373.200 272.532 C 373.200 272.253,373.539 271.421,373.953 270.684 C 374.367 269.947,374.832 268.592,374.988 267.672 C 375.143 266.752,375.434 266.000,375.635 266.000 C 375.836 266.000,376.000 265.460,376.000 264.800 C 376.000 264.140,376.180 263.600,376.400 263.600 C 376.620 263.600,376.800 263.060,376.800 262.400 C 376.800 261.740,376.980 261.200,377.200 261.200 C 377.420 261.200,377.600 260.660,377.600 260.000 C 377.600 259.340,377.780 258.800,378.000 258.800 C 378.220 258.800,378.400 258.361,378.400 257.824 C 378.400 257.287,378.580 256.736,378.800 256.600 C 379.020 256.464,379.200 255.823,379.200 255.176 C 379.200 254.529,379.380 254.000,379.600 254.000 C 379.820 254.000,380.000 253.370,380.000 252.600 C 380.000 251.830,380.180 251.200,380.400 251.200 C 380.620 251.200,380.800 250.480,380.800 249.600 C 380.800 248.720,380.980 248.000,381.200 248.000 C 381.420 248.000,381.600 247.381,381.600 246.624 C 381.600 245.867,381.780 245.136,382.000 245.000 C 382.220 244.864,382.400 244.043,382.400 243.176 C 382.400 242.309,382.580 241.600,382.800 241.600 C 383.020 241.600,383.200 240.880,383.200 240.000 C 383.200 239.120,383.380 238.400,383.600 238.400 C 383.820 238.400,384.000 237.511,384.000 236.424 C 384.000 235.337,384.180 234.336,384.400 234.200 C 384.620 234.064,384.800 233.074,384.800 232.000 C 384.800 230.926,384.980 229.936,385.200 229.800 C 385.420 229.664,385.600 228.404,385.600 227.000 C 385.600 225.596,385.780 224.336,386.000 224.200 C 386.220 224.064,386.400 222.444,386.400 220.600 C 386.400 218.756,386.580 217.136,386.800 217.000 C 387.349 216.661,387.349 181.739,386.800 181.400 C 386.580 181.264,386.400 179.644,386.400 177.800 C 386.400 175.956,386.220 174.336,386.000 174.200 C 385.780 174.064,385.600 172.804,385.600 171.400 C 385.600 169.996,385.420 168.736,385.200 168.600 C 384.980 168.464,384.800 167.463,384.800 166.376 C 384.800 165.289,384.620 164.400,384.400 164.400 C 384.180 164.400,384.000 163.511,384.000 162.424 C 384.000 161.337,383.820 160.336,383.600 160.200 C 383.380 160.064,383.200 159.243,383.200 158.376 C 383.200 157.509,383.020 156.800,382.800 156.800 C 382.580 156.800,382.400 156.091,382.400 155.224 C 382.400 154.357,382.220 153.536,382.000 153.400 C 381.780 153.264,381.600 152.533,381.600 151.776 C 381.600 151.019,381.420 150.400,381.200 150.400 C 380.980 150.400,380.800 149.680,380.800 148.800 C 380.800 147.920,380.620 147.200,380.400 147.200 C 380.180 147.200,380.000 146.570,380.000 145.800 C 380.000 145.030,379.820 144.400,379.600 144.400 C 379.380 144.400,379.200 143.860,379.200 143.200 C 379.200 142.540,379.020 142.000,378.800 142.000 C 378.580 142.000,378.400 141.460,378.400 140.800 C 378.400 140.140,378.220 139.600,378.000 139.600 C 377.780 139.600,377.600 139.060,377.600 138.400 C 377.600 137.740,377.420 137.200,377.200 137.200 C 376.980 137.200,376.800 136.660,376.800 136.000 C 376.800 135.340,376.620 134.800,376.400 134.800 C 376.180 134.800,376.000 134.260,376.000 133.600 C 376.000 132.940,375.840 132.400,375.645 132.400 C 375.449 132.400,375.168 131.725,375.020 130.900 C 374.695 129.094,373.919 127.200,373.502 127.200 C 373.336 127.200,373.200 126.761,373.200 126.224 C 373.200 125.687,373.020 125.136,372.800 125.000 C 372.580 124.864,372.400 124.403,372.400 123.976 C 372.400 123.549,372.220 123.200,372.000 123.200 C 371.780 123.200,371.600 122.840,371.600 122.400 C 371.600 121.960,371.420 121.600,371.200 121.600 C 370.980 121.600,370.800 121.060,370.800 120.400 C 370.800 119.740,370.620 119.200,370.400 119.200 C 370.180 119.200,370.000 118.840,370.000 118.400 C 370.000 117.960,369.820 117.600,369.600 117.600 C 369.380 117.600,369.200 117.240,369.200 116.800 C 369.200 116.360,369.020 116.000,368.800 116.000 C 368.580 116.000,368.400 115.640,368.400 115.200 C 368.400 114.760,368.220 114.400,368.000 114.400 C 367.780 114.400,367.600 114.040,367.600 113.600 C 367.600 113.160,367.454 112.800,367.275 112.800 C 367.096 112.800,366.702 112.170,366.400 111.400 C 366.098 110.630,365.704 110.000,365.525 110.000 C 365.346 110.000,365.200 109.640,365.200 109.200 C 365.200 108.760,365.020 108.400,364.800 108.400 C 364.580 108.400,364.400 108.080,364.400 107.688 C 364.400 107.297,364.040 106.717,363.600 106.400 C 363.160 106.083,362.800 105.503,362.800 105.112 C 362.800 104.720,362.620 104.400,362.400 104.400 C 362.180 104.400,362.000 104.040,362.000 103.600 C 362.000 103.160,361.820 102.800,361.600 102.800 C 361.380 102.800,361.200 102.480,361.200 102.088 C 361.200 101.697,360.840 101.117,360.400 100.800 C 359.960 100.483,359.600 99.903,359.600 99.512 C 359.600 99.120,359.420 98.800,359.200 98.800 C 358.980 98.800,358.800 98.573,358.800 98.295 C 358.800 98.017,358.170 96.854,357.400 95.710 C 356.630 94.567,356.000 93.484,356.000 93.304 C 356.000 93.124,355.640 92.717,355.200 92.400 C 354.760 92.083,354.400 91.543,354.400 91.200 C 354.400 90.857,354.040 90.317,353.600 90.000 C 353.160 89.683,352.800 89.220,352.800 88.971 C 352.800 88.722,352.260 87.954,351.600 87.263 C 350.940 86.572,350.400 85.808,350.400 85.564 C 350.400 85.320,349.860 84.617,349.200 84.000 C 348.540 83.383,348.000 82.667,348.000 82.408 C 348.000 82.149,347.280 81.246,346.400 80.400 C 345.520 79.554,344.800 78.718,344.800 78.540 C 344.800 78.363,344.107 77.584,343.261 76.809 C 342.414 76.034,341.422 74.819,341.055 74.109 C 340.508 73.050,335.350 67.737,326.310 58.923 C 325.589 58.220,324.797 57.410,324.549 57.123 C 323.959 56.438,322.444 55.200,322.197 55.200 C 322.091 55.200,321.085 54.300,319.961 53.200 C 318.838 52.100,317.757 51.200,317.560 51.200 C 317.362 51.200,316.459 50.480,315.552 49.600 C 314.645 48.720,313.737 48.000,313.534 48.000 C 313.330 48.000,312.714 47.550,312.164 47.000 C 311.614 46.450,311.000 46.000,310.800 46.000 C 310.600 46.000,309.986 45.550,309.436 45.000 C 308.886 44.450,308.276 44.000,308.080 44.000 C 307.885 44.000,307.201 43.550,306.562 43.000 C 305.923 42.451,305.215 42.001,304.988 42.000 C 304.762 42.000,304.317 41.640,304.000 41.200 C 303.683 40.760,303.143 40.400,302.800 40.400 C 302.457 40.400,301.917 40.040,301.600 39.600 C 301.283 39.160,300.703 38.800,300.312 38.800 C 299.920 38.800,299.600 38.620,299.600 38.400 C 299.600 38.180,299.280 38.000,298.888 38.000 C 298.497 38.000,297.917 37.640,297.600 37.200 C 297.283 36.760,296.703 36.400,296.312 36.400 C 295.920 36.400,295.600 36.220,295.600 36.000 C 295.600 35.780,295.280 35.600,294.888 35.600 C 294.497 35.600,293.917 35.240,293.600 34.800 C 293.283 34.360,292.703 34.000,292.312 34.000 C 291.920 34.000,291.600 33.864,291.600 33.698 C 291.600 33.531,291.015 33.141,290.300 32.830 C 289.585 32.519,288.910 32.160,288.800 32.032 C 287.963 31.061,279.806 27.200,278.592 27.200 C 278.047 27.200,277.600 27.020,277.600 26.800 C 277.600 26.580,277.240 26.400,276.800 26.400 C 276.360 26.400,276.000 26.220,276.000 26.000 C 276.000 25.780,275.730 25.600,275.400 25.600 C 275.070 25.600,274.800 25.420,274.800 25.200 C 274.800 24.980,274.451 24.800,274.024 24.800 C 273.597 24.800,273.136 24.620,273.000 24.400 C 272.864 24.180,272.313 24.000,271.776 24.000 C 271.239 24.000,270.800 23.820,270.800 23.600 C 270.800 23.380,270.440 23.200,270.000 23.200 C 269.560 23.200,269.200 23.020,269.200 22.800 C 269.200 22.580,268.660 22.400,268.000 22.400 C 267.340 22.400,266.800 22.220,266.800 22.000 C 266.800 21.780,266.440 21.600,266.000 21.600 C 265.560 21.600,265.200 21.420,265.200 21.200 C 265.200 20.980,264.660 20.800,264.000 20.800 C 263.340 20.800,262.800 20.620,262.800 20.400 C 262.800 20.180,262.260 20.000,261.600 20.000 C 260.940 20.000,260.400 19.820,260.400 19.600 C 260.400 19.380,259.961 19.200,259.424 19.200 C 258.887 19.200,258.336 19.020,258.200 18.800 C 258.064 18.580,257.513 18.400,256.976 18.400 C 256.439 18.400,256.000 18.220,256.000 18.000 C 256.000 17.780,255.471 17.600,254.824 17.600 C 254.177 17.600,253.536 17.420,253.400 17.200 C 253.264 16.980,252.533 16.800,251.776 16.800 C 251.019 16.800,250.400 16.620,250.400 16.400 C 250.400 16.180,249.871 16.000,249.224 16.000 C 248.577 16.000,247.936 15.820,247.800 15.600 C 247.664 15.380,246.933 15.200,246.176 15.200 C 245.419 15.200,244.800 15.020,244.800 14.800 C 244.800 14.580,244.091 14.400,243.224 14.400 C 242.357 14.400,241.536 14.220,241.400 14.000 C 241.264 13.780,240.479 13.600,239.656 13.600 C 238.833 13.600,237.989 13.437,237.780 13.239 C 237.423 12.900,236.264 12.702,231.400 12.152 C 230.300 12.028,229.229 11.763,229.020 11.563 C 228.811 11.363,227.542 11.200,226.200 11.200 C 224.796 11.200,223.550 10.990,223.266 10.706 C 222.777 10.217,186.686 9.871,178.601 10.277 M307.525 125.576 C 307.603 125.809,308.192 126.000,308.833 126.000 C 309.475 126.000,310.000 126.180,310.000 126.400 C 310.000 126.620,310.450 126.800,311.000 126.800 C 311.550 126.800,312.000 126.980,312.000 127.200 C 312.000 127.420,312.360 127.600,312.800 127.600 C 313.240 127.600,313.600 127.780,313.600 128.000 C 313.600 128.220,313.888 128.400,314.240 128.400 C 314.591 128.400,315.383 128.940,316.000 129.600 C 316.617 130.260,317.323 130.800,317.571 130.800 C 318.157 130.800,321.600 134.243,321.600 134.829 C 321.600 135.077,322.140 135.783,322.800 136.400 C 323.460 137.017,324.000 137.809,324.000 138.160 C 324.000 138.512,324.180 138.800,324.400 138.800 C 324.620 138.800,324.800 139.160,324.800 139.600 C 324.800 140.040,324.980 140.400,325.200 140.400 C 325.420 140.400,325.600 140.850,325.600 141.400 C 325.600 141.950,325.780 142.400,326.000 142.400 C 326.233 142.400,326.400 143.733,326.400 145.600 C 326.400 147.467,326.233 148.800,326.000 148.800 C 325.780 148.800,325.600 149.075,325.600 149.411 C 325.600 150.155,322.227 153.600,321.499 153.600 C 321.212 153.600,320.717 153.960,320.400 154.400 C 320.083 154.840,319.503 155.200,319.112 155.200 C 318.720 155.200,318.400 155.380,318.400 155.600 C 318.400 155.820,318.040 156.000,317.600 156.000 C 317.160 156.000,316.800 156.180,316.800 156.400 C 316.800 156.620,316.480 156.800,316.088 156.800 C 315.697 156.800,315.117 157.160,314.800 157.600 C 314.483 158.040,313.903 158.400,313.512 158.400 C 313.120 158.400,312.800 158.580,312.800 158.800 C 312.800 159.020,312.440 159.200,312.000 159.200 C 311.560 159.200,311.200 159.377,311.200 159.592 C 311.200 159.808,310.750 160.098,310.200 160.236 C 309.650 160.374,309.200 160.647,309.200 160.843 C 309.200 161.040,308.840 161.200,308.400 161.200 C 307.960 161.200,307.600 161.380,307.600 161.600 C 307.600 161.820,307.280 162.000,306.888 162.000 C 306.497 162.000,305.917 162.360,305.600 162.800 C 305.283 163.240,304.703 163.600,304.312 163.600 C 303.920 163.600,303.600 163.780,303.600 164.000 C 303.600 164.220,303.240 164.400,302.800 164.400 C 302.360 164.400,302.000 164.580,302.000 164.800 C 302.000 165.020,301.680 165.200,301.288 165.200 C 300.897 165.200,300.317 165.560,300.000 166.000 C 299.683 166.440,299.103 166.800,298.712 166.800 C 298.320 166.800,298.000 166.980,298.000 167.200 C 298.000 167.420,297.640 167.600,297.200 167.600 C 296.760 167.600,296.400 167.780,296.400 168.000 C 296.400 168.220,296.080 168.400,295.688 168.400 C 295.297 168.400,294.717 168.760,294.400 169.200 C 294.083 169.640,293.593 170.000,293.312 170.000 C 293.030 170.000,292.800 170.180,292.800 170.400 C 292.800 170.620,292.517 170.800,292.171 170.800 C 291.272 170.800,290.400 171.796,290.400 172.825 C 290.400 173.853,291.796 175.200,292.861 175.200 C 293.268 175.200,293.600 175.380,293.600 175.600 C 293.600 175.820,294.050 176.000,294.600 176.000 C 295.150 176.000,295.600 176.180,295.600 176.400 C 295.600 176.637,297.067 176.800,299.200 176.800 C 301.333 176.800,302.800 176.637,302.800 176.400 C 302.800 176.180,303.700 176.000,304.800 176.000 C 305.900 176.000,306.800 175.833,306.800 175.629 C 306.800 175.425,307.790 175.134,309.000 174.983 C 310.210 174.832,311.200 174.549,311.200 174.354 C 311.200 174.159,311.560 174.000,312.000 174.000 C 312.440 174.000,312.800 173.820,312.800 173.600 C 312.800 173.380,313.120 173.200,313.512 173.200 C 313.903 173.200,314.483 172.840,314.800 172.400 C 315.117 171.960,315.657 171.600,316.000 171.600 C 316.343 171.600,316.883 171.240,317.200 170.800 C 317.517 170.360,318.025 170.000,318.328 170.000 C 318.631 170.000,319.383 169.460,320.000 168.800 C 320.617 168.140,321.333 167.600,321.592 167.600 C 322.049 167.600,324.278 165.402,325.700 163.549 C 326.085 163.048,326.400 162.854,326.400 163.119 C 326.400 163.383,326.670 163.600,327.000 163.600 C 327.330 163.600,327.600 163.780,327.600 164.000 C 327.600 164.220,327.960 164.400,328.400 164.400 C 328.840 164.400,329.200 164.580,329.200 164.800 C 329.200 165.020,329.478 165.200,329.818 165.200 C 330.618 165.200,332.400 166.982,332.400 167.782 C 332.400 168.122,332.580 168.400,332.800 168.400 C 333.020 168.400,333.200 168.760,333.200 169.200 C 333.200 169.640,333.380 170.000,333.600 170.000 C 333.829 170.000,334.000 171.200,334.000 172.800 C 334.000 174.400,333.829 175.600,333.600 175.600 C 333.380 175.600,333.200 175.963,333.200 176.406 C 333.200 176.877,331.949 178.464,330.200 180.213 C 328.550 181.863,327.200 183.390,327.200 183.606 C 327.200 183.823,326.880 184.000,326.488 184.000 C 326.097 184.000,325.517 184.360,325.200 184.800 C 324.883 185.240,324.343 185.600,324.000 185.600 C 323.657 185.600,323.117 185.960,322.800 186.400 C 322.483 186.840,321.903 187.200,321.512 187.200 C 321.120 187.200,320.800 187.380,320.800 187.600 C 320.800 187.820,320.440 188.000,320.000 188.000 C 319.560 188.000,319.200 188.180,319.200 188.400 C 319.200 188.620,318.840 188.800,318.400 188.800 C 317.960 188.800,317.600 188.980,317.600 189.200 C 317.600 189.420,317.060 189.600,316.400 189.600 C 315.740 189.600,315.200 189.780,315.200 190.000 C 315.200 190.220,314.840 190.400,314.400 190.400 C 313.960 190.400,313.600 190.580,313.600 190.800 C 313.600 191.020,313.240 191.200,312.800 191.200 C 312.360 191.200,312.000 191.380,312.000 191.600 C 312.000 191.820,311.550 192.000,311.000 192.000 C 310.450 192.000,310.000 192.180,310.000 192.400 C 310.000 192.620,309.295 192.800,308.433 192.800 C 307.536 192.800,306.796 193.013,306.700 193.300 C 306.572 193.683,304.111 193.800,296.200 193.800 C 288.289 193.800,285.828 193.683,285.700 193.300 C 285.608 193.025,285.008 192.800,284.367 192.800 C 283.725 192.800,283.200 192.620,283.200 192.400 C 283.200 192.180,282.840 192.000,282.400 192.000 C 281.960 192.000,281.600 191.820,281.600 191.600 C 281.600 191.380,281.240 191.200,280.800 191.200 C 280.360 191.200,280.000 191.020,280.000 190.800 C 280.000 190.580,279.680 190.400,279.288 190.400 C 278.897 190.400,278.317 190.040,278.000 189.600 C 277.683 189.160,277.143 188.800,276.800 188.800 C 276.457 188.800,275.912 188.412,275.588 187.938 C 275.265 187.464,273.695 185.757,272.100 184.144 C 270.505 182.532,269.200 180.980,269.200 180.695 C 269.200 180.410,268.840 179.917,268.400 179.600 C 267.960 179.283,267.600 178.703,267.600 178.312 C 267.600 177.920,267.420 177.600,267.200 177.600 C 266.980 177.600,266.800 177.330,266.800 177.000 C 266.800 176.670,266.620 176.400,266.400 176.400 C 266.180 176.400,266.000 176.040,266.000 175.600 C 266.000 175.160,265.820 174.800,265.600 174.800 C 265.380 174.800,265.200 174.440,265.200 174.000 C 265.200 173.560,265.020 173.200,264.800 173.200 C 264.580 173.200,264.400 172.660,264.400 172.000 C 264.400 171.340,264.220 170.800,264.000 170.800 C 263.780 170.800,263.600 170.440,263.600 170.000 C 263.600 169.560,263.420 169.200,263.200 169.200 C 262.980 169.200,262.800 168.480,262.800 167.600 C 262.800 166.720,262.620 166.000,262.400 166.000 C 262.180 166.000,262.000 165.100,262.000 164.000 C 262.000 162.900,261.820 162.000,261.600 162.000 C 261.361 162.000,261.200 160.467,261.200 158.200 C 261.200 155.933,261.361 154.400,261.600 154.400 C 261.820 154.400,262.000 153.500,262.000 152.400 C 262.000 151.300,262.180 150.400,262.400 150.400 C 262.620 150.400,262.800 149.860,262.800 149.200 C 262.800 148.540,262.980 148.000,263.200 148.000 C 263.420 148.000,263.600 147.460,263.600 146.800 C 263.600 146.140,263.780 145.600,264.000 145.600 C 264.220 145.600,264.400 145.280,264.400 144.888 C 264.400 144.497,264.760 143.917,265.200 143.600 C 265.640 143.283,266.000 142.703,266.000 142.312 C 266.000 141.920,266.180 141.600,266.400 141.600 C 266.620 141.600,266.800 141.418,266.800 141.195 C 266.800 140.721,274.238 133.200,274.707 133.200 C 274.881 133.200,275.283 132.840,275.600 132.400 C 275.917 131.960,276.457 131.600,276.800 131.600 C 277.143 131.600,277.683 131.240,278.000 130.800 C 278.317 130.360,278.897 130.000,279.288 130.000 C 279.680 130.000,280.000 129.820,280.000 129.600 C 280.000 129.380,280.360 129.200,280.800 129.200 C 281.240 129.200,281.600 129.020,281.600 128.800 C 281.600 128.580,281.960 128.400,282.400 128.400 C 282.840 128.400,283.200 128.220,283.200 128.000 C 283.200 127.780,283.740 127.600,284.400 127.600 C 285.060 127.600,285.600 127.420,285.600 127.200 C 285.600 126.980,286.140 126.800,286.800 126.800 C 287.460 126.800,288.000 126.620,288.000 126.400 C 288.000 126.180,288.540 126.000,289.200 126.000 C 289.860 126.000,290.400 125.830,290.400 125.622 C 290.400 124.768,307.241 124.722,307.525 125.576 M291.200 142.400 C 291.200 142.620,290.840 142.800,290.400 142.800 C 289.960 142.800,289.600 142.960,289.600 143.155 C 289.600 143.351,288.954 143.632,288.165 143.780 C 286.611 144.072,283.200 147.101,283.200 148.189 C 283.200 148.525,283.020 148.800,282.800 148.800 C 282.580 148.800,282.400 149.160,282.400 149.600 C 282.400 150.040,282.220 150.400,282.000 150.400 C 281.758 150.400,281.600 152.085,281.600 154.654 L 281.600 158.909 283.500 158.649 C 284.545 158.506,285.460 158.211,285.533 157.995 C 285.607 157.778,285.972 157.600,286.345 157.600 C 286.718 157.600,287.283 157.240,287.600 156.800 C 287.917 156.360,288.497 156.000,288.888 156.000 C 289.280 156.000,289.600 155.820,289.600 155.600 C 289.600 155.380,289.948 155.200,290.373 155.200 C 290.798 155.200,291.260 154.840,291.400 154.400 C 291.540 153.960,292.002 153.600,292.427 153.600 C 292.852 153.600,293.200 153.420,293.200 153.200 C 293.200 152.980,293.520 152.800,293.912 152.800 C 294.303 152.800,294.883 152.440,295.200 152.000 C 295.517 151.560,296.097 151.200,296.488 151.200 C 296.880 151.200,297.200 151.020,297.200 150.800 C 297.200 150.580,297.560 150.400,298.000 150.400 C 298.440 150.400,298.800 150.220,298.800 150.000 C 298.800 149.780,299.120 149.600,299.512 149.600 C 299.903 149.600,300.483 149.240,300.800 148.800 C 301.117 148.360,301.620 148.000,301.917 148.000 C 302.738 148.000,303.600 146.963,303.600 145.975 C 303.600 144.947,302.204 143.600,301.139 143.600 C 300.732 143.600,300.400 143.420,300.400 143.200 C 300.400 142.980,300.040 142.800,299.600 142.800 C 299.160 142.800,298.800 142.620,298.800 142.400 C 298.800 142.161,297.267 142.000,295.000 142.000 C 292.733 142.000,291.200 142.161,291.200 142.400 M250.400 144.400 C 250.400 144.620,250.856 144.800,251.413 144.800 C 252.540 144.800,255.200 147.179,255.200 148.187 C 255.200 148.524,255.380 148.800,255.600 148.800 C 255.820 148.800,256.000 149.160,256.000 149.600 C 256.000 150.040,256.180 150.400,256.400 150.400 C 256.620 150.400,256.800 151.120,256.800 152.000 C 256.800 152.880,256.980 153.600,257.200 153.600 C 257.814 153.600,257.675 156.382,257.029 157.029 C 256.714 157.343,256.174 157.600,255.829 157.600 C 255.483 157.600,255.200 157.780,255.200 158.000 C 255.200 158.220,254.840 158.400,254.400 158.400 C 253.960 158.400,253.600 158.580,253.600 158.800 C 253.600 159.020,253.240 159.200,252.800 159.200 C 252.360 159.200,252.000 159.364,252.000 159.565 C 252.000 159.766,251.280 160.051,250.400 160.200 C 249.520 160.349,248.800 160.634,248.800 160.835 C 248.800 161.036,248.480 161.200,248.088 161.200 C 247.697 161.200,247.117 161.560,246.800 162.000 C 246.483 162.440,245.943 162.800,245.600 162.800 C 245.257 162.800,244.717 163.160,244.400 163.600 C 244.083 164.040,243.633 164.400,243.400 164.400 C 243.167 164.400,242.717 164.760,242.400 165.200 C 242.083 165.640,241.587 166.000,241.298 166.000 C 240.361 166.000,238.000 168.710,238.000 169.787 C 238.000 170.344,238.180 170.800,238.400 170.800 C 238.620 170.800,238.800 171.160,238.800 171.600 C 238.800 172.040,238.980 172.400,239.200 172.400 C 239.420 172.400,239.600 172.940,239.600 173.600 C 239.600 174.260,239.780 174.800,240.000 174.800 C 240.220 174.800,240.400 175.070,240.400 175.400 C 240.400 175.730,240.580 176.000,240.800 176.000 C 241.020 176.000,241.200 176.540,241.200 177.200 C 241.200 177.860,241.380 178.400,241.600 178.400 C 241.820 178.400,242.000 178.760,242.000 179.200 C 242.000 179.640,242.180 180.000,242.400 180.000 C 242.620 180.000,242.800 180.540,242.800 181.200 C 242.800 181.860,242.974 182.400,243.186 182.400 C 243.399 182.400,243.692 183.300,243.838 184.400 C 243.984 185.500,244.260 186.400,244.452 186.400 C 244.643 186.400,244.800 186.760,244.800 187.200 C 244.800 187.640,244.980 188.000,245.200 188.000 C 245.420 188.000,245.600 188.324,245.600 188.720 C 245.600 189.614,246.494 191.593,246.900 191.597 C 247.065 191.599,247.200 192.140,247.200 192.800 C 247.200 193.460,247.380 194.000,247.600 194.000 C 247.820 194.000,248.000 194.360,248.000 194.800 C 248.000 195.240,248.180 195.600,248.400 195.600 C 248.620 195.600,248.800 196.140,248.800 196.800 C 248.800 197.460,248.980 198.000,249.200 198.000 C 249.420 198.000,249.600 198.360,249.600 198.800 C 249.600 199.240,249.780 199.600,250.000 199.600 C 250.220 199.600,250.400 200.140,250.400 200.800 C 250.400 201.460,250.580 202.000,250.800 202.000 C 251.020 202.000,251.200 202.360,251.200 202.800 C 251.200 203.240,251.380 203.600,251.600 203.600 C 251.820 203.600,252.000 204.140,252.000 204.800 C 252.000 205.460,252.180 206.000,252.400 206.000 C 252.620 206.000,252.800 206.360,252.800 206.800 C 252.800 207.240,252.980 207.600,253.200 207.600 C 253.420 207.600,253.600 208.050,253.600 208.600 C 253.600 209.150,253.780 209.600,254.000 209.600 C 254.220 209.600,254.400 209.960,254.400 210.400 C 254.400 210.840,254.580 211.200,254.800 211.200 C 255.020 211.200,255.200 211.380,255.200 211.600 C 255.200 211.820,254.880 212.000,254.488 212.000 C 254.097 212.000,253.517 212.360,253.200 212.800 C 252.883 213.240,252.303 213.600,251.912 213.600 C 251.520 213.600,251.200 213.780,251.200 214.000 C 251.200 214.220,250.840 214.400,250.400 214.400 C 249.960 214.400,249.600 214.580,249.600 214.800 C 249.600 215.020,249.240 215.200,248.800 215.200 C 248.360 215.200,248.000 215.380,248.000 215.600 C 248.000 215.820,247.640 216.000,247.200 216.000 C 246.760 216.000,246.400 216.180,246.400 216.400 C 246.400 216.620,245.860 216.800,245.200 216.800 C 244.540 216.800,244.000 216.980,244.000 217.200 C 244.000 217.420,243.550 217.600,243.000 217.600 C 242.450 217.600,242.000 217.780,242.000 218.000 C 242.000 218.235,240.597 218.400,238.591 218.400 L 235.183 218.400 232.991 216.209 C 231.786 215.003,230.800 213.743,230.800 213.409 C 230.800 213.074,230.620 212.800,230.400 212.800 C 230.180 212.800,230.000 212.440,230.000 212.000 C 230.000 211.560,229.820 211.200,229.600 211.200 C 229.380 211.200,229.200 210.750,229.200 210.200 C 229.200 209.650,229.020 209.200,228.800 209.200 C 228.580 209.200,228.400 208.840,228.400 208.400 C 228.400 207.960,228.220 207.600,228.000 207.600 C 227.780 207.600,227.600 207.060,227.600 206.400 C 227.600 205.740,227.420 205.200,227.200 205.200 C 226.980 205.200,226.800 204.840,226.800 204.400 C 226.800 203.960,226.620 203.600,226.400 203.600 C 226.180 203.600,226.000 203.060,226.000 202.400 C 226.000 201.740,225.831 201.200,225.625 201.200 C 225.418 201.200,225.123 200.345,224.969 199.300 C 224.815 198.255,224.579 197.310,224.444 197.200 C 223.911 196.764,223.200 195.167,223.200 194.405 C 223.200 193.962,223.020 193.600,222.800 193.600 C 222.580 193.600,222.400 193.240,222.400 192.800 C 222.400 192.360,222.220 192.000,222.000 192.000 C 221.780 192.000,221.600 191.460,221.600 190.800 C 221.600 190.140,221.420 189.600,221.200 189.600 C 220.980 189.600,220.800 189.240,220.800 188.800 C 220.800 188.360,220.620 188.000,220.400 188.000 C 220.180 188.000,220.000 187.460,220.000 186.800 C 220.000 186.140,219.820 185.600,219.600 185.600 C 219.380 185.600,219.200 185.240,219.200 184.800 C 219.200 184.360,219.020 184.000,218.800 184.000 C 218.580 184.000,218.400 183.460,218.400 182.800 C 218.400 182.140,218.220 181.600,218.000 181.600 C 217.780 181.600,217.600 181.240,217.600 180.800 C 217.600 180.360,217.420 180.000,217.200 180.000 C 216.980 180.000,216.800 179.460,216.800 178.800 C 216.800 178.140,216.620 177.600,216.400 177.600 C 216.180 177.600,216.000 177.330,216.000 177.000 C 216.000 176.670,215.820 176.400,215.600 176.400 C 215.380 176.400,215.200 175.860,215.200 175.200 C 215.200 174.540,215.020 174.000,214.800 174.000 C 214.580 174.000,214.400 173.460,214.400 172.800 C 214.400 172.140,214.220 171.600,214.000 171.600 C 213.780 171.600,213.600 170.700,213.600 169.600 C 213.600 168.500,213.780 167.600,214.000 167.600 C 214.220 167.600,214.400 167.060,214.400 166.400 C 214.400 165.740,214.580 165.200,214.800 165.200 C 215.020 165.200,215.200 164.880,215.200 164.488 C 215.200 164.097,215.560 163.517,216.000 163.200 C 216.440 162.883,216.808 162.348,216.818 162.012 C 216.829 161.675,217.556 160.770,218.435 160.000 C 219.314 159.230,220.650 158.015,221.403 157.300 C 222.157 156.585,223.010 156.000,223.298 156.000 C 223.587 156.000,224.088 155.623,224.412 155.163 C 225.581 153.498,226.304 152.800,226.859 152.800 C 227.169 152.800,227.683 152.440,228.000 152.000 C 228.317 151.560,228.857 151.200,229.200 151.200 C 229.543 151.200,230.083 150.840,230.400 150.400 C 230.717 149.960,231.297 149.600,231.688 149.600 C 232.080 149.600,232.400 149.420,232.400 149.200 C 232.400 148.980,232.760 148.800,233.200 148.800 C 233.640 148.800,234.000 148.620,234.000 148.400 C 234.000 148.180,234.360 148.000,234.800 148.000 C 235.240 148.000,235.600 147.820,235.600 147.600 C 235.600 147.380,235.960 147.200,236.400 147.200 C 236.840 147.200,237.200 147.020,237.200 146.800 C 237.200 146.580,237.560 146.400,238.000 146.400 C 238.440 146.400,238.800 146.220,238.800 146.000 C 238.800 145.780,239.340 145.600,240.000 145.600 C 240.660 145.600,241.200 145.420,241.200 145.200 C 241.200 144.980,241.650 144.800,242.200 144.800 C 242.750 144.800,243.200 144.620,243.200 144.400 C 243.200 144.163,244.667 144.000,246.800 144.000 C 248.933 144.000,250.400 144.163,250.400 144.400 M192.000 170.400 C 192.000 170.620,192.630 170.800,193.400 170.800 C 194.170 170.800,194.800 170.980,194.800 171.200 C 194.800 171.420,195.340 171.600,196.000 171.600 C 196.660 171.600,197.200 171.780,197.200 172.000 C 197.200 172.220,197.560 172.400,198.000 172.400 C 198.440 172.400,198.800 172.580,198.800 172.800 C 198.800 173.020,199.160 173.200,199.600 173.200 C 200.040 173.200,200.400 173.380,200.400 173.600 C 200.400 173.820,200.760 174.000,201.200 174.000 C 201.640 174.000,202.000 174.180,202.000 174.400 C 202.000 174.620,202.352 174.800,202.783 174.800 C 203.825 174.800,209.798 180.739,210.144 182.120 C 210.293 182.714,210.592 183.200,210.808 183.200 C 211.023 183.200,211.200 183.560,211.200 184.000 C 211.200 184.440,211.380 184.800,211.600 184.800 C 211.820 184.800,212.000 185.340,212.000 186.000 C 212.000 186.660,212.180 187.200,212.400 187.200 C 212.620 187.200,212.800 187.740,212.800 188.400 C 212.800 189.060,212.980 189.600,213.200 189.600 C 213.420 189.600,213.600 190.320,213.600 191.200 C 213.600 192.080,213.454 192.800,213.275 192.800 C 213.096 192.800,212.704 193.425,212.404 194.189 C 212.105 194.953,211.486 195.915,211.030 196.327 C 210.573 196.739,209.935 197.464,209.612 197.938 C 209.288 198.412,208.743 198.800,208.400 198.800 C 208.057 198.800,207.517 199.160,207.200 199.600 C 206.883 200.040,206.303 200.400,205.912 200.400 C 205.520 200.400,205.200 200.580,205.200 200.800 C 205.200 201.020,204.840 201.200,204.400 201.200 C 203.960 201.200,203.600 201.380,203.600 201.600 C 203.600 201.820,203.280 202.000,202.888 202.000 C 202.497 202.000,201.917 202.360,201.600 202.800 C 201.283 203.240,200.703 203.600,200.312 203.600 C 199.920 203.600,199.600 203.780,199.600 204.000 C 199.600 204.220,199.280 204.400,198.888 204.400 C 198.497 204.400,197.917 204.760,197.600 205.200 C 197.283 205.640,196.703 206.000,196.312 206.000 C 195.920 206.000,195.600 206.180,195.600 206.400 C 195.600 206.620,195.240 206.800,194.800 206.800 C 194.360 206.800,194.000 206.980,194.000 207.200 C 194.000 207.420,193.770 207.600,193.488 207.600 C 193.207 207.600,192.717 207.960,192.400 208.400 C 192.083 208.840,191.503 209.200,191.112 209.200 C 190.720 209.200,190.400 209.364,190.400 209.565 C 190.400 209.766,189.712 210.046,188.872 210.188 C 188.031 210.330,187.091 210.796,186.783 211.223 C 186.475 211.650,185.903 212.000,185.512 212.000 C 185.120 212.000,184.800 212.180,184.800 212.400 C 184.800 212.620,184.440 212.800,184.000 212.800 C 183.560 212.800,183.200 212.980,183.200 213.200 C 183.200 213.420,182.880 213.600,182.488 213.600 C 182.097 213.600,181.517 213.960,181.200 214.400 C 180.883 214.840,180.303 215.200,179.912 215.200 C 179.520 215.200,179.200 215.380,179.200 215.600 C 179.200 215.820,178.843 216.000,178.408 216.000 C 177.488 216.000,176.979 217.464,177.364 219.000 C 177.526 219.646,177.896 220.000,178.408 220.000 C 178.843 220.000,179.200 220.180,179.200 220.400 C 179.200 220.620,179.560 220.800,180.000 220.800 C 180.440 220.800,180.800 220.980,180.800 221.200 C 180.800 221.420,181.520 221.600,182.400 221.600 C 183.280 221.600,184.000 221.780,184.000 222.000 C 184.000 222.222,185.067 222.400,186.400 222.400 C 187.733 222.400,188.800 222.222,188.800 222.000 C 188.800 221.780,189.790 221.600,191.000 221.600 C 192.210 221.600,193.200 221.420,193.200 221.200 C 193.200 220.980,193.740 220.800,194.400 220.800 C 195.060 220.800,195.600 220.620,195.600 220.400 C 195.600 220.180,195.960 220.000,196.400 220.000 C 196.840 220.000,197.200 219.820,197.200 219.600 C 197.200 219.380,197.740 219.200,198.400 219.200 C 199.060 219.200,199.600 219.020,199.600 218.800 C 199.600 218.580,199.920 218.400,200.312 218.400 C 200.703 218.400,201.283 218.040,201.600 217.600 C 201.917 217.160,202.497 216.800,202.888 216.800 C 203.280 216.800,203.600 216.620,203.600 216.400 C 203.600 216.180,203.888 216.000,204.240 216.000 C 204.591 216.000,205.383 215.460,206.000 214.800 C 206.617 214.140,207.409 213.600,207.760 213.600 C 208.112 213.600,208.400 213.424,208.400 213.209 C 208.400 211.142,214.471 207.583,215.133 209.262 C 215.207 209.448,215.526 209.600,215.844 209.600 C 216.613 209.600,220.000 213.014,220.000 213.789 C 220.000 214.125,220.180 214.400,220.400 214.400 C 220.620 214.400,220.800 214.940,220.800 215.600 C 220.800 216.260,220.980 216.800,221.200 216.800 C 221.420 216.800,221.600 217.340,221.600 218.000 C 221.600 218.660,221.420 219.200,221.200 219.200 C 220.980 219.200,220.800 219.740,220.800 220.400 C 220.800 221.060,220.620 221.600,220.400 221.600 C 220.180 221.600,220.000 221.880,220.000 222.222 C 220.000 222.769,218.589 224.244,213.711 228.797 C 213.003 229.459,212.148 230.000,211.811 230.000 C 211.475 230.000,211.200 230.180,211.200 230.400 C 211.200 230.620,210.930 230.800,210.600 230.800 C 210.270 230.800,210.000 230.980,210.000 231.200 C 210.000 231.420,209.680 231.600,209.288 231.600 C 208.897 231.600,208.317 231.960,208.000 232.400 C 207.683 232.840,207.103 233.200,206.712 233.200 C 206.320 233.200,206.000 233.380,206.000 233.600 C 206.000 233.820,205.640 234.000,205.200 234.000 C 204.760 234.000,204.400 234.180,204.400 234.400 C 204.400 234.620,203.860 234.800,203.200 234.800 C 202.540 234.800,202.000 234.980,202.000 235.200 C 202.000 235.420,201.640 235.600,201.200 235.600 C 200.760 235.600,200.400 235.780,200.400 236.000 C 200.400 236.220,199.860 236.400,199.200 236.400 C 198.540 236.400,198.000 236.580,198.000 236.800 C 198.000 237.020,197.460 237.200,196.800 237.200 C 196.140 237.200,195.600 237.380,195.600 237.600 C 195.600 237.820,195.150 238.000,194.600 238.000 C 194.050 238.000,193.600 238.180,193.600 238.400 C 193.600 238.620,192.700 238.800,191.600 238.800 C 190.500 238.800,189.600 238.980,189.600 239.200 C 189.600 239.451,187.067 239.600,182.800 239.600 C 178.533 239.600,176.000 239.451,176.000 239.200 C 176.000 238.980,175.370 238.800,174.600 238.800 C 173.830 238.800,173.200 238.620,173.200 238.400 C 173.200 238.180,172.660 238.000,172.000 238.000 C 171.340 238.000,170.800 237.820,170.800 237.600 C 170.800 237.380,170.440 237.200,170.000 237.200 C 169.560 237.200,169.200 237.020,169.200 236.800 C 169.200 236.580,168.840 236.400,168.400 236.400 C 167.960 236.400,167.600 236.220,167.600 236.000 C 167.600 235.780,167.240 235.600,166.800 235.600 C 166.360 235.600,166.000 235.420,166.000 235.200 C 166.000 234.980,165.712 234.800,165.360 234.800 C 165.009 234.800,164.217 234.260,163.600 233.600 C 162.983 232.940,162.262 232.400,161.997 232.400 C 161.458 232.400,157.600 228.431,157.600 227.876 C 157.600 227.681,157.060 227.017,156.400 226.400 C 155.740 225.783,155.200 224.991,155.200 224.640 C 155.200 224.288,155.020 224.000,154.800 224.000 C 154.580 224.000,154.400 223.640,154.400 223.200 C 154.400 222.760,154.220 222.400,154.000 222.400 C 153.780 222.400,153.600 222.040,153.600 221.600 C 153.600 221.160,153.420 220.800,153.200 220.800 C 152.980 220.800,152.800 220.440,152.800 220.000 C 152.800 219.560,152.620 219.200,152.400 219.200 C 152.180 219.200,152.000 218.840,152.000 218.400 C 152.000 217.960,151.820 217.600,151.600 217.600 C 151.380 217.600,151.200 217.060,151.200 216.400 C 151.200 215.740,151.020 215.200,150.800 215.200 C 150.580 215.200,150.400 214.660,150.400 214.000 C 150.400 213.340,150.220 212.800,150.000 212.800 C 149.780 212.800,149.600 212.260,149.600 211.600 C 149.600 210.940,149.420 210.400,149.200 210.400 C 148.974 210.400,148.800 209.267,148.800 207.800 C 148.800 206.333,148.626 205.200,148.400 205.200 C 148.180 205.200,148.000 204.480,148.000 203.600 C 148.000 202.720,148.180 202.000,148.400 202.000 C 148.629 202.000,148.800 200.800,148.800 199.200 C 148.800 197.600,148.971 196.400,149.200 196.400 C 149.420 196.400,149.600 195.860,149.600 195.200 C 149.600 194.540,149.780 194.000,150.000 194.000 C 150.220 194.000,150.400 193.460,150.400 192.800 C 150.400 192.140,150.580 191.600,150.800 191.600 C 151.020 191.600,151.200 191.330,151.200 191.000 C 151.200 190.670,151.380 190.400,151.600 190.400 C 151.820 190.400,152.000 190.040,152.000 189.600 C 152.000 189.160,152.180 188.800,152.400 188.800 C 152.620 188.800,152.800 188.480,152.800 188.088 C 152.800 187.697,153.160 187.117,153.600 186.800 C 154.040 186.483,154.400 185.989,154.400 185.703 C 154.400 185.417,155.345 184.210,156.500 183.021 C 157.655 181.833,159.050 180.312,159.600 179.642 C 160.150 178.972,160.875 178.419,161.212 178.412 C 161.548 178.405,162.083 178.040,162.400 177.600 C 162.717 177.160,163.257 176.800,163.600 176.800 C 163.943 176.800,164.475 176.450,164.783 176.023 C 165.091 175.596,166.031 175.130,166.872 174.988 C 167.712 174.846,168.400 174.566,168.400 174.365 C 168.400 174.164,168.760 174.000,169.200 174.000 C 169.640 174.000,170.000 173.820,170.000 173.600 C 170.000 173.380,170.540 173.200,171.200 173.200 C 171.860 173.200,172.400 173.020,172.400 172.800 C 172.400 172.580,172.940 172.400,173.600 172.400 C 174.260 172.400,174.800 172.220,174.800 172.000 C 174.800 171.780,175.250 171.600,175.800 171.600 C 176.350 171.600,176.800 171.420,176.800 171.200 C 176.800 170.980,177.700 170.800,178.800 170.800 C 179.900 170.800,180.800 170.620,180.800 170.400 C 180.800 170.152,182.933 170.000,186.400 170.000 C 189.867 170.000,192.000 170.152,192.000 170.400 M180.800 186.800 C 180.800 187.020,180.080 187.200,179.200 187.200 C 178.320 187.200,177.600 187.380,177.600 187.600 C 177.600 187.820,177.190 188.000,176.688 188.000 C 176.187 188.000,175.517 188.360,175.200 188.800 C 174.883 189.240,174.387 189.600,174.098 189.600 C 173.383 189.600,170.800 192.231,170.800 192.960 C 170.800 193.282,170.440 193.660,170.000 193.800 C 169.440 193.978,169.200 194.405,169.200 195.227 C 169.200 195.872,169.020 196.400,168.800 196.400 C 168.567 196.400,168.400 197.733,168.400 199.600 C 168.400 201.467,168.567 202.800,168.800 202.800 C 169.020 202.800,169.200 203.160,169.200 203.600 C 169.200 204.133,169.467 204.400,170.000 204.400 C 170.440 204.400,170.800 204.220,170.800 204.000 C 170.800 203.780,171.160 203.600,171.600 203.600 C 172.040 203.600,172.400 203.420,172.400 203.200 C 172.400 202.980,172.720 202.800,173.112 202.800 C 173.503 202.800,174.083 202.440,174.400 202.000 C 174.717 201.560,175.207 201.200,175.488 201.200 C 175.770 201.200,176.000 201.020,176.000 200.800 C 176.000 200.580,176.320 200.400,176.712 200.400 C 177.103 200.400,177.683 200.040,178.000 199.600 C 178.317 199.160,178.897 198.800,179.288 198.800 C 179.680 198.800,180.000 198.620,180.000 198.400 C 180.000 198.180,180.320 198.000,180.712 198.000 C 181.103 198.000,181.683 197.640,182.000 197.200 C 182.317 196.760,182.897 196.400,183.288 196.400 C 183.680 196.400,184.000 196.220,184.000 196.000 C 184.000 195.780,184.360 195.600,184.800 195.600 C 185.240 195.600,185.600 195.420,185.600 195.200 C 185.600 194.980,185.920 194.800,186.312 194.800 C 186.703 194.800,187.283 194.440,187.600 194.000 C 187.917 193.560,188.420 193.200,188.717 193.200 C 189.632 193.200,190.400 192.118,190.400 190.829 C 190.400 189.917,190.216 189.600,189.688 189.600 C 189.297 189.600,188.717 189.240,188.400 188.800 C 188.083 188.360,187.503 188.000,187.112 188.000 C 186.720 188.000,186.400 187.820,186.400 187.600 C 186.400 187.380,185.860 187.200,185.200 187.200 C 184.540 187.200,184.000 187.020,184.000 186.800 C 184.000 186.580,183.280 186.400,182.400 186.400 C 181.520 186.400,180.800 186.580,180.800 186.800 M80.800 187.600 C 80.800 187.820,81.255 188.000,81.811 188.000 C 82.820 188.000,86.400 191.112,86.400 191.989 C 86.400 192.215,86.580 192.400,86.800 192.400 C 87.020 192.400,87.200 192.760,87.200 193.200 C 87.200 193.640,87.380 194.000,87.600 194.000 C 87.820 194.000,88.000 194.540,88.000 195.200 C 88.000 195.860,88.180 196.400,88.400 196.400 C 88.620 196.400,88.800 196.760,88.800 197.200 C 88.800 197.640,88.980 198.000,89.200 198.000 C 89.420 198.000,89.600 198.540,89.600 199.200 C 89.600 199.860,89.780 200.400,90.000 200.400 C 90.220 200.400,90.400 200.760,90.400 201.200 C 90.400 201.640,90.580 202.000,90.800 202.000 C 91.020 202.000,91.200 202.540,91.200 203.200 C 91.200 203.860,91.380 204.400,91.600 204.400 C 91.820 204.400,92.000 204.683,92.000 205.029 C 92.000 205.659,92.909 206.800,93.411 206.800 C 93.558 206.800,94.183 206.260,94.800 205.600 C 95.417 204.940,96.169 204.400,96.472 204.400 C 96.775 204.400,97.283 204.040,97.600 203.600 C 97.917 203.160,98.457 202.800,98.800 202.800 C 99.143 202.800,99.683 202.440,100.000 202.000 C 100.317 201.560,100.897 201.200,101.288 201.200 C 101.680 201.200,102.000 201.020,102.000 200.800 C 102.000 200.580,102.540 200.400,103.200 200.400 C 103.860 200.400,104.400 200.220,104.400 200.000 C 104.400 199.780,104.760 199.600,105.200 199.600 C 105.640 199.600,106.000 199.420,106.000 199.200 C 106.000 198.980,106.540 198.800,107.200 198.800 C 107.860 198.800,108.400 198.620,108.400 198.400 C 108.400 198.180,108.850 198.000,109.400 198.000 C 109.950 198.000,110.400 197.820,110.400 197.600 C 110.400 197.380,111.120 197.200,112.000 197.200 C 112.880 197.200,113.600 197.020,113.600 196.800 C 113.600 196.552,115.733 196.400,119.200 196.400 C 122.667 196.400,124.800 196.552,124.800 196.800 C 124.800 197.020,125.430 197.200,126.200 197.200 C 126.970 197.200,127.600 197.380,127.600 197.600 C 127.600 197.820,127.960 198.000,128.400 198.000 C 128.840 198.000,129.200 198.180,129.200 198.400 C 129.200 198.620,129.560 198.800,130.000 198.800 C 130.440 198.800,130.800 198.980,130.800 199.200 C 130.800 199.420,131.088 199.600,131.440 199.600 C 131.791 199.600,132.583 200.140,133.200 200.800 C 133.817 201.460,134.609 202.000,134.960 202.000 C 135.312 202.000,135.600 202.284,135.600 202.631 C 135.600 202.979,136.320 203.954,137.200 204.800 C 138.080 205.646,138.800 206.621,138.800 206.969 C 138.800 207.316,138.980 207.600,139.200 207.600 C 139.420 207.600,139.600 207.870,139.600 208.200 C 139.600 208.530,139.780 208.800,140.000 208.800 C 140.220 208.800,140.400 209.160,140.400 209.600 C 140.400 210.040,140.580 210.400,140.800 210.400 C 141.020 210.400,141.200 210.760,141.200 211.200 C 141.200 211.640,141.380 212.000,141.600 212.000 C 141.820 212.000,142.000 212.360,142.000 212.800 C 142.000 213.240,142.180 213.600,142.400 213.600 C 142.620 213.600,142.800 214.140,142.800 214.800 C 142.800 215.460,142.974 216.000,143.186 216.000 C 143.399 216.000,143.692 216.900,143.838 218.000 C 143.984 219.100,144.260 220.000,144.452 220.000 C 144.643 220.000,144.800 220.360,144.800 220.800 C 144.800 221.240,144.980 221.600,145.200 221.600 C 145.420 221.600,145.600 221.924,145.600 222.320 C 145.600 223.214,146.494 225.193,146.900 225.197 C 147.065 225.199,147.200 225.740,147.200 226.400 C 147.200 227.060,147.380 227.600,147.600 227.600 C 147.820 227.600,148.000 227.960,148.000 228.400 C 148.000 228.840,148.180 229.200,148.400 229.200 C 148.620 229.200,148.800 229.740,148.800 230.400 C 148.800 231.060,148.980 231.600,149.200 231.600 C 149.420 231.600,149.600 231.960,149.600 232.400 C 149.600 232.840,149.780 233.200,150.000 233.200 C 150.220 233.200,150.400 233.740,150.400 234.400 C 150.400 235.060,150.580 235.600,150.800 235.600 C 151.020 235.600,151.200 235.960,151.200 236.400 C 151.200 236.840,151.380 237.200,151.600 237.200 C 151.820 237.200,152.000 237.740,152.000 238.400 C 152.000 239.060,152.180 239.600,152.400 239.600 C 152.620 239.600,152.800 239.960,152.800 240.400 C 152.800 240.840,152.980 241.200,153.200 241.200 C 153.420 241.200,153.600 241.650,153.600 242.200 C 153.600 242.750,153.780 243.200,154.000 243.200 C 154.220 243.200,154.400 243.560,154.400 244.000 C 154.400 244.440,154.580 244.800,154.800 244.800 C 155.020 244.800,155.200 245.340,155.200 246.000 C 155.200 246.660,155.380 247.200,155.600 247.200 C 155.820 247.200,156.000 247.560,156.000 248.000 C 156.000 248.440,156.180 248.800,156.400 248.800 C 157.007 248.800,156.878 250.779,156.229 251.429 C 155.914 251.743,155.414 252.000,155.117 252.000 C 154.820 252.000,154.317 252.360,154.000 252.800 C 153.683 253.240,153.103 253.600,152.712 253.600 C 152.320 253.600,152.000 253.780,152.000 254.000 C 152.000 254.220,151.640 254.400,151.200 254.400 C 150.760 254.400,150.400 254.580,150.400 254.800 C 150.400 255.020,149.860 255.200,149.200 255.200 C 148.540 255.200,148.000 255.380,148.000 255.600 C 148.000 255.820,147.640 256.000,147.200 256.000 C 146.760 256.000,146.400 256.180,146.400 256.400 C 146.400 256.620,145.860 256.800,145.200 256.800 C 144.540 256.800,144.000 256.980,144.000 257.200 C 144.000 257.431,142.733 257.600,141.000 257.600 C 139.267 257.600,138.000 257.431,138.000 257.200 C 138.000 256.980,137.725 256.800,137.389 256.800 C 136.596 256.800,133.200 253.404,133.200 252.611 C 133.200 252.275,133.020 252.000,132.800 252.000 C 132.580 252.000,132.400 251.460,132.400 250.800 C 132.400 250.140,132.220 249.600,132.000 249.600 C 131.780 249.600,131.600 249.240,131.600 248.800 C 131.600 248.360,131.420 248.000,131.200 248.000 C 130.980 248.000,130.800 247.460,130.800 246.800 C 130.800 246.140,130.620 245.600,130.400 245.600 C 130.180 245.600,130.000 245.240,130.000 244.800 C 130.000 244.360,129.820 244.000,129.600 244.000 C 129.380 244.000,129.200 243.550,129.200 243.000 C 129.200 242.450,129.020 242.000,128.800 242.000 C 128.580 242.000,128.400 241.640,128.400 241.200 C 128.400 240.760,128.220 240.400,128.000 240.400 C 127.780 240.400,127.600 239.860,127.600 239.200 C 127.600 238.540,127.420 238.000,127.200 238.000 C 126.980 238.000,126.800 237.640,126.800 237.200 C 126.800 236.760,126.620 236.400,126.400 236.400 C 126.180 236.400,126.000 235.860,126.000 235.200 C 126.000 234.540,125.831 234.000,125.625 234.000 C 125.418 234.000,125.123 233.145,124.969 232.100 C 124.815 231.055,124.579 230.110,124.444 230.000 C 123.911 229.564,123.200 227.967,123.200 227.205 C 123.200 226.762,123.020 226.400,122.800 226.400 C 122.580 226.400,122.400 226.040,122.400 225.600 C 122.400 225.160,122.220 224.800,122.000 224.800 C 121.780 224.800,121.600 224.260,121.600 223.600 C 121.600 222.940,121.420 222.400,121.200 222.400 C 120.980 222.400,120.800 222.080,120.800 221.688 C 120.800 221.297,120.440 220.717,120.000 220.400 C 119.560 220.083,119.200 219.585,119.200 219.294 C 119.200 218.563,117.374 216.800,116.618 216.800 C 116.278 216.800,116.000 216.620,116.000 216.400 C 116.000 216.161,114.467 216.000,112.200 216.000 C 109.933 216.000,108.400 216.161,108.400 216.400 C 108.400 216.620,108.040 216.800,107.600 216.800 C 107.160 216.800,106.800 216.980,106.800 217.200 C 106.800 217.420,106.440 217.600,106.000 217.600 C 105.560 217.600,105.200 217.780,105.200 218.000 C 105.200 218.220,104.880 218.400,104.488 218.400 C 104.097 218.400,103.517 218.760,103.200 219.200 C 102.883 219.640,102.385 220.000,102.094 220.000 C 100.934 220.000,99.600 221.917,99.600 223.582 C 99.600 224.472,99.780 225.200,100.000 225.200 C 100.220 225.200,100.400 225.740,100.400 226.400 C 100.400 227.060,100.580 227.600,100.800 227.600 C 101.020 227.600,101.200 227.960,101.200 228.400 C 101.200 228.840,101.380 229.200,101.600 229.200 C 101.820 229.200,102.000 229.740,102.000 230.400 C 102.000 231.060,102.180 231.600,102.400 231.600 C 102.620 231.600,102.800 231.960,102.800 232.400 C 102.800 232.840,102.980 233.200,103.200 233.200 C 103.420 233.200,103.600 233.740,103.600 234.400 C 103.600 235.060,103.780 235.600,104.000 235.600 C 104.220 235.600,104.400 235.960,104.400 236.400 C 104.400 236.840,104.580 237.200,104.800 237.200 C 105.020 237.200,105.200 237.740,105.200 238.400 C 105.200 239.060,105.380 239.600,105.600 239.600 C 105.820 239.600,106.000 239.960,106.000 240.400 C 106.000 240.840,106.180 241.200,106.400 241.200 C 106.620 241.200,106.800 241.650,106.800 242.200 C 106.800 242.750,106.980 243.200,107.200 243.200 C 107.420 243.200,107.600 243.560,107.600 244.000 C 107.600 244.440,107.780 244.800,108.000 244.800 C 108.220 244.800,108.400 245.340,108.400 246.000 C 108.400 246.660,108.580 247.200,108.800 247.200 C 109.020 247.200,109.200 247.560,109.200 248.000 C 109.200 248.440,109.357 248.800,109.548 248.800 C 109.740 248.800,110.016 249.700,110.162 250.800 C 110.308 251.900,110.601 252.800,110.814 252.800 C 111.026 252.800,111.200 253.340,111.200 254.000 C 111.200 254.660,111.335 255.201,111.500 255.203 C 111.906 255.207,112.800 257.186,112.800 258.080 C 112.800 258.476,112.980 258.800,113.200 258.800 C 113.420 258.800,113.600 259.160,113.600 259.600 C 113.600 260.040,113.780 260.400,114.000 260.400 C 114.220 260.400,114.400 260.940,114.400 261.600 C 114.400 262.260,114.580 262.800,114.800 262.800 C 115.020 262.800,115.200 263.160,115.200 263.600 C 115.200 264.040,115.380 264.400,115.600 264.400 C 115.820 264.400,116.000 264.940,116.000 265.600 C 116.000 266.393,116.201 266.800,116.592 266.800 C 117.242 266.800,117.831 268.503,117.414 269.177 C 117.270 269.410,116.839 269.600,116.456 269.600 C 115.581 269.600,113.607 270.499,113.603 270.900 C 113.601 271.065,113.060 271.200,112.400 271.200 C 111.740 271.200,111.200 271.380,111.200 271.600 C 111.200 271.820,110.840 272.000,110.400 272.000 C 109.960 272.000,109.600 272.180,109.600 272.400 C 109.600 272.620,109.060 272.800,108.400 272.800 C 107.740 272.800,107.200 272.980,107.200 273.200 C 107.200 273.420,106.660 273.600,106.000 273.600 C 105.340 273.600,104.799 273.735,104.797 273.900 C 104.793 274.256,102.859 275.200,102.132 275.200 C 101.853 275.200,100.983 275.560,100.200 276.000 C 99.417 276.440,98.432 276.800,98.011 276.800 C 97.591 276.800,97.136 276.980,97.000 277.200 C 96.864 277.420,96.409 277.600,95.989 277.600 C 95.568 277.600,94.583 277.960,93.800 278.400 C 93.017 278.840,92.032 279.200,91.611 279.200 C 91.191 279.200,90.736 279.380,90.600 279.600 C 90.464 279.820,89.913 280.000,89.376 280.000 C 88.839 280.000,88.400 280.180,88.400 280.400 C 88.400 280.620,88.051 280.800,87.624 280.800 C 87.197 280.800,86.736 280.980,86.600 281.200 C 86.464 281.420,85.913 281.600,85.376 281.600 C 84.839 281.600,84.399 281.735,84.397 281.900 C 84.382 283.286,82.326 283.035,81.691 281.569 C 81.317 280.706,80.874 280.000,80.706 280.000 C 80.538 280.000,80.400 279.640,80.400 279.200 C 80.400 278.760,80.220 278.400,80.000 278.400 C 79.780 278.400,79.600 278.040,79.600 277.600 C 79.600 277.160,79.420 276.800,79.200 276.800 C 78.980 276.800,78.800 276.260,78.800 275.600 C 78.800 274.940,78.620 274.400,78.400 274.400 C 78.180 274.400,78.000 274.040,78.000 273.600 C 78.000 273.160,77.820 272.800,77.600 272.800 C 77.380 272.800,77.200 272.440,77.200 272.000 C 77.200 271.560,77.020 271.200,76.800 271.200 C 76.580 271.200,76.400 270.840,76.400 270.400 C 76.400 269.960,76.220 269.600,76.000 269.600 C 75.780 269.600,75.600 269.265,75.600 268.855 C 75.600 268.446,74.880 266.711,74.000 265.000 C 73.120 263.289,72.400 261.669,72.400 261.400 C 72.400 261.131,71.674 259.500,70.788 257.776 C 69.901 256.052,69.265 254.407,69.375 254.121 C 69.610 253.510,71.441 253.418,71.800 254.000 C 71.936 254.220,72.476 254.400,73.000 254.400 C 73.524 254.400,74.064 254.580,74.200 254.800 C 74.336 255.020,74.876 255.200,75.400 255.200 C 75.924 255.200,76.464 255.380,76.600 255.600 C 76.736 255.820,77.456 256.000,78.200 256.000 C 78.944 256.000,79.664 256.180,79.800 256.400 C 79.936 256.620,80.476 256.800,81.000 256.800 C 81.524 256.800,82.064 256.980,82.200 257.200 C 82.336 257.420,82.876 257.600,83.400 257.600 C 83.924 257.600,84.464 257.780,84.600 258.000 C 84.736 258.220,85.287 258.400,85.824 258.400 C 86.361 258.400,86.800 258.602,86.800 258.849 C 86.800 259.159,86.985 259.144,87.400 258.800 C 88.067 258.246,88.228 256.000,87.600 256.000 C 87.380 256.000,87.200 255.640,87.200 255.200 C 87.200 254.760,87.020 254.400,86.800 254.400 C 86.580 254.400,86.400 253.860,86.400 253.200 C 86.400 252.540,86.220 252.000,86.000 252.000 C 85.780 252.000,85.600 251.640,85.600 251.200 C 85.600 250.760,85.420 250.400,85.200 250.400 C 84.980 250.400,84.800 249.860,84.800 249.200 C 84.800 248.540,84.620 248.000,84.400 248.000 C 84.180 248.000,84.000 247.640,84.000 247.200 C 84.000 246.760,83.820 246.400,83.600 246.400 C 83.380 246.400,83.200 245.860,83.200 245.200 C 83.200 244.540,83.020 244.000,82.800 244.000 C 82.580 244.000,82.400 243.730,82.400 243.400 C 82.400 243.070,82.220 242.800,82.000 242.800 C 81.780 242.800,81.600 242.260,81.600 241.600 C 81.600 240.940,81.420 240.400,81.200 240.400 C 80.980 240.400,80.800 240.040,80.800 239.600 C 80.800 239.160,80.620 238.800,80.400 238.800 C 80.180 238.800,80.000 238.260,80.000 237.600 C 80.000 236.940,79.820 236.400,79.600 236.400 C 79.380 236.400,79.200 236.040,79.200 235.600 C 79.200 235.160,79.020 234.800,78.800 234.800 C 78.580 234.800,78.400 234.260,78.400 233.600 C 78.400 232.940,78.220 232.400,78.000 232.400 C 77.780 232.400,77.600 232.040,77.600 231.600 C 77.600 231.160,77.420 230.800,77.200 230.800 C 76.980 230.800,76.800 230.260,76.800 229.600 C 76.800 228.940,76.620 228.400,76.400 228.400 C 76.180 228.400,76.000 228.130,76.000 227.800 C 76.000 227.470,75.838 227.200,75.639 227.200 C 75.441 227.200,75.153 226.120,75.000 224.800 C 74.847 223.480,74.559 222.400,74.361 222.400 C 74.162 222.400,74.000 222.040,74.000 221.600 C 74.000 221.160,73.820 220.800,73.600 220.800 C 73.380 220.800,73.200 220.260,73.200 219.600 C 73.200 218.940,73.020 218.400,72.800 218.400 C 72.580 218.400,72.400 218.040,72.400 217.600 C 72.400 217.160,72.220 216.800,72.000 216.800 C 71.780 216.800,71.600 216.260,71.600 215.600 C 71.600 214.940,71.420 214.400,71.200 214.400 C 70.980 214.400,70.800 214.040,70.800 213.600 C 70.800 213.160,70.620 212.800,70.400 212.800 C 70.180 212.800,70.000 212.260,70.000 211.600 C 70.000 210.940,69.820 210.400,69.600 210.400 C 69.380 210.400,69.200 210.130,69.200 209.800 C 69.200 209.470,69.020 209.200,68.800 209.200 C 68.580 209.200,68.400 208.660,68.400 208.000 C 68.400 207.340,68.220 206.800,68.000 206.800 C 67.780 206.800,67.600 206.440,67.600 206.000 C 67.600 205.560,67.420 205.200,67.200 205.200 C 66.980 205.200,66.800 204.660,66.800 204.000 C 66.800 203.340,66.620 202.800,66.400 202.800 C 66.180 202.800,66.000 202.440,66.000 202.000 C 66.000 201.560,65.820 201.200,65.600 201.200 C 65.380 201.200,65.200 200.660,65.200 200.000 C 65.200 199.340,65.020 198.800,64.800 198.800 C 64.580 198.800,64.400 198.440,64.400 198.000 C 64.400 197.560,64.220 197.200,64.000 197.200 C 63.780 197.200,63.600 196.675,63.600 196.033 C 63.600 195.392,63.377 194.792,63.104 194.701 C 62.482 194.494,63.671 193.200,64.483 193.200 C 64.780 193.200,65.275 192.850,65.583 192.423 C 65.891 191.996,66.831 191.530,67.672 191.388 C 68.512 191.246,69.200 190.966,69.200 190.765 C 69.200 190.564,69.560 190.400,70.000 190.400 C 70.440 190.400,70.800 190.220,70.800 190.000 C 70.800 189.780,71.160 189.600,71.600 189.600 C 72.040 189.600,72.400 189.420,72.400 189.200 C 72.400 188.980,72.940 188.800,73.600 188.800 C 74.260 188.800,74.800 188.620,74.800 188.400 C 74.800 188.180,75.610 188.000,76.600 188.000 C 77.590 188.000,78.400 187.820,78.400 187.600 C 78.400 187.380,78.940 187.200,79.600 187.200 C 80.260 187.200,80.800 187.380,80.800 187.600 " stroke="none" fill="#040404" fill-rule="evenodd"></path><path id="path2" d="" stroke="none" fill="#c010080" fill-rule="evenodd"></path><path id="path3" d="M70.600 253.885 C 71.040 253.991,71.571 254.240,71.780 254.439 C 71.989 254.637,72.563 254.800,73.056 254.800 C 73.549 254.800,74.064 254.980,74.200 255.200 C 74.336 255.420,74.876 255.600,75.400 255.600 C 75.924 255.600,76.464 255.780,76.600 256.000 C 76.736 256.220,77.456 256.400,78.200 256.400 C 78.944 256.400,79.664 256.580,79.800 256.800 C 79.936 257.020,80.487 257.200,81.024 257.200 C 81.561 257.200,82.000 257.380,82.000 257.600 C 82.000 257.820,82.585 257.975,83.300 257.946 C 84.390 257.900,84.438 257.862,83.600 257.712 C 83.050 257.613,82.429 257.368,82.220 257.166 C 82.011 256.965,81.437 256.800,80.944 256.800 C 80.451 256.800,79.936 256.620,79.800 256.400 C 79.664 256.180,78.944 256.000,78.200 256.000 C 77.456 256.000,76.736 255.820,76.600 255.600 C 76.464 255.380,75.924 255.200,75.400 255.200 C 74.876 255.200,74.336 255.020,74.200 254.800 C 74.064 254.580,73.524 254.400,73.000 254.400 C 72.476 254.400,71.936 254.220,71.800 254.000 C 71.664 253.780,71.158 253.621,70.676 253.646 C 69.866 253.689,69.860 253.707,70.600 253.885 M69.201 254.245 C 69.200 254.489,69.920 256.089,70.800 257.800 C 71.680 259.511,72.400 261.121,72.400 261.378 C 72.400 261.635,73.029 263.096,73.799 264.623 C 74.568 266.150,75.198 267.193,75.199 266.941 C 75.199 266.688,74.660 265.455,74.000 264.200 C 73.340 262.945,72.800 261.704,72.800 261.442 C 72.800 261.179,71.990 259.352,71.001 257.382 C 70.012 255.412,69.202 254.000,69.201 254.245 M84.900 258.676 C 85.285 258.776,85.915 258.776,86.300 258.676 C 86.685 258.575,86.370 258.493,85.600 258.493 C 84.830 258.493,84.515 258.575,84.900 258.676 M75.693 268.400 C 75.693 269.170,75.775 269.485,75.876 269.100 C 75.976 268.715,75.976 268.085,75.876 267.700 C 75.775 267.315,75.693 267.630,75.693 268.400 M76.402 270.300 C 76.401 270.795,76.580 271.200,76.800 271.200 C 77.020 271.200,77.221 271.605,77.246 272.100 C 77.275 272.650,77.358 272.757,77.461 272.375 C 77.554 272.031,77.354 271.221,77.017 270.575 C 76.463 269.511,76.405 269.485,76.402 270.300 M112.600 270.668 C 112.160 270.764,111.080 271.180,110.200 271.591 C 109.320 272.003,108.330 272.429,108.000 272.538 C 107.670 272.647,107.895 272.751,108.500 272.768 C 109.105 272.786,109.600 272.620,109.600 272.400 C 109.600 272.180,109.960 272.000,110.400 272.000 C 110.840 272.000,111.200 271.820,111.200 271.600 C 111.200 271.380,111.639 271.200,112.176 271.200 C 112.713 271.200,113.264 271.020,113.400 270.800 C 113.536 270.580,113.592 270.421,113.524 270.446 C 113.456 270.472,113.040 270.572,112.600 270.668 M78.002 273.500 C 78.001 273.995,78.180 274.400,78.400 274.400 C 78.620 274.400,78.800 274.940,78.800 275.600 C 78.800 276.260,78.980 276.800,79.200 276.800 C 79.420 276.800,79.600 277.160,79.600 277.600 C 79.600 278.040,79.780 278.400,80.000 278.400 C 80.220 278.400,80.400 278.659,80.400 278.976 C 80.400 279.293,80.578 279.663,80.795 279.797 C 81.276 280.094,80.932 279.101,79.927 277.288 C 79.527 276.566,79.200 275.732,79.200 275.434 C 79.200 275.135,78.931 274.376,78.602 273.746 C 78.055 272.696,78.005 272.675,78.002 273.500 M105.800 273.200 L 104.600 273.505 105.900 273.553 C 106.615 273.579,107.200 273.420,107.200 273.200 C 107.200 272.980,107.155 272.821,107.100 272.847 C 107.045 272.873,106.460 273.032,105.800 273.200 M101.300 275.076 C 101.685 275.176,102.315 275.176,102.700 275.076 C 103.085 274.975,102.770 274.893,102.000 274.893 C 101.230 274.893,100.915 274.975,101.300 275.076 M99.400 276.000 C 99.264 276.220,98.724 276.400,98.200 276.400 C 97.676 276.400,97.136 276.580,97.000 276.800 C 96.864 277.020,96.409 277.200,95.989 277.200 C 95.568 277.200,94.583 277.560,93.800 278.000 C 93.017 278.440,92.032 278.800,91.611 278.800 C 91.191 278.800,90.736 278.980,90.600 279.200 C 90.464 279.420,90.009 279.600,89.589 279.600 C 89.168 279.600,88.183 279.960,87.400 280.400 C 86.617 280.840,85.732 281.200,85.434 281.200 C 85.135 281.200,84.376 281.469,83.746 281.798 C 83.021 282.176,82.848 282.396,83.276 282.398 C 83.648 282.399,84.064 282.220,84.200 282.000 C 84.336 281.780,84.791 281.600,85.211 281.600 C 85.632 281.600,86.617 281.240,87.400 280.800 C 88.183 280.360,89.168 280.000,89.589 280.000 C 90.009 280.000,90.464 279.820,90.600 279.600 C 90.736 279.380,91.191 279.200,91.611 279.200 C 92.032 279.200,93.017 278.840,93.800 278.400 C 94.583 277.960,95.568 277.600,95.989 277.600 C 96.409 277.600,96.864 277.420,97.000 277.200 C 97.136 276.980,97.576 276.800,97.978 276.800 C 98.380 276.800,99.224 276.531,99.854 276.202 C 100.579 275.824,100.752 275.604,100.324 275.602 C 99.952 275.601,99.536 275.780,99.400 276.000 " stroke="none" fill="#408480" fill-rule="evenodd"></path><path id="path4" d="" stroke="none" fill="#400484" fill-rule="evenodd"></path></g></svg>