<?xml version="1.0" standalone="no"?>
<!DOCTYPE svg PUBLIC "-//W3C//DTD SVG 20010904//EN"
 "http://www.w3.org/TR/2001/REC-SVG-20010904/DTD/svg10.dtd">
<svg version="1.0" xmlns="http://www.w3.org/2000/svg"
 width="480.000000pt" height="480.000000pt" viewBox="0 0 480.000000 480.000000"
 preserveAspectRatio="xMidYMid meet">
<metadata>
Created by potrace 1.14, written by Peter Selinger 2001-2017
</metadata>
<g transform="translate(0.000000,480.000000) scale(0.100000,-0.100000)"
fill="#000000" stroke="none">
<path d="M3242 4479 c-213 -44 -386 -140 -543 -299 -130 -132 -225 -303 -271
-489 -29 -116 -31 -348 -4 -466 91 -394 385 -694 782 -796 73 -19 116 -23 239
-23 187 -1 289 20 448 93 189 85 378 263 481 451 131 240 161 567 75 824 -100
297 -328 541 -608 651 -182 71 -414 92 -599 54z m371 -313 c92 -21 174 -56
244 -104 309 -209 415 -605 252 -936 -145 -294 -467 -458 -788 -399 -108 20
-244 76 -289 120 -7 7 -16 13 -20 13 -11 0 -104 91 -144 140 -86 106 -147 276
-152 425 -17 480 431 849 897 741z"/>
<path d="M535 4335 c-32 -14 -68 -56 -80 -94 -4 -12 -4 -44 0 -69 7 -45 18
-58 344 -384 l337 -339 -327 -327 c-179 -180 -334 -341 -343 -359 -35 -68 -10
-148 57 -188 103 -60 122 -47 505 337 l322 324 338 -337 c312 -312 340 -337
379 -344 60 -10 96 1 136 40 42 41 57 105 36 158 -7 19 -143 163 -338 359
-179 180 -326 332 -326 338 0 6 147 158 327 338 180 180 331 340 337 355 24
62 -1 146 -53 181 -41 26 -107 31 -147 11 -19 -10 -180 -163 -358 -341 -178
-178 -327 -324 -331 -324 -3 0 -152 146 -331 325 -178 179 -338 332 -356 340
-37 18 -87 18 -128 0z"/>
<path d="M1165 2385 c-307 -58 -578 -252 -732 -525 -92 -162 -132 -329 -128
-530 2 -74 6 -146 9 -160 3 -14 8 -38 12 -55 8 -44 43 -141 74 -210 69 -154
222 -331 370 -430 260 -172 602 -220 899 -124 375 120 646 433 717 827 29 163
5 393 -58 552 -129 327 -404 564 -748 645 -96 22 -320 28 -415 10z m310 -310
c185 -27 383 -159 492 -327 291 -449 13 -1054 -517 -1127 -331 -45 -657 144
-781 455 -134 334 -6 718 300 901 81 49 187 89 262 98 29 4 55 8 57 9 5 5 136
-1 187 -9z"/>
<path d="M2652 2243 c-12 -2 -38 -20 -57 -40 -43 -45 -55 -107 -31 -161 11
-23 141 -161 341 -361 179 -179 325 -328 325 -332 0 -3 -146 -153 -325 -331
-380 -380 -389 -394 -330 -495 42 -70 120 -92 193 -53 20 10 181 163 356 340
176 176 322 320 326 320 3 0 156 -150 340 -334 262 -261 342 -335 368 -341
116 -25 212 71 187 187 -6 26 -80 106 -339 366 -182 183 -331 337 -331 342 0
6 149 160 332 343 284 286 332 338 338 370 21 112 -61 199 -172 182 -46 -7
-56 -16 -385 -344 l-337 -337 -323 323 c-178 178 -340 333 -360 344 -36 18
-66 21 -116 12z"/>
</g>
</svg>
