<?xml version="1.0" standalone="no"?>
<!DOCTYPE svg PUBLIC "-//W3C//DTD SVG 20010904//EN"
 "http://www.w3.org/TR/2001/REC-SVG-20010904/DTD/svg10.dtd">
<svg version="1.0" xmlns="http://www.w3.org/2000/svg"
 width="1444.000000pt" height="1444.000000pt" viewBox="0 0 1444.000000 1444.000000"
 preserveAspectRatio="xMidYMid meet">
<metadata>
Created by potrace 1.14, written by Peter Selinger 2001-2017
</metadata>
<g transform="translate(0.000000,1444.000000) scale(0.100000,-0.100000)"
fill="#000000" stroke="none">
<path d="M7430 13391 c0 -5 -12 -11 -27 -14 -104 -19 -225 -47 -263 -61 -25
-8 -67 -16 -93 -16 -26 0 -58 -7 -72 -16 -30 -19 -161 -43 -237 -42 -56 1 -59
-1 -100 -45 -32 -34 -54 -47 -83 -52 -45 -7 -135 -35 -151 -47 -6 -4 -39 -14
-75 -22 -35 -8 -93 -22 -128 -30 -35 -9 -87 -16 -115 -15 -28 1 -60 -3 -71 -9
-21 -11 -241 -36 -253 -28 -10 6 -189 -19 -292 -40 -47 -9 -125 -31 -175 -49
-123 -42 -297 -149 -354 -216 -16 -19 -48 -54 -71 -79 -22 -24 -66 -84 -96
-132 -43 -67 -68 -96 -112 -126 -31 -21 -62 -49 -68 -61 -6 -12 -20 -32 -31
-44 -24 -27 -43 -57 -84 -134 -70 -132 -87 -173 -100 -253 -37 -227 -99 -342
-208 -386 -23 -9 -40 -19 -37 -22 3 -2 24 3 47 12 23 9 44 15 46 12 8 -7 -26
-63 -42 -69 -8 -4 -15 -12 -15 -19 0 -8 -23 -31 -50 -53 -28 -22 -53 -50 -56
-62 -3 -12 -12 -27 -20 -34 -8 -6 -14 -16 -14 -22 0 -7 4 -7 12 1 16 16 43 15
58 -3 10 -12 9 -16 -4 -21 -9 -3 -16 -12 -16 -20 0 -13 -13 -18 -33 -15 -4 1
-15 -6 -24 -15 -15 -14 -13 -15 23 -9 37 6 38 5 20 -9 -11 -9 -16 -16 -11 -16
5 0 4 -5 -3 -12 -7 -7 -12 -16 -12 -22 0 -5 6 -2 13 8 8 11 19 15 31 10 15 -6
17 -14 12 -47 -4 -22 -14 -46 -24 -53 -16 -12 -15 -13 6 -14 12 0 22 -1 22 -3
0 -1 -4 -17 -9 -35 -6 -18 -6 -30 -1 -27 5 3 7 -9 5 -26 -2 -18 -10 -36 -17
-40 -7 -5 -10 -9 -6 -9 4 0 1 -21 -7 -47 -18 -58 -18 -56 -2 -47 6 4 4 -2 -7
-14 l-18 -21 37 10 c35 10 67 0 63 -19 -1 -4 2 -22 6 -41 6 -26 10 -30 18 -20
7 10 8 5 3 -16 -4 -16 -12 -33 -18 -37 -8 -5 -4 -8 9 -8 42 0 49 -24 49 -165
0 -82 4 -137 11 -146 16 -20 32 -98 44 -219 13 -132 13 -148 4 -296 -5 -83 -4
-123 4 -128 6 -3 13 3 17 14 12 39 22 19 23 -47 1 -37 6 -79 11 -93 6 -14 24
-90 40 -170 17 -80 40 -183 51 -230 23 -89 34 -149 51 -265 6 -38 15 -277 19
-530 5 -253 13 -491 18 -530 18 -128 67 -323 110 -445 11 -30 36 -113 57 -185
20 -71 44 -150 52 -175 8 -25 24 -79 34 -120 43 -162 136 -405 232 -600 12
-25 24 -47 27 -50 3 -3 26 -40 50 -82 24 -43 47 -78 52 -78 4 0 8 -4 8 -10 0
-9 136 -219 149 -230 3 -3 11 -13 16 -22 18 -31 250 -373 256 -378 3 -3 19
-25 34 -50 15 -25 40 -59 54 -76 14 -17 35 -44 46 -60 82 -118 251 -279 382
-365 81 -53 83 -54 103 -118 21 -67 26 -131 11 -131 -14 0 -125 -112 -180
-182 -32 -41 -60 -91 -73 -130 -12 -35 -29 -74 -39 -87 -10 -13 -16 -28 -13
-33 5 -8 -30 -62 -66 -98 -8 -9 -26 -32 -40 -52 -14 -20 -59 -73 -100 -118
-90 -100 -96 -107 -163 -206 -107 -157 -208 -300 -241 -339 -40 -47 -209 -179
-252 -195 -20 -8 -80 -10 -194 -5 -188 8 -272 -2 -340 -40 -123 -68 -296 -147
-367 -165 -468 -125 -758 -341 -909 -678 -86 -190 -88 -193 -169 -248 -135
-90 -288 -296 -310 -419 -11 -58 -29 -89 -117 -198 -43 -54 -99 -134 -124
-177 -26 -44 -81 -119 -124 -169 -93 -107 -126 -173 -146 -289 -11 -61 -22
-94 -38 -112 -32 -36 -136 -193 -180 -271 -20 -37 -56 -120 -80 -185 -25 -66
-51 -136 -60 -156 -9 -21 -16 -40 -16 -43 0 -3 2837 -5 6305 -5 l6305 0 0
1159 0 1158 -40 72 c-114 209 -259 325 -425 341 -39 4 -79 11 -90 17 -11 6
-74 25 -140 43 -73 20 -167 55 -240 90 -66 32 -185 79 -265 105 -188 61 -264
88 -378 136 -51 21 -95 39 -98 39 -3 0 -29 11 -57 24 -29 12 -81 36 -117 52
-36 15 -79 36 -97 46 -18 9 -96 49 -175 88 -79 39 -150 75 -159 80 -8 4 -71
36 -140 71 -186 94 -460 247 -584 327 -161 103 -500 302 -516 302 -4 0 -10 19
-14 43 -11 66 -58 180 -109 260 -47 76 -124 157 -150 157 -29 0 -112 50 -152
92 -77 81 -210 271 -234 333 -6 16 -17 43 -25 60 -7 16 -24 55 -38 85 -13 30
-46 82 -73 114 -137 169 -272 239 -456 240 -115 1 -101 -21 -119 196 -13 170
-6 509 16 738 29 301 89 644 140 797 61 186 77 241 88 311 8 53 15 73 24 69 8
-2 28 2 46 9 17 8 46 19 62 26 17 6 43 22 60 35 l29 24 -69 -26 c-63 -22 -80
-24 -159 -19 -110 7 -157 29 -231 107 -30 32 -55 54 -56 51 -1 -4 0 -24 1 -46
1 -22 -2 -36 -8 -32 -10 6 -7 92 6 236 5 57 4 122 -5 195 -9 72 -13 238 -14
475 0 454 0 463 18 449 10 -9 13 -6 12 17 -1 16 -4 43 -8 59 -7 30 13 101 44
157 8 14 15 33 15 42 0 9 7 16 15 16 8 0 15 -4 15 -10 0 -5 5 -10 10 -10 6 0
10 9 10 20 0 11 7 23 15 26 8 4 15 14 15 24 0 10 7 25 15 34 8 8 15 19 15 25
0 6 6 11 14 11 8 0 18 10 22 23 8 27 60 89 177 210 48 50 87 94 87 99 0 4 35
32 79 63 93 65 109 81 93 97 -15 15 -4 340 12 350 8 5 7 8 -1 8 -23 0 -13 20
10 20 21 1 22 1 3 15 -13 10 -15 15 -6 15 9 0 7 5 -6 15 -15 11 -16 15 -4 16
8 1 19 1 24 0 5 -1 5 6 1 16 -4 10 -8 45 -9 78 -1 33 -5 63 -10 66 -4 4 0 19
10 35 11 15 14 25 9 22 -7 -4 -16 16 -24 49 -10 44 -10 57 -1 63 7 4 9 13 5
19 -9 16 3 63 15 56 6 -3 10 -2 10 4 0 5 -5 13 -10 16 -6 4 -8 11 -5 16 4 5 2
9 -3 9 -6 0 -9 30 -8 68 1 65 2 67 26 64 23 -2 24 -1 8 11 -23 18 -25 72 -3
63 20 -7 19 4 -2 21 -16 13 -15 14 16 9 l34 -6 -26 24 c-33 30 -33 33 -4 59
16 15 17 18 5 14 -23 -8 -25 31 -3 40 14 5 14 7 0 23 -21 24 -27 70 -9 70 10
0 13 11 10 39 -1 21 -6 43 -10 50 -4 6 -4 11 0 11 4 0 -1 7 -12 15 -10 8 -15
15 -10 15 5 0 3 7 -4 15 -10 12 -10 15 1 15 10 1 9 3 -3 10 -10 6 -15 20 -13
38 1 15 -2 30 -9 34 -7 5 -5 8 6 8 16 0 15 3 -4 25 -30 34 -50 83 -37 91 5 3
-4 22 -21 42 -17 20 -36 44 -43 52 -6 8 -10 22 -9 32 2 11 -10 29 -27 44 -16
13 -33 34 -36 45 -4 12 -21 34 -39 50 l-31 30 39 -7 c28 -5 37 -4 32 5 -4 6
-14 11 -22 11 -8 0 -14 3 -14 8 0 15 -145 152 -161 152 -16 0 -10 -23 13 -47
31 -33 10 -28 -32 7 -24 20 -30 30 -19 30 14 0 29 19 29 35 0 19 -78 75 -123
89 -10 3 -15 10 -12 16 4 6 11 7 17 4 6 -4 32 -9 57 -11 66 -6 41 14 -41 31
-36 7 -77 22 -92 31 -25 17 -26 19 -11 41 21 33 -1 31 -27 -1 -21 -27 -48 -31
-97 -14 -36 13 -45 45 -8 34 12 -4 26 -11 31 -16 6 -5 16 -9 24 -9 12 0 12 3
2 15 -7 8 -21 15 -32 15 -12 0 -18 5 -15 13 3 9 -19 12 -89 13 -52 0 -97 4
-101 7 -3 4 1 15 11 26 16 17 16 19 -6 24 l-22 6 24 27 25 26 -32 -6 c-17 -4
-40 -3 -50 2 -10 5 -31 14 -47 18 -34 10 -37 27 -6 32 24 4 17 22 -9 22 -10 0
-24 7 -31 15 -8 9 -21 13 -32 9 -21 -6 -78 13 -78 27 0 4 6 11 13 16 7 5 -3
10 -28 13 -35 4 -44 11 -70 52 -16 26 -34 47 -38 47 -5 1 -5 -3 -2 -9 4 -6 -2
-6 -17 0 -13 6 -30 13 -39 16 -9 3 -23 18 -30 32 -8 15 -26 41 -42 57 -15 17
-32 47 -38 68 -5 20 -12 37 -16 37 -3 0 -3 -9 0 -20 9 -34 -11 -33 -58 5 -24
20 -49 34 -55 30 -5 -3 -10 -2 -10 3 0 13 -205 112 -233 112 -9 0 -19 5 -22
10 -3 6 -13 10 -22 10 -20 0 -113 59 -113 72 0 5 5 6 10 3 6 -3 10 -1 10 4 0
6 -4 11 -9 11 -5 0 -17 8 -26 17 -10 9 -31 18 -48 20 -17 2 -39 10 -48 19 -22
20 -46 9 -28 -12 18 -22 -8 -18 -33 6 -11 10 -39 21 -62 24 -131 16 -224 22
-242 15 -14 -5 -29 -3 -40 6 -11 7 -23 10 -29 5 -13 -11 -115 -15 -137 -5 -9
4 -21 4 -27 1 -5 -4 -12 -2 -16 4 -8 12 -25 13 -25 1z m489 -77 c10 -9 -35 -3
-49 6 -11 8 -7 9 15 4 17 -4 32 -8 34 -10z m81 -31 c13 -12 13 -13 -5 -7 -11
4 -29 14 -40 22 -19 13 -19 14 5 7 14 -4 32 -14 40 -22z m445 -163 c3 -5 2
-10 -4 -10 -5 0 -13 5 -16 10 -3 6 -2 10 4 10 5 0 13 -4 16 -10z m68 -40 c18
-16 28 -30 22 -30 -16 0 -75 39 -75 50 0 18 21 11 53 -20z m123 -75 c16 -14
32 -25 37 -25 4 0 7 -4 7 -10 0 -13 -31 0 -71 32 -22 18 -28 28 -18 28 9 0 29
-11 45 -25z m-1548 -520 c17 -3 32 -3 32 2 0 4 30 8 68 9 37 0 59 -1 50 -3
-10 -3 -18 -11 -18 -18 0 -9 6 -12 16 -8 9 3 19 1 23 -6 10 -16 39 -4 46 20 4
10 10 19 15 19 17 0 40 -12 35 -20 -7 -11 48 1 70 16 26 18 31 18 54 -8 17
-18 21 -19 26 -6 9 22 45 11 45 -13 0 -12 7 -19 20 -19 11 0 19 -3 19 -7 -3
-19 3 -47 8 -35 8 21 30 13 37 -12 4 -15 14 -26 29 -28 16 -2 30 -19 50 -62
19 -39 32 -55 37 -46 4 7 6 22 4 34 -3 12 -2 15 2 6 4 -8 10 -17 13 -20 4 -3
18 -21 31 -40 13 -19 32 -43 43 -52 10 -9 32 -43 47 -75 16 -32 30 -50 30 -40
0 9 4 17 8 17 10 0 52 -56 52 -69 0 -5 4 -11 10 -13 5 -1 11 -15 12 -30 1 -15
6 -24 10 -22 9 6 37 -44 60 -106 9 -25 17 -39 17 -31 1 20 30 -6 42 -37 6 -16
14 -22 25 -18 11 4 15 2 11 -7 -3 -8 -1 -20 4 -28 8 -12 10 -12 19 1 8 12 19
5 65 -40 49 -48 85 -96 85 -115 0 -3 -8 -5 -17 -6 -15 0 -15 -2 2 -8 11 -5 23
-7 26 -5 4 2 24 -16 47 -41 22 -24 42 -42 44 -39 3 2 11 -2 18 -11 10 -12 10
-15 0 -15 -9 0 -10 -3 -1 -13 6 -8 8 -17 4 -20 -3 -4 2 -9 11 -13 9 -3 16 -12
16 -19 0 -8 5 -17 12 -21 7 -5 9 0 6 14 -4 12 0 23 7 26 17 6 25 -3 25 -29 0
-11 5 -26 12 -33 8 -8 8 -15 -2 -27 -11 -13 -8 -19 14 -41 14 -15 23 -30 20
-35 -10 -16 -24 -9 -24 11 0 11 -7 20 -15 20 -17 0 -20 -16 -5 -25 5 -3 17
-21 26 -40 9 -19 20 -35 24 -35 5 0 6 -8 4 -17 -5 -19 42 -80 57 -75 5 1 9 -5
9 -13 0 -8 5 -15 11 -15 5 0 17 -15 25 -32 8 -18 32 -65 53 -103 35 -66 41
-95 21 -95 -4 0 -18 15 -29 33 -21 30 -22 30 -19 7 2 -14 25 -49 53 -78 27
-29 53 -59 58 -67 11 -20 -7 -19 -23 0 -7 8 -17 15 -23 15 -6 0 -21 10 -34 22
-32 30 -37 19 -13 -33 11 -24 20 -38 20 -31 0 22 24 13 59 -23 19 -19 40 -35
48 -35 9 0 12 -8 8 -27 -4 -20 -3 -23 3 -9 7 17 10 16 27 -10 10 -16 18 -41
18 -56 0 -15 4 -25 9 -22 4 3 8 -11 8 -30 0 -34 14 -49 22 -24 5 15 25 3 39
-24 8 -15 8 -19 0 -14 -16 11 -25 -22 -11 -39 7 -8 9 -15 4 -15 -5 0 -3 -4 3
-8 12 -7 17 -74 12 -158 -1 -20 7 -44 22 -65 30 -42 89 -160 89 -178 0 -8 -6
-19 -14 -25 -10 -8 -15 -36 -17 -91 -2 -106 -1 -115 15 -115 16 0 31 -73 16
-78 -6 -2 -10 -8 -10 -13 0 -6 5 -7 11 -3 9 5 10 -9 5 -52 -4 -41 -2 -74 9
-109 8 -28 15 -67 15 -87 0 -20 4 -48 10 -62 15 -41 23 -156 11 -156 -7 0 -9
-16 -7 -42 3 -24 5 -55 5 -70 1 -19 6 -28 17 -28 9 0 14 -6 12 -12 -3 -7 1
-32 8 -55 8 -26 9 -45 3 -48 -17 -11 -10 -53 11 -60 17 -5 20 -15 20 -68 0
-49 -23 -288 -32 -324 -1 -4 2 -25 6 -45 7 -33 5 -41 -15 -58 -28 -23 -13 -27
19 -4 20 14 22 14 22 -2 0 -9 -7 -22 -15 -28 -10 -7 -17 -32 -19 -69 -2 -35
-10 -65 -20 -76 -9 -10 -13 -21 -9 -24 12 -12 23 -7 23 11 0 14 2 15 9 2 6 -8
7 -19 3 -24 -3 -6 -6 -29 -7 -51 0 -38 -2 -40 -35 -47 l-35 -7 36 2 36 3 0
-54 c-1 -46 3 -57 24 -73 20 -16 22 -20 9 -29 -8 -6 -23 -8 -33 -6 -14 4 -17
1 -11 -12 4 -9 7 -32 6 -49 -1 -18 1 -33 6 -33 4 0 7 -33 7 -73 -1 -52 -6 -79
-19 -99 -10 -16 -15 -35 -11 -47 4 -13 0 -23 -12 -29 -15 -9 -15 -12 -3 -27 8
-10 13 -35 11 -61 -1 -30 2 -44 11 -44 8 -1 7 -5 -5 -14 -10 -8 -22 -29 -28
-47 -8 -30 -6 -36 13 -53 l23 -18 -30 -24 c-17 -13 -34 -24 -39 -24 -6 0 -2
-6 7 -12 10 -8 18 -28 18 -48 2 -59 1 -64 -16 -50 -17 14 -35 5 -35 -16 0 -11
7 -14 23 -10 l22 6 -22 -11 c-26 -14 -27 -18 -13 -53 5 -15 6 -26 1 -26 -5 0
-13 -14 -16 -32 -6 -23 -3 -35 9 -43 24 -18 19 -34 -11 -41 -33 -8 -73 -31
-73 -42 0 -5 14 -7 30 -4 17 2 30 1 30 -4 0 -11 -70 -74 -83 -74 -5 0 -7 -12
-4 -29 6 -26 -7 -51 -25 -51 -4 0 -8 8 -9 18 0 13 -2 14 -6 2 -3 -8 -9 -17
-12 -20 -13 -10 -32 -52 -27 -57 8 -9 36 17 36 33 0 8 5 14 10 14 6 0 10 -12
10 -26 0 -16 -4 -23 -12 -18 -8 5 -9 0 -5 -15 3 -13 1 -21 -6 -20 -23 4 -67
-24 -67 -43 0 -10 -5 -18 -10 -18 -7 0 -7 -6 -1 -18 7 -13 4 -24 -10 -42 -10
-14 -19 -33 -19 -42 0 -10 -7 -18 -15 -18 -18 0 -20 16 -2 23 9 4 8 8 -3 16
-12 8 -17 5 -23 -17 -14 -46 -31 -76 -57 -102 -14 -14 -30 -34 -37 -45 -11
-19 -12 -19 -12 5 -1 14 6 38 14 54 18 33 19 39 5 31 -16 -10 -61 -105 -55
-115 3 -5 1 -11 -5 -15 -5 -3 -11 4 -11 17 l-2 23 -4 -22 c-2 -13 -11 -23 -19
-23 -8 0 -14 -9 -14 -20 0 -11 -2 -20 -4 -20 -2 0 -13 -3 -23 -6 -10 -3 -14
-2 -7 3 25 20 63 133 44 133 -12 0 -30 -41 -23 -53 2 -4 -3 -10 -11 -13 -9 -3
-16 -15 -16 -25 0 -10 -5 -19 -11 -19 -12 0 -24 -12 -57 -54 -21 -28 -22 -28
-18 -5 3 13 5 30 5 37 1 6 10 12 21 12 24 0 26 13 4 31 -13 10 -17 10 -25 -2
-16 -22 -43 -83 -41 -91 1 -5 -5 -9 -13 -9 -41 -4 -53 -14 -48 -41 2 -13 -3
-32 -11 -43 -12 -17 -18 -18 -34 -8 -25 15 -48 -3 -31 -24 9 -10 4 -13 -24
-13 -20 0 -39 -4 -42 -10 -3 -5 3 -10 14 -10 12 0 21 -6 21 -14 0 -14 -27 -31
-43 -27 -5 1 -24 -8 -43 -20 -34 -20 -46 -49 -21 -49 6 -1 0 -7 -14 -15 -15
-8 -29 -21 -33 -30 -8 -21 -36 -19 -36 3 0 14 -2 15 -10 2 -6 -9 -6 -18 0 -24
6 -6 10 -18 10 -28 0 -12 -5 -16 -17 -11 -26 10 -43 29 -43 47 0 9 -4 16 -9
16 -13 0 -20 -23 -17 -54 3 -22 0 -25 -15 -21 -14 5 -19 1 -19 -12 0 -21 -42
-73 -59 -73 -7 0 -11 -10 -9 -22 4 -31 -16 -33 -36 -3 -13 19 -13 25 -3 25 7
0 22 7 33 15 16 13 17 16 4 26 -12 8 -10 10 12 6 20 -3 25 0 21 10 -3 9 -14
13 -25 10 -12 -3 -23 2 -31 14 -6 10 -15 19 -19 19 -14 0 -9 -38 7 -53 13 -13
13 -16 0 -27 -12 -10 -15 -10 -16 1 -3 28 -4 34 -17 57 -7 12 -19 22 -28 22
-25 0 -28 -30 -5 -60 23 -31 27 -50 11 -50 -5 0 -12 11 -16 25 -5 20 -12 25
-38 25 -26 -1 -28 -2 -13 -11 20 -11 22 -30 6 -46 -8 -8 -18 -4 -36 15 l-24
27 3 -35 c1 -19 7 -38 13 -42 6 -5 6 -8 -1 -8 -7 0 -22 11 -35 25 -26 26 -50
35 -29 10 10 -12 10 -15 -1 -15 -11 0 -11 -2 0 -9 12 -8 9 -11 -12 -16 -15 -4
-25 -11 -22 -15 3 -5 0 -12 -6 -16 -6 -4 -16 0 -21 9 -5 9 -15 14 -23 11 -13
-5 -13 -9 0 -27 25 -35 18 -54 -25 -71 -50 -20 -51 -20 -43 0 4 12 1 15 -13
12 -29 -5 -23 -41 9 -56 37 -18 30 -24 -14 -12 -47 14 -89 12 -89 -2 0 -9 -4
-8 -11 2 -9 12 -10 12 -5 -4 4 -11 1 -23 -6 -28 -10 -8 -10 -11 0 -15 17 -7
15 -23 -3 -23 -8 0 -15 5 -15 11 0 5 -5 7 -10 4 -6 -4 -17 -2 -25 5 -11 9 -13
6 -9 -19 3 -18 1 -31 -5 -31 -6 0 -11 -7 -11 -16 0 -8 -3 -13 -7 -11 -5 3 -25
8 -46 11 -35 6 -37 5 -23 -10 24 -24 37 -52 27 -58 -5 -3 -11 3 -14 14 -5 20
-27 28 -27 10 0 -5 -10 -10 -22 -10 -21 -1 -21 -2 -5 -11 13 -8 22 -7 33 1 8
8 14 8 14 2 0 -6 -13 -16 -30 -24 -16 -7 -30 -16 -30 -20 0 -5 -7 -8 -15 -8
-8 0 -15 -9 -15 -19 0 -28 -28 -34 -41 -10 -8 16 -14 18 -22 10 -13 -13 -57
-15 -57 -2 0 5 12 12 28 14 22 3 21 4 -10 6 -20 0 -38 5 -40 10 -4 11 -129 -6
-143 -20 -7 -8 3 -9 35 -4 42 6 43 5 20 -8 -17 -9 -35 -11 -54 -5 -23 6 -27 5
-18 -4 16 -16 15 -36 -2 -54 -19 -18 -46 -18 -46 1 0 8 5 15 10 15 6 0 10 5
10 11 0 7 -8 6 -22 -3 -13 -8 -41 -15 -62 -17 -22 -1 -43 -4 -48 -7 -5 -3 -6
6 -2 20 6 26 -10 38 -19 14 -3 -10 -12 -10 -43 1 -21 7 -46 19 -54 26 -12 9
-18 9 -30 -5 -25 -28 -21 -37 16 -34 19 1 32 -1 29 -6 -8 -13 -95 -22 -108
-11 -8 6 -18 6 -27 0 -13 -7 -13 -10 -1 -18 9 -6 10 -11 2 -15 -6 -4 -11 -2
-11 3 0 6 -6 11 -14 11 -7 0 -19 7 -26 15 -7 8 -20 15 -30 15 -10 0 -21 7 -24
16 -4 10 -14 14 -26 11 -10 -3 -24 1 -31 9 -6 8 -18 14 -25 14 -8 0 -23 6 -35
13 -17 10 -22 9 -30 -6 -7 -12 -17 -16 -30 -12 -15 5 -19 2 -19 -14 0 -12 -5
-21 -11 -21 -5 0 -8 -4 -4 -9 3 -5 1 -12 -5 -16 -5 -3 -12 5 -16 19 -3 13 -14
32 -25 42 -15 14 -21 14 -34 4 -12 -10 -15 -10 -15 4 0 10 7 24 15 33 8 8 12
19 9 25 -5 7 -12 4 -21 -8 -11 -15 -17 -16 -31 -8 -9 6 -15 14 -14 19 8 15
-52 65 -70 59 -13 -4 -18 0 -18 15 0 16 -6 21 -29 21 -40 0 -60 25 -32 40 28
14 27 30 -1 22 -19 -5 -21 -2 -15 26 6 29 -7 46 -15 21 -2 -5 -11 -7 -20 -4
-9 4 -14 13 -11 21 3 8 0 14 -6 14 -6 0 -11 -4 -11 -10 0 -5 -4 -10 -9 -10
-13 0 -20 92 -8 108 17 22 -1 25 -24 3 -23 -21 -42 -20 -33 3 3 8 1 17 -5 21
-21 13 -11 25 17 19 26 -6 26 -6 7 9 -11 9 -26 17 -32 17 -8 0 -13 13 -13 31
0 23 -9 41 -35 65 -47 44 -60 80 -41 109 14 21 13 23 -6 28 -16 5 -20 12 -16
36 4 24 -1 34 -18 46 -12 8 -26 24 -29 36 -11 35 -47 69 -73 69 -19 0 -23 4
-19 20 4 17 0 20 -25 20 -26 0 -29 -2 -18 -15 10 -12 9 -15 -8 -15 -11 0 -25
7 -32 15 -10 12 -10 15 4 15 20 0 21 33 1 50 -13 10 -15 9 -15 -12 0 -14 -3
-27 -6 -31 -8 -8 -54 34 -54 50 0 8 -16 29 -35 47 -19 19 -35 38 -35 45 0 6
-4 11 -8 11 -5 0 -17 19 -27 43 -17 41 -68 154 -86 189 -5 10 -9 24 -9 32 0 8
-6 27 -14 43 -8 15 -27 55 -43 88 -15 33 -30 62 -33 65 -3 3 -12 25 -19 50 -7
25 -22 62 -32 82 -11 21 -19 48 -19 62 0 14 -4 27 -9 30 -4 3 -16 33 -25 66
-9 33 -23 60 -30 60 -20 0 -61 61 -46 70 9 5 9 9 1 14 -6 4 -11 2 -11 -3 0 -6
-5 -11 -10 -11 -6 0 -10 6 -9 13 4 31 -3 49 -31 81 -17 18 -37 51 -46 72 -12
28 -18 34 -25 23 -7 -12 -9 -12 -8 1 0 8 4 24 8 35 6 15 1 27 -20 47 -22 23
-27 34 -22 61 3 19 -2 49 -11 71 -9 21 -13 48 -10 60 3 12 -2 35 -10 51 -9 17
-16 23 -16 15 -1 -11 -3 -10 -11 4 -7 11 -8 21 -2 25 6 3 13 29 16 56 3 28 3
44 0 38 -10 -27 -18 -11 -15 31 3 37 7 43 23 39 20 -6 27 11 9 22 -5 3 -10 17
-10 31 0 13 -6 24 -12 24 -8 1 -6 6 5 14 22 17 22 25 -2 50 -17 18 -18 28 -12
59 5 20 5 37 1 37 -4 0 -10 35 -13 78 -4 57 -1 83 9 99 8 13 12 33 9 46 -4 15
-1 28 9 36 9 8 16 21 16 30 0 12 -2 13 -9 3 -6 -11 -10 -11 -18 0 -25 33 -25
39 1 32 21 -5 26 -2 32 22 5 18 3 29 -4 32 -25 8 -11 20 27 24 29 2 42 -1 50
-14 14 -23 75 -48 117 -48 18 0 39 -6 46 -13 17 -17 50 -15 117 7 32 11 68 16
91 13 45 -6 57 1 32 19 -16 12 -15 13 5 14 12 0 48 11 79 25 31 14 63 25 71
25 8 0 19 13 25 28 10 26 47 52 75 52 7 0 28 8 47 18 36 17 48 42 21 42 -26 0
-16 27 13 33 15 3 38 15 52 28 27 23 97 58 118 59 6 0 12 -4 12 -10 0 -5 -9
-10 -21 -10 -12 0 -19 -5 -16 -12 4 -14 58 -12 67 1 8 13 50 23 50 13 0 -5
-16 -27 -36 -48 -19 -22 -38 -51 -41 -66 -3 -15 -12 -33 -19 -39 -8 -6 -14
-18 -14 -25 0 -17 26 -18 34 -1 5 10 7 10 12 0 3 -7 12 -13 20 -13 18 0 18 1
-6 -98 -17 -69 -18 -91 -9 -127 l11 -45 19 24 c11 13 19 33 19 43 0 10 7 29
16 41 9 13 13 30 10 39 -4 9 -2 19 3 22 5 4 12 33 15 66 10 119 43 334 56 360
40 87 46 270 12 349 -12 27 -22 53 -22 58 0 18 -82 108 -111 124 -16 8 -29 21
-29 30 0 9 -7 14 -18 12 -26 -4 -52 20 -52 48 0 29 -33 64 -59 64 -13 0 -21 9
-26 29 -7 31 -69 94 -94 96 -29 3 -61 16 -61 26 0 5 -9 4 -19 -3 -15 -9 -23
-9 -36 2 -24 20 -65 19 -107 -3 -26 -13 -42 -16 -54 -9 -10 5 -32 5 -58 0 -22
-5 -64 -13 -92 -18 -28 -4 -62 -13 -74 -20 -13 -7 -35 -16 -50 -20 -22 -6 -27
-5 -26 9 1 22 -57 27 -86 7 -29 -21 -44 -20 -67 3 -17 17 -18 24 -8 53 7 18
15 35 18 38 3 3 11 21 18 41 6 20 21 45 31 54 11 10 20 27 20 37 0 10 7 21 15
24 8 4 15 13 15 22 0 9 9 35 21 59 22 45 19 83 -8 83 -11 0 -9 6 8 20 l24 20
-22 19 c-25 21 -31 50 -10 47 6 0 12 4 12 9 0 6 -5 9 -12 7 -7 -2 -13 2 -13 8
0 5 -18 10 -40 10 -22 0 -40 3 -40 8 0 4 19 16 41 27 l42 19 -29 13 c-42 18
-54 16 -54 -9 0 -16 -3 -19 -11 -11 -7 7 -8 20 -5 30 4 10 8 47 10 83 1 36 0
55 -2 43 -2 -13 -9 -23 -15 -23 -11 0 -62 69 -55 75 2 1 13 8 26 14 18 10 20
15 12 31 -7 12 -7 21 0 25 5 3 10 28 10 56 0 37 4 49 15 49 10 0 15 11 15 35
0 28 -3 33 -17 28 -17 -6 -17 -5 0 14 9 11 17 31 17 44 0 13 9 30 20 37 11 7
20 19 20 27 0 8 9 20 19 27 15 9 17 15 9 26 -8 9 -8 16 0 24 7 7 12 20 12 30
0 17 9 22 35 20 6 -1 18 17 28 38 10 22 24 40 31 40 17 0 66 24 66 32 0 4 7 5
15 2 10 -4 15 0 15 10 0 9 7 19 15 22 8 4 15 10 15 14 0 17 76 85 98 87 21 2
22 0 11 -15 -7 -9 0 -5 15 11 26 26 46 35 46 20 0 -4 -21 -29 -47 -55 -29 -29
-41 -48 -32 -48 9 0 26 11 39 25 13 14 27 25 31 25 5 0 22 12 39 28 16 15 44
39 60 55 17 15 29 31 26 36 -7 11 72 89 99 98 11 3 32 19 46 34 27 29 49 38
49 20 0 -5 -19 -28 -42 -50 -22 -23 -36 -41 -30 -41 11 0 20 8 65 59 15 17 25
36 22 40 -3 5 5 7 17 3 13 -3 19 -1 15 5 -8 13 103 133 124 133 12 0 12 2 0 9
-12 8 -8 11 15 17 42 10 172 117 166 137 -1 4 5 10 13 13 8 4 15 17 15 30 0
14 6 24 14 24 7 0 19 7 26 15 10 12 9 16 -3 21 -12 4 -10 10 10 30 13 13 21
29 17 36 -5 8 -2 9 9 5 10 -3 17 -2 17 4 0 6 9 22 20 36 11 14 17 29 14 34 -3
5 5 9 18 9 13 0 30 4 38 10 9 6 20 5 29 -3 12 -10 13 -9 7 1 -4 7 -3 18 2 25
6 7 10 17 9 22 0 6 12 12 29 15 23 4 28 10 26 27 -3 18 6 24 53 39 55 18 55
18 28 29 l-28 12 35 1 c85 2 100 4 100 13 0 6 16 7 38 4 36 -6 36 -6 12 9 -24
14 -24 14 25 22 27 4 55 13 63 20 7 8 22 14 31 14 25 0 45 26 37 46 -5 13 -4
14 7 5 11 -8 23 -7 53 5 21 9 42 21 46 28 5 8 10 8 19 -1 8 -8 18 -9 36 0 19
8 26 8 32 -1 5 -9 12 -4 20 15 8 17 15 23 20 15 5 -8 14 -8 35 3 33 17 56 19
56 5 0 -15 27 -12 44 5 8 8 24 15 35 15 12 0 21 5 21 11 0 6 7 8 15 5 8 -3 22
-9 30 -12 11 -4 15 0 15 16 0 17 4 20 20 16 57 -16 65 -18 50 -7 -13 10 -13
12 0 20 8 6 17 6 20 2 3 -5 20 -12 38 -16z m-658 -115 c8 -5 11 -10 5 -10 -5
0 -17 5 -25 10 -8 5 -10 10 -5 10 6 0 17 -5 25 -10z m-50 -40 c0 -5 -9 -10
-21 -10 -11 0 -17 5 -14 10 3 6 13 10 21 10 8 0 14 -4 14 -10z m3209 -9 c7 -5
9 -11 4 -14 -4 -3 -17 1 -28 9 -21 16 0 20 24 5z m56 -34 c13 -11 15 -16 6
-22 -8 -4 -21 1 -34 14 -17 16 -18 21 -6 21 8 0 23 -6 34 -13z m68 -58 c-3
-12 -9 -17 -15 -11 -10 10 0 44 12 37 5 -3 6 -14 3 -26z m-1549 -395 c3 -8 2
-12 -4 -9 -6 3 -10 10 -10 16 0 14 7 11 14 -7z m326 -334 c0 -6 -9 -2 -20 7
-11 10 -20 19 -20 21 0 1 9 -2 20 -8 11 -6 20 -15 20 -20z m-3305 -129 c-3 -6
-11 -11 -17 -11 -6 0 -6 6 2 15 14 17 26 13 15 -4z m3425 -80 c-1 -13 -3 -13
-15 3 -19 26 -19 42 0 26 8 -7 15 -20 15 -29z m-4486 -13 c-7 -25 -22 -38 -41
-38 -13 0 -8 25 10 48 17 22 39 15 31 -10z m4538 -129 c-15 -6 -19 -14 -15
-31 4 -20 2 -19 -15 7 -10 17 -15 32 -10 33 13 6 9 28 -7 42 -8 7 -12 17 -9
22 4 6 22 -7 42 -28 33 -36 33 -38 14 -45z m59 -67 c6 -7 8 -20 4 -30 -5 -13
-9 -11 -25 13 -11 17 -20 39 -20 50 l1 20 14 -20 c8 -11 19 -26 26 -33z
m-4597 -288 c6 -17 -19 -54 -36 -54 -11 0 -10 27 2 51 13 23 26 24 34 3z
m4746 -114 c8 -5 12 -11 9 -14 -3 -3 -14 1 -25 9 -21 16 -8 20 16 5z m175
-479 c-3 -5 -1 -12 4 -16 6 -3 7 -13 4 -21 -5 -13 -7 -13 -14 -2 -12 18 -11
48 2 48 5 0 8 -4 4 -9z m-4408 -63 c-2 -13 -4 -3 -4 22 0 25 2 35 4 23 2 -13
2 -33 0 -45z m68 12 c-5 -8 -11 -8 -17 -2 -6 6 -7 16 -3 22 5 8 11 8 17 2 6
-6 7 -16 3 -22z m4393 -10 c27 -36 28 -44 3 -28 -11 7 -17 16 -15 20 3 5 -2
11 -10 14 -9 3 -16 10 -16 15 0 18 17 9 38 -21z m-4358 -60 c0 -5 -4 -10 -10
-10 -5 0 -10 5 -10 10 0 6 5 10 10 10 6 0 10 -4 10 -10z m4377 -192 c-3 -8 -6
-5 -6 6 -1 11 2 17 5 13 3 -3 4 -12 1 -19z m-3933 -524 c9 -3 16 -15 16 -25 0
-14 8 -19 28 -20 l27 -1 -30 -7 c-20 -4 -26 -9 -17 -14 32 -21 -12 -50 -92
-62 -27 -3 -58 -10 -70 -15 -11 -5 -48 -16 -81 -25 -33 -9 -68 -21 -77 -26
-10 -5 -31 -9 -48 -9 -22 0 -30 -5 -30 -17 0 -12 -3 -14 -8 -6 -11 18 -76 11
-84 -9 -14 -34 -53 -15 -85 40 -11 19 -10 23 10 36 12 8 34 18 50 21 29 8 35
19 15 31 -7 4 -8 3 -4 -4 5 -8 0 -12 -13 -12 -14 0 -21 6 -21 19 0 14 10 20
42 24 29 4 50 14 65 31 18 21 35 27 105 35 151 19 275 25 302 15z m193 -156
c10 -9 43 -18 73 -20 30 -2 69 -12 85 -21 17 -9 47 -23 68 -33 59 -26 105 -93
81 -117 -11 -11 -56 13 -109 58 -28 25 -55 42 -59 38 -4 -4 -4 0 0 10 7 19 9
18 -76 22 -30 2 -93 6 -139 8 -46 3 -95 1 -109 -4 -32 -12 -62 -3 -62 20 0 12
18 23 63 38 71 25 157 25 184 1z m-257 -42 c0 -21 -5 -24 -45 -28 -25 -2 -45
-1 -45 2 0 11 16 26 40 37 38 18 50 15 50 -11z m429 -111 c46 -28 111 -109
111 -136 0 -30 -33 -55 -105 -79 -71 -24 -93 -34 -138 -64 -15 -10 -30 -16
-34 -13 -10 11 6 37 23 37 53 0 108 158 79 227 -8 19 -15 39 -15 44 0 17 41 9
79 -16z m-489 -24 c-17 -33 -11 -132 11 -181 24 -53 86 -116 123 -126 57 -14
20 -24 -89 -24 -102 0 -117 2 -135 20 -12 12 -18 25 -15 30 4 6 2 10 -3 10
-18 0 -30 68 -21 117 13 71 27 99 57 114 15 8 35 24 45 37 23 27 42 30 27 3z
m254 -14 c8 -12 7 -21 -6 -33 -22 -22 -48 -11 -48 20 0 37 34 45 54 13z m51
-267 c-3 -5 -11 -10 -16 -10 -6 0 -7 5 -4 10 3 6 11 10 16 10 6 0 7 -4 4 -10z
m-45 -20 c0 -5 -4 -10 -10 -10 -5 0 -10 5 -10 10 0 6 5 10 10 10 6 0 10 -4 10
-10z m3940 -531 c0 -6 -4 -7 -10 -4 -5 3 -10 11 -10 16 0 6 5 7 10 4 6 -3 10
-11 10 -16z m-10 -409 c0 -5 -4 -10 -10 -10 -5 0 -10 5 -10 10 0 6 5 10 10 10
6 0 10 -4 10 -10z m-4690 -141 c0 -5 -4 -9 -10 -9 -5 0 -10 7 -10 16 0 8 5 12
10 9 6 -3 10 -10 10 -16z m-3 -61 c-3 -8 -6 -5 -6 6 -1 11 2 17 5 13 3 -3 4
-12 1 -19z m4989 -103 c-3 -8 -1 -26 4 -40 13 -34 -8 -125 -28 -125 -12 0 -14
14 -9 79 3 44 8 84 12 90 10 17 28 13 21 -4z m-29 -232 c-3 -10 -5 -2 -5 17 0
19 2 27 5 18 2 -10 2 -26 0 -35z m26 -520 c-6 -16 -8 -15 -14 7 -6 20 -7 17
-8 -17 -1 -24 -5 -43 -11 -43 -13 0 -13 11 1 66 11 42 12 43 25 25 8 -11 11
-27 7 -38z m-57 -166 c-4 -22 -3 -43 1 -46 4 -3 7 -41 5 -83 -3 -56 -7 -78
-17 -78 -17 0 -25 -84 -12 -124 7 -21 6 -30 -3 -36 -11 -7 -11 -27 -1 -107 9
-81 9 -118 -4 -213 -8 -63 -13 -142 -10 -175 3 -33 11 -134 16 -225 15 -226
15 -224 25 -227 5 -2 8 -27 8 -55 -2 -78 6 -120 22 -114 9 3 11 0 7 -11 -4 -9
-2 -14 3 -10 6 3 15 3 21 -1 16 -11 -4 -53 -28 -59 -13 -4 -16 -8 -9 -13 21
-13 -10 -56 -63 -88 -71 -42 -125 -69 -317 -162 -91 -43 -205 -101 -255 -128
-49 -27 -128 -69 -175 -94 -157 -84 -234 -125 -450 -243 -183 -100 -511 -265
-526 -265 -2 0 -71 -32 -152 -71 -81 -39 -210 -100 -287 -136 -77 -36 -228
-109 -335 -163 -187 -94 -384 -178 -475 -202 -37 -10 -45 -9 -60 5 -10 11 -12
17 -4 17 8 0 8 4 1 13 -6 7 -13 48 -17 92 -3 44 -10 130 -14 190 -6 76 -17
132 -35 180 -25 71 -25 124 1 132 6 2 30 -19 54 -47 50 -58 98 -88 111 -68 11
19 10 22 -14 54 -13 15 -21 37 -20 47 2 10 -1 24 -6 30 -5 7 -13 52 -16 102
-4 49 -13 101 -20 115 -15 29 -36 91 -36 107 0 20 162 90 235 102 85 14 142
37 148 60 2 11 26 24 63 36 32 10 64 21 69 25 6 4 60 24 120 45 140 47 398
173 540 264 61 39 130 83 155 98 25 15 65 42 89 60 24 18 48 33 54 33 5 0 28
15 51 33 23 18 55 41 71 52 17 10 42 30 56 44 14 14 52 44 84 66 32 22 88 66
124 98 36 32 83 73 103 90 34 29 138 124 265 245 25 23 50 42 54 42 5 0 9 4 9
8 0 20 123 149 156 163 20 9 31 18 24 21 -21 7 11 47 53 65 20 9 37 22 37 27
0 6 13 21 29 34 16 13 44 36 63 52 18 16 44 30 57 30 14 0 37 12 52 26 14 14
34 26 43 28 9 1 23 11 31 22 13 17 14 18 15 1 0 -10 -7 -34 -15 -54 -8 -19
-15 -37 -15 -40 0 -11 22 11 31 30 10 24 31 59 40 67 18 16 39 58 39 77 0 13
6 23 14 23 8 0 20 14 28 30 7 17 16 30 19 30 4 0 9 16 12 35 3 19 15 48 26 64
12 16 21 34 21 40 0 17 23 40 34 34 4 -3 5 -24 2 -46z m-556 -21 c0 -21 -21
-31 -30 -15 -5 7 -6 17 -4 21 9 14 34 9 34 -6z m600 -11 c0 -8 -4 -15 -10 -15
-5 0 -10 7 -10 15 0 8 5 15 10 15 6 0 10 -7 10 -15z m-974 -380 c-3 -9 -11
-13 -16 -10 -8 5 -7 11 1 21 14 18 24 11 15 -11z m-24 -57 c-7 -7 -12 -8 -12
-2 0 14 12 26 19 19 2 -3 -1 -11 -7 -17z m-102 -8 c0 -5 -7 -10 -15 -10 -8 0
-15 5 -15 10 0 6 7 10 15 10 8 0 15 -4 15 -10z m-218 -202 c-7 -7 -12 -8 -12
-2 0 14 12 26 19 19 2 -3 -1 -11 -7 -17z m-322 -282 c0 -11 -19 -15 -25 -6 -3
5 1 10 9 10 9 0 16 -2 16 -4z m-60 -40 c0 -3 -4 -8 -10 -11 -5 -3 -10 -1 -10
4 0 6 5 11 10 11 6 0 10 -2 10 -4z m-2075 -126 c3 -5 -3 -10 -14 -10 -12 0
-21 5 -21 10 0 6 6 10 14 10 8 0 18 -4 21 -10z m1565 -80 c0 -11 -4 -20 -9
-20 -5 0 -7 9 -4 20 3 11 7 20 9 20 2 0 4 -9 4 -20z m-1420 -60 c0 -5 -7 -10
-15 -10 -8 0 -15 5 -15 10 0 6 7 10 15 10 8 0 15 -4 15 -10z m1360 -20 c0 -5
-4 -10 -10 -10 -5 0 -10 5 -10 10 0 6 5 10 10 10 6 0 10 -4 10 -10z m-310 -90
c-11 -11 -25 -20 -32 -20 -6 0 -3 9 7 20 10 11 24 20 32 20 9 0 7 -6 -7 -20z
m-420 -20 c0 -5 -4 -10 -9 -10 -6 0 -13 5 -16 10 -3 6 1 10 9 10 9 0 16 -4 16
-10z m467 -5 c0 -8 -4 -12 -9 -9 -4 3 -8 9 -8 15 0 5 4 9 8 9 5 0 9 -7 9 -15z
m-252 -603 c-3 -3 -15 -7 -28 -9 -21 -4 -21 -3 -2 11 18 13 44 12 30 -2z
m-428 -454 c-3 -8 -6 -5 -6 6 -1 11 2 17 5 13 3 -3 4 -12 1 -19z m-140 -1265
l10 -57 -23 29 c-23 29 -31 65 -17 78 14 15 20 5 30 -50z m83 -58 c-7 -9 -15
-13 -17 -11 -7 7 7 26 19 26 6 0 6 -6 -2 -15z m5161 -118 c-13 -13 -26 -3 -16
12 3 6 11 8 17 5 6 -4 6 -10 -1 -17z m-3437 -1190 c43 -42 86 -79 96 -82 9 -3
23 -18 29 -33 20 -43 40 -175 30 -194 -6 -10 -5 -19 1 -23 38 -24 -35 -241
-91 -274 -16 -9 -32 -25 -38 -37 -13 -30 -117 -80 -209 -100 -143 -32 -277 6
-383 107 -91 88 -119 182 -111 379 1 30 -1 72 -4 92 -11 69 39 126 136 153 14
4 53 20 87 37 74 35 188 55 298 53 l80 -2 79 -76z m-2449 -66 c-18 -36 -36
-41 -30 -8 5 21 34 51 43 43 2 -2 -4 -18 -13 -35z m-14 -99 c-33 -5 -51 5 -51
27 0 30 23 32 49 3 l24 -27 -22 -3z"/>
<path d="M7746 12225 c4 -8 8 -15 10 -15 2 0 4 7 4 15 0 8 -4 15 -10 15 -5 0
-7 -7 -4 -15z"/>
<path d="M8420 11350 c0 -5 7 -10 16 -10 8 0 12 5 9 10 -3 6 -10 10 -16 10 -5
0 -9 -4 -9 -10z"/>
<path d="M5240 11340 c0 -5 5 -10 11 -10 5 0 7 5 4 10 -3 6 -8 10 -11 10 -2 0
-4 -4 -4 -10z"/>
<path d="M8502 11316 c7 -8 15 -12 17 -11 5 6 -10 25 -20 25 -5 0 -4 -6 3 -14z"/>
<path d="M8600 11069 c0 -5 5 -7 10 -4 6 3 10 8 10 11 0 2 -4 4 -10 4 -5 0
-10 -5 -10 -11z"/>
<path d="M8675 10950 c3 -5 8 -10 11 -10 2 0 4 5 4 10 0 6 -5 10 -11 10 -5 0
-7 -4 -4 -10z"/>
<path d="M8640 10913 c0 -16 50 -111 66 -124 9 -7 14 -7 14 -1 0 5 -7 15 -15
22 -8 7 -15 23 -15 36 0 23 -49 90 -50 67z"/>
<path d="M8780 10640 c0 -11 5 -20 10 -20 6 0 10 -10 10 -22 0 -12 3 -19 6
-15 9 9 -5 77 -16 77 -6 0 -10 -9 -10 -20z"/>
<path d="M8870 10554 c0 -11 7 -29 15 -40 19 -25 19 -4 0 32 -12 24 -15 26
-15 8z"/>
<path d="M8910 10481 c0 -6 5 -13 10 -16 6 -3 10 1 10 9 0 9 -4 16 -10 16 -5
0 -10 -4 -10 -9z"/>
<path d="M7415 10450 c-46 -10 -80 -31 -66 -40 18 -10 -11 -20 -59 -20 -22 0
-40 -5 -43 -13 -3 -9 -33 -16 -90 -20 -80 -7 -157 -28 -157 -45 0 -4 -9 -13
-21 -20 -12 -8 -18 -9 -15 -3 4 5 2 12 -4 16 -5 3 -10 -3 -10 -14 0 -15 -9
-22 -35 -27 -44 -8 -53 -21 -20 -30 56 -14 10 -31 -70 -26 -52 3 -163 3 -185
-1 -48 -8 -110 -30 -121 -44 -6 -7 -20 -13 -29 -13 -10 0 -32 -11 -48 -25 -18
-15 -33 -21 -37 -15 -4 6 -13 5 -26 -3 -16 -10 -21 -9 -29 3 -9 13 -10 13 -11
0 -1 -8 -1 -22 0 -30 1 -9 -5 -35 -13 -58 -12 -35 -13 -47 -3 -63 13 -20 27
-25 27 -9 0 6 8 10 17 10 13 0 14 -3 5 -12 -16 -16 -15 -58 2 -58 8 0 12 -8 9
-23 -3 -13 2 -39 10 -58 l14 -34 7 38 c4 22 13 37 21 37 8 0 15 5 15 10 0 7
-6 7 -19 0 -12 -6 -22 -6 -26 -1 -7 12 28 23 49 15 9 -3 16 -1 16 5 0 6 5 11
11 11 5 0 7 -4 4 -10 -3 -5 -1 -10 4 -10 6 0 11 -5 11 -11 0 -6 -7 -9 -15 -5
-20 7 -19 -4 5 -34 18 -24 19 -24 26 -5 10 28 35 55 45 49 15 -9 10 -24 -6
-18 -10 4 -15 0 -15 -14 0 -18 3 -19 35 -9 19 6 35 16 35 24 0 7 7 13 15 13 8
0 15 -4 15 -9 0 -10 114 -6 130 4 6 4 9 13 6 21 -3 7 -1 16 4 19 6 4 10 1 10
-5 0 -7 7 -5 16 4 8 9 21 16 27 16 8 0 7 3 -2 9 -11 7 -10 11 6 20 23 12 34 6
26 -15 -12 -32 15 -9 54 46 29 40 50 60 64 60 11 0 18 4 15 9 -4 5 2 7 11 5
21 -5 34 3 49 31 6 11 22 22 35 23 28 4 61 31 53 43 -3 5 7 10 23 10 l28 1
-30 8 c-18 5 2 6 53 4 l83 -3 -23 20 -23 20 27 -4 c20 -3 29 2 37 20 8 18 18
23 43 22 18 -1 25 -3 16 -6 -10 -2 -18 -8 -18 -13 0 -5 6 -7 13 -5 7 3 33 1
59 -3 32 -6 50 -6 58 2 7 7 13 7 18 1 4 -6 16 -11 27 -11 11 -1 43 -5 70 -8
35 -4 44 -4 30 3 -19 9 -19 10 2 10 12 1 28 -5 35 -12 7 -7 25 -13 41 -14 47
-3 57 -6 57 -15 0 -4 -4 -8 -10 -8 -5 0 -10 -4 -10 -8 0 -5 27 -10 61 -11 41
-1 59 1 54 8 -3 6 -1 11 4 11 6 0 11 -4 11 -8 0 -4 20 -15 44 -24 42 -16 43
-15 39 3 -5 17 -89 86 -123 100 -8 4 -17 0 -20 -7 -3 -8 -28 8 -72 49 -65 61
-92 83 -159 132 -59 43 -117 58 -174 45z m18 -27 c-7 -2 -19 -2 -25 0 -7 3 -2
5 12 5 14 0 19 -2 13 -5z m-200 -120 c-7 -2 -19 -2 -25 0 -7 3 -2 5 12 5 14 0
19 -2 13 -5z m353 -18 c20 -19 4 -20 -22 0 -12 9 -14 14 -6 15 7 0 20 -7 28
-15z m-539 -1 c-3 -3 -12 -4 -19 -1 -8 3 -5 6 6 6 11 1 17 -2 13 -5z m63 -14
c8 -5 11 -10 5 -10 -5 0 -17 5 -25 10 -8 5 -10 10 -5 10 6 0 17 -5 25 -10z
m355 -40 c3 -5 -1 -10 -9 -10 -9 0 -16 5 -16 10 0 6 4 10 9 10 6 0 13 -4 16
-10z m-162 -17 c-7 -2 -21 -2 -30 0 -10 3 -4 5 12 5 17 0 24 -2 18 -5z m-78
-33 c3 -5 -1 -10 -9 -10 -8 0 -18 5 -21 10 -3 6 1 10 9 10 8 0 18 -4 21 -10z
m602 -16 c-3 -3 -12 -4 -19 -1 -8 3 -5 6 6 6 11 1 17 -2 13 -5z m-767 -18 c0
-9 -30 -14 -35 -6 -4 6 3 10 14 10 12 0 21 -2 21 -4z m-600 -57 c-7 -11 -14
-18 -17 -15 -3 3 0 12 7 21 18 21 23 19 10 -6z m-65 -50 c4 -13 0 -27 -11 -40
-25 -28 -40 -9 -24 30 15 36 26 39 35 10z m310 -158 c8 0 15 -6 15 -11 0 -7
-14 -8 -37 -4 -70 12 -56 22 22 15z"/>
<path d="M4640 10370 c0 -5 5 -10 10 -10 6 0 10 5 10 10 0 6 -4 10 -10 10 -5
0 -10 -4 -10 -10z"/>
<path d="M8956 10260 c7 -39 11 -46 20 -37 4 4 -1 21 -10 39 l-17 33 7 -35z"/>
<path d="M7851 10105 c-7 -9 -11 -18 -9 -20 10 -10 151 -9 155 1 4 11 -26 20
-97 30 -24 3 -39 -1 -49 -11z"/>
<path d="M8270 10050 c0 -5 7 -10 16 -10 8 0 12 5 9 10 -3 6 -10 10 -16 10 -5
0 -9 -4 -9 -10z"/>
<path d="M6213 10029 c4 -13 7 -27 7 -31 0 -5 4 -8 9 -8 11 0 1 49 -12 57 -6
4 -8 -2 -4 -18z"/>
<path d="M8033 10029 c-11 -4 -24 -12 -28 -18 -4 -8 2 -8 19 0 20 10 29 8 56
-11 17 -12 29 -27 27 -34 -3 -7 9 -11 30 -12 37 -1 38 -1 -32 48 -38 26 -56
33 -72 27z"/>
<path d="M7280 9757 c-19 -7 -46 -18 -60 -24 -36 -17 -190 -70 -224 -77 -33
-8 -71 13 -81 44 -5 17 -15 20 -69 20 -56 0 -62 -2 -63 -21 -2 -22 -35 -59
-53 -59 -5 0 -10 -14 -10 -31 0 -17 -9 -43 -20 -59 -11 -15 -17 -30 -13 -33 3
-4 -2 -22 -11 -41 -20 -42 -16 -104 7 -121 10 -7 20 -27 24 -45 7 -36 35 -70
57 -70 24 0 27 -30 10 -92 -9 -32 -14 -61 -10 -65 3 -3 6 0 6 8 0 13 23 30 63
45 12 4 16 13 12 25 -5 15 -1 19 17 19 16 0 42 23 91 80 38 45 81 86 100 93
17 8 38 21 46 30 7 10 19 17 25 17 6 0 29 9 50 21 l39 20 -7 -23 c-3 -13 -9
-51 -13 -85 -5 -54 -2 -69 21 -117 29 -59 90 -119 143 -141 30 -13 40 -11 105
11 39 13 80 31 90 41 28 25 33 8 7 -26 -15 -20 -34 -32 -58 -36 -41 -7 -69
-21 -59 -30 3 -4 15 -1 27 7 16 10 23 10 33 0 9 -9 9 -12 0 -12 -6 0 -9 -6 -6
-14 9 -23 -58 -17 -74 6 -16 22 -32 24 -32 3 0 -8 -7 -15 -15 -15 -10 0 -15 7
-13 18 3 15 -8 17 -102 19 -58 1 -147 9 -198 17 -63 12 -104 14 -130 8 -20 -5
-67 -8 -104 -7 -52 2 -68 -1 -68 -11 0 -9 13 -15 38 -15 20 -1 53 -2 72 -3 19
-1 86 -18 148 -39 62 -20 129 -37 148 -37 19 0 34 -4 34 -10 0 -5 7 -7 15 -4
12 5 13 10 4 20 -9 11 -8 14 7 14 11 0 25 -9 31 -20 11 -16 17 -18 43 -9 16 6
30 18 31 27 0 12 3 9 10 -6 6 -16 15 -22 26 -18 10 2 36 9 58 15 116 28 238
66 224 69 -9 2 -42 -6 -73 -17 -31 -11 -58 -15 -61 -10 -4 5 -1 9 5 9 7 0 9 7
6 15 -5 13 2 15 44 9 34 -5 50 -3 50 5 0 6 -15 11 -32 12 -28 0 -30 2 -13 9
l20 9 -20 0 c-16 1 -17 3 -5 11 10 6 17 5 22 -4 5 -8 18 -11 34 -8 20 4 25 2
19 -7 -10 -17 35 -11 53 7 7 6 25 12 40 13 15 0 21 3 15 6 -23 9 13 33 51 33
28 0 40 7 60 33 13 17 26 46 28 62 2 25 8 30 30 30 36 1 48 14 20 22 -13 3
-22 13 -22 25 0 11 -4 16 -11 12 -8 -4 -8 0 0 15 7 11 21 21 31 21 26 0 25 12
0 35 -12 10 -18 25 -15 33 7 19 -21 62 -41 62 -23 0 -29 29 -8 45 18 13 18 14
-3 52 -12 21 -27 38 -33 38 -5 0 -20 12 -33 27 -15 18 -49 35 -107 53 -47 15
-89 31 -95 35 -32 25 -274 45 -325 27z m183 -34 c29 -4 37 -9 32 -21 -3 -9 -8
-37 -10 -62 -4 -37 -3 -40 4 -15 20 69 31 87 49 80 9 -3 30 -9 45 -12 15 -3
34 -14 41 -24 7 -10 15 -16 19 -13 3 3 16 -3 28 -15 13 -12 29 -21 36 -21 19
0 16 -16 -10 -44 -18 -20 -32 -25 -65 -23 -22 0 -38 5 -36 9 9 14 -21 9 -45
-8 -18 -13 -28 -14 -47 -5 -18 8 -46 7 -111 -5 -83 -14 -88 -14 -101 3 -13 17
-14 17 -8 -2 4 -15 -1 -23 -19 -32 -22 -10 -25 -9 -25 8 0 10 -4 19 -10 19 -5
0 -10 -5 -10 -11 0 -6 -6 -9 -12 -6 -7 2 -18 -3 -25 -12 -11 -14 -12 -14 -13
3 0 16 -2 16 -18 -4 l-19 -23 -21 21 c-11 11 -22 19 -24 17 -2 -3 -4 12 -4 31
0 34 1 35 31 30 21 -4 26 -3 15 4 -23 15 -56 12 -71 -6 -10 -13 -10 -17 2 -25
11 -7 9 -8 -6 -6 -37 7 -55 19 -55 38 0 10 4 19 9 19 5 0 16 6 23 13 16 16
107 52 168 67 25 6 54 15 65 20 42 19 128 25 198 13z m288 -160 c-11 -4 -11
-7 0 -14 19 -11 7 -19 -19 -12 -26 6 -29 20 -4 26 24 7 40 6 23 0z m-651 -73
c0 -5 -4 -10 -10 -10 -5 0 -10 5 -10 10 0 6 5 10 10 10 6 0 10 -4 10 -10z
m591 -73 c36 -24 99 -101 99 -120 0 -16 -68 -91 -109 -122 -37 -26 -82 -36
-63 -12 32 38 54 217 32 258 -14 25 -1 24 41 -4z m-261 -53 c0 -31 -26 -42
-48 -20 -16 16 -15 19 7 37 27 22 41 17 41 -17z"/>
<path d="M7250 9631 c0 -5 7 -11 15 -15 9 -3 15 0 15 9 0 8 -7 15 -15 15 -8 0
-15 -4 -15 -9z"/>
<path d="M7215 9610 c3 -5 8 -10 11 -10 2 0 4 5 4 10 0 6 -5 10 -11 10 -5 0
-7 -4 -4 -10z"/>
<path d="M6735 9710 c3 -5 8 -10 11 -10 2 0 4 5 4 10 0 6 -5 10 -11 10 -5 0
-7 -4 -4 -10z"/>
<path d="M6970 8965 c28 -16 60 -19 60 -6 0 12 -26 21 -58 21 l-27 -1 25 -14z"/>
<path d="M9114 8607 c-6 -7 -13 -34 -16 -60 -4 -36 -2 -47 8 -47 8 0 14 -8 14
-17 0 -13 3 -14 12 -5 10 10 10 17 0 32 -6 11 -12 36 -12 55 0 29 4 35 21 35
11 0 17 5 14 10 -8 14 -28 12 -41 -3z"/>
<path d="M5320 8580 c0 -5 6 -10 14 -10 8 0 18 5 21 10 3 6 -3 10 -14 10 -12
0 -21 -4 -21 -10z"/>
<path d="M9020 8522 c0 -6 5 -14 10 -17 6 -3 10 -15 10 -25 0 -10 6 -20 13
-23 6 -2 9 -8 4 -12 -4 -5 -13 -3 -19 3 -22 22 -48 14 -48 -14 0 -23 -3 -25
-26 -20 -22 6 -25 4 -19 -13 3 -10 0 -25 -8 -33 -8 -8 -18 -33 -22 -57 -4 -23
-12 -44 -18 -47 -14 -5 -19 -144 -6 -144 5 0 9 -7 9 -15 0 -8 -4 -15 -10 -15
-5 0 -10 -16 -10 -35 0 -27 3 -33 16 -28 8 3 20 17 25 30 6 17 15 23 31 21 25
-3 39 29 18 42 -9 5 -6 10 9 15 19 6 21 12 16 37 -7 29 -6 30 19 24 14 -3 26
-3 25 1 -1 5 -1 22 0 40 1 26 4 30 21 26 14 -4 20 0 20 12 0 9 -9 19 -20 22
-34 9 -22 23 20 23 22 0 40 5 40 10 0 6 -6 10 -14 10 -7 0 -19 7 -27 16 -10
13 -10 17 2 25 8 5 20 7 27 4 17 -6 15 5 -4 27 -14 14 -14 20 -4 33 10 12 10
18 0 30 -7 8 -19 15 -27 15 -9 0 -13 6 -9 15 3 8 1 15 -3 15 -5 0 -16 3 -25 6
-9 3 -16 1 -16 -4z m20 -158 c0 -8 -4 -12 -10 -9 -5 3 -10 10 -10 16 0 5 5 9
10 9 6 0 10 -7 10 -16z"/>
<path d="M9113 8215 c0 -22 2 -30 4 -17 2 12 2 30 0 40 -3 9 -5 -1 -4 -23z"/>
<path d="M9055 8210 c-3 -5 1 -10 10 -10 9 0 13 5 10 10 -3 6 -8 10 -10 10 -2
0 -7 -4 -10 -10z"/>
<path d="M9040 8104 c0 -8 5 -12 10 -9 6 3 10 10 10 16 0 5 -4 9 -10 9 -5 0
-10 -7 -10 -16z"/>
<path d="M9157 8075 c-4 -8 -2 -17 3 -20 13 -8 40 6 40 21 0 19 -36 18 -43 -1z"/>
<path d="M4665 7960 c-3 -5 -1 -10 4 -10 6 0 11 5 11 10 0 6 -2 10 -4 10 -3 0
-8 -4 -11 -10z"/>
<path d="M8900 7934 c0 -31 23 -28 28 4 2 15 -2 22 -12 22 -11 0 -16 -9 -16
-26z"/>
<path d="M9105 7780 c-3 -5 -1 -10 4 -10 6 0 11 5 11 10 0 6 -2 10 -4 10 -3 0
-8 -4 -11 -10z"/>
<path d="M6285 7721 c-125 -52 -195 -109 -195 -159 0 -35 36 -27 90 18 26 22
54 40 62 40 8 0 18 4 24 9 5 5 44 19 86 30 66 19 85 20 141 11 78 -12 125 -28
155 -51 13 -10 29 -16 35 -14 7 2 24 6 40 9 15 4 44 23 65 43 l37 36 -38 -21
c-21 -12 -56 -25 -78 -28 -35 -6 -39 -4 -39 14 0 21 -36 49 -47 38 -3 -3 -15
0 -27 6 -29 16 -162 38 -221 37 -27 -1 -68 -9 -90 -18z"/>
<path d="M5570 7690 c0 -6 5 -20 11 -32 14 -26 7 -31 -25 -16 -22 10 -29 9
-36 -2 -5 -8 -17 -11 -31 -7 -13 3 -29 2 -35 -4 -7 -6 -34 -11 -60 -12 l-46
-2 5 -55 c4 -31 13 -69 22 -87 16 -32 60 -67 74 -59 4 3 40 6 79 8 67 2 74 0
101 -26 16 -16 32 -39 35 -52 4 -13 12 -23 19 -21 8 1 11 -9 9 -30 -2 -18 1
-33 7 -33 5 0 11 14 13 32 2 17 9 34 17 36 9 3 11 0 7 -7 -17 -27 51 4 87 39
29 29 48 39 86 44 27 4 75 15 107 26 75 26 145 90 99 90 -8 0 -15 -4 -15 -9 0
-16 -82 -20 -104 -5 -12 8 -21 18 -21 22 0 4 -29 7 -65 7 -99 1 -168 23 -210
67 -19 21 -41 38 -48 38 -7 0 -15 7 -19 15 -7 20 -63 50 -63 35z"/>
<path d="M7705 7390 c3 -5 8 -10 11 -10 2 0 4 5 4 10 0 6 -5 10 -11 10 -5 0
-7 -4 -4 -10z"/>
<path d="M7730 7368 c0 -4 15 -31 34 -60 32 -51 53 -121 59 -203 3 -36 4 -35
5 10 3 76 -27 178 -65 222 -18 21 -32 35 -33 31z"/>
<path d="M5625 7220 c-3 -11 -20 -21 -40 -24 -19 -4 -41 -16 -48 -26 -8 -11
-17 -17 -20 -14 -4 4 -13 1 -22 -6 -9 -8 -29 -10 -50 -7 -27 4 -35 2 -40 -13
-3 -10 -15 -20 -27 -23 -16 -5 -19 -9 -10 -19 8 -10 6 -20 -8 -38 -11 -14 -20
-30 -20 -37 0 -6 -4 -13 -8 -15 -4 -1 -18 -25 -30 -53 -12 -27 -21 -44 -22
-37 0 15 -20 16 -20 1 0 -7 -7 -17 -17 -24 -19 -14 -8 -39 13 -31 8 3 25 1 38
-4 18 -6 23 -14 19 -29 -3 -11 2 -34 11 -52 9 -18 16 -38 16 -44 0 -7 9 -24
20 -38 15 -18 17 -28 9 -33 -15 -9 17 -34 43 -34 11 0 30 -11 43 -25 19 -19
25 -35 25 -71 0 -25 6 -58 14 -72 7 -15 23 -48 36 -75 27 -59 68 -109 82 -100
6 3 26 6 45 5 l34 -1 -19 32 c-11 18 -23 47 -27 65 -4 18 -18 45 -31 59 -13
14 -24 31 -23 37 0 6 3 6 6 -1 2 -7 20 -13 38 -13 19 0 36 -4 39 -9 5 -7 34
-16 86 -25 3 -1 11 -5 18 -9 7 -5 26 -12 42 -17 22 -6 30 -5 34 7 10 25 7 33
-13 33 -17 0 -19 8 -20 59 0 43 4 61 15 65 10 4 14 -2 15 -22 1 -20 2 -22 6
-7 2 11 6 31 9 44 3 13 8 21 11 17 3 -3 12 -1 20 5 7 6 13 8 13 3 0 -5 4 -3 9
4 8 13 32 18 186 43 156 24 265 41 349 55 66 11 91 11 97 3 5 -8 8 -8 14 0 3
7 25 11 48 10 23 -1 83 4 132 10 50 6 111 13 136 14 25 2 50 6 55 9 5 3 25 5
46 4 20 0 34 2 31 7 -5 8 9 9 31 1 8 -3 12 -12 9 -20 -3 -8 -9 -11 -14 -8 -5
3 -9 -2 -9 -11 0 -12 6 -14 28 -9 37 9 62 23 62 34 0 6 5 10 10 10 6 0 23 12
38 26 15 14 45 38 67 52 22 15 45 32 50 38 19 20 94 63 122 70 15 4 42 17 58
29 17 12 46 26 65 31 25 7 36 16 38 32 2 12 9 22 17 22 15 0 28 27 15 35 -4 3
-10 -1 -13 -7 -3 -9 -7 -7 -12 6 -5 11 -3 21 5 26 8 5 2 13 -21 24 -38 19 -45
16 -28 -13 18 -27 9 -33 -50 -33 -54 0 -65 -13 -36 -42 21 -20 2 -29 -30 -14
-23 10 -28 10 -37 -6 -8 -15 -12 -16 -19 -5 -6 11 -15 6 -40 -19 -17 -17 -42
-32 -54 -32 -12 0 -42 -9 -66 -19 -25 -11 -89 -24 -147 -30 -57 -5 -110 -15
-117 -21 -8 -6 -23 -9 -35 -5 -15 5 -20 2 -20 -13 0 -12 9 -22 21 -25 12 -3
19 -12 17 -19 -6 -16 -74 -21 -99 -7 -16 8 -19 6 -19 -11 0 -27 -36 -27 -45 0
-9 30 -35 25 -35 -6 0 -23 -3 -25 -26 -20 -14 4 -32 2 -38 -4 -7 -5 -39 -11
-70 -11 -33 -1 -59 -7 -64 -14 -4 -7 -25 -15 -47 -19 -22 -4 -55 -9 -72 -12
-21 -4 -33 -2 -33 5 0 6 -7 11 -16 11 -8 0 -13 -4 -10 -9 7 -11 -17 -21 -52
-21 -29 0 -20 15 13 23 13 3 10 5 -11 6 -19 1 -34 7 -38 16 -4 12 -10 13 -24
6 -10 -5 -24 -6 -32 -1 -8 5 -18 7 -22 4 -4 -3 -20 -7 -35 -9 -16 -2 -38 -6
-50 -9 -17 -3 -23 0 -24 12 -1 9 -2 24 -3 32 -1 10 -14 16 -38 18 -29 2 -39
-1 -48 -18 -6 -12 -9 -28 -6 -36 3 -9 -1 -14 -12 -15 -14 0 -13 -3 6 -16 12
-8 22 -19 22 -24 0 -17 -39 -9 -49 10 -6 10 -22 22 -36 25 -21 5 -26 12 -23
34 2 19 9 28 26 30 12 2 22 -1 22 -7 0 -17 27 -13 34 5 8 21 6 23 -27 26 -15
1 -27 5 -27 9 0 7 -47 19 -90 22 -14 1 -31 6 -38 10 -7 5 -26 6 -42 2 -16 -3
-44 -7 -62 -7 -32 -1 -118 -33 -128 -48 -3 -5 -18 -9 -35 -11 -23 -3 -29 0
-26 11 9 33 4 82 -8 90 -10 6 -8 9 8 15 11 3 26 3 32 -1 7 -4 9 0 5 14 -4 13
-1 22 9 26 9 3 13 11 10 16 -4 6 -1 17 5 25 9 11 9 15 1 15 -9 0 -9 5 0 21 9
17 8 24 -2 31 -10 6 -7 7 9 3 13 -4 22 -2 22 5 0 17 26 40 44 40 9 0 16 -4 16
-10 0 -5 4 -10 10 -10 5 0 7 6 4 14 -3 8 0 17 6 21 9 6 9 10 -1 16 -10 6 -7
12 11 27 27 21 21 37 -15 44 -17 4 -26 0 -30 -12z m629 -492 c-3 -4 -17 -8
-32 -8 l-27 1 24 20 c18 15 26 17 32 7 4 -6 5 -16 3 -20z m-224 -13 c0 -8 -5
-15 -11 -15 -5 0 -8 4 -5 9 4 5 0 12 -6 14 -8 3 -6 6 5 6 9 1 17 -6 17 -14z
m-410 -365 c0 -5 -2 -10 -4 -10 -3 0 -8 5 -11 10 -3 6 -1 10 4 10 6 0 11 -4
11 -10z"/>
<path d="M5715 7200 c-11 -13 -14 -20 -6 -20 18 0 51 19 51 30 0 17 -26 11
-45 -10z"/>
<path d="M7610 7126 c0 -8 5 -18 10 -21 6 -3 10 3 10 14 0 12 -4 21 -10 21 -5
0 -10 -6 -10 -14z"/>
<path d="M5594 7078 c-3 -5 -1 -14 3 -21 6 -11 13 -10 32 8 l23 23 -27 -1
c-15 -1 -29 -5 -31 -9z"/>
<path d="M5585 7010 c-3 -5 -1 -10 4 -10 6 0 11 5 11 10 0 6 -2 10 -4 10 -3 0
-8 -4 -11 -10z"/>
<path d="M6082 6800 c0 -14 2 -19 5 -12 2 6 2 18 0 25 -3 6 -5 1 -5 -13z"/>
<path d="M6280 6796 c0 -18 17 -29 30 -21 8 5 7 11 -1 21 -15 18 -29 18 -29 0z"/>
<path d="M5146 6667 c3 -10 9 -15 12 -12 3 3 0 11 -7 18 -10 9 -11 8 -5 -6z"/>
<path d="M8165 6650 c-4 -6 -3 -16 3 -22 6 -6 12 -6 17 2 4 6 3 16 -3 22 -6 6
-12 6 -17 -2z"/>
<path d="M8140 6605 c-11 -13 -10 -14 4 -9 9 3 16 10 16 15 0 13 -6 11 -20 -6z"/>
<path d="M8095 6579 c-11 -17 1 -21 15 -4 8 9 8 15 2 15 -6 0 -14 -5 -17 -11z"/>
<path d="M8550 6409 c0 -5 5 -7 10 -4 6 3 10 8 10 11 0 2 -4 4 -10 4 -5 0 -10
-5 -10 -11z"/>
<path d="M7993 6385 c-8 -9 -9 -16 -3 -20 6 -3 10 -19 10 -36 0 -29 13 -38 26
-18 3 6 1 16 -5 22 -17 17 -13 30 8 24 31 -8 35 22 5 33 -30 12 -26 12 -41 -5z"/>
<path d="M8603 6376 c-32 -15 -29 -23 7 -18 17 2 30 10 30 18 0 16 -6 16 -37
0z"/>
<path d="M8519 6323 l-11 -28 -19 24 c-17 21 -19 21 -19 5 0 -11 8 -24 19 -31
15 -10 22 -8 40 8 22 21 28 49 11 49 -6 0 -15 -12 -21 -27z"/>
<path d="M8422 6266 c-24 -12 -24 -29 0 -34 8 -1 20 9 26 23 12 27 9 29 -26
11z"/>
<path d="M7960 6260 c0 -5 5 -10 10 -10 6 0 10 5 10 10 0 6 -4 10 -10 10 -5 0
-10 -4 -10 -10z"/>
<path d="M6095 6250 c-3 -5 3 -18 15 -30 26 -26 25 -30 -2 -30 -24 0 -63 20
-40 20 6 0 12 8 12 19 0 15 -8 18 -41 18 -26 0 -36 -3 -27 -8 10 -7 10 -9 0
-9 -18 0 -4 -20 22 -30 16 -6 12 -8 -21 -8 -46 0 -63 -7 -63 -27 0 -16 54 -35
114 -39 24 -2 50 -7 57 -12 7 -4 32 -7 55 -5 27 1 47 -3 57 -13 10 -10 18 -12
22 -6 9 14 -5 53 -24 67 -13 10 -8 12 31 8 35 -3 50 0 60 12 8 10 8 14 1 10
-6 -4 -14 -3 -17 2 -6 10 53 41 78 41 9 0 16 7 16 15 0 13 -23 15 -149 15 -85
0 -152 -4 -156 -10z"/>
<path d="M6400 6214 c0 -9 31 -37 36 -32 9 9 -8 38 -22 38 -8 0 -14 -3 -14 -6z"/>
<path d="M8415 6209 c-9 -14 -2 -20 14 -10 8 6 9 11 3 15 -6 3 -14 1 -17 -5z"/>
<path d="M7916 6062 c-3 -6 -1 -14 5 -17 15 -10 25 3 12 16 -7 7 -13 7 -17 1z"/>
<path d="M8095 5890 c-3 -5 -1 -10 4 -10 6 0 11 5 11 10 0 6 -2 10 -4 10 -3 0
-8 -4 -11 -10z"/>
<path d="M8027 5883 c-13 -12 -7 -26 6 -15 6 5 21 12 32 15 16 4 15 5 -6 6
-14 0 -29 -2 -32 -6z"/>
<path d="M7890 5790 c0 -5 5 -10 10 -10 6 0 10 5 10 10 0 6 -4 10 -10 10 -5 0
-10 -4 -10 -10z"/>
<path d="M7705 5750 c-3 -5 1 -10 9 -10 9 0 16 5 16 10 0 6 -4 10 -9 10 -6 0
-13 -4 -16 -10z"/>
<path d="M7548 5633 c7 -3 16 -2 19 1 4 3 -2 6 -13 5 -11 0 -14 -3 -6 -6z"/>
<path d="M7482 5571 c14 -23 33 -27 43 -11 4 6 3 9 -2 8 -4 -1 -18 3 -31 10
-22 13 -22 12 -10 -7z"/>
<path d="M7420 5560 c0 -5 5 -10 11 -10 5 0 7 5 4 10 -3 6 -8 10 -11 10 -2 0
-4 -4 -4 -10z"/>
<path d="M7505 5530 c-3 -5 -1 -10 4 -10 6 0 11 5 11 10 0 6 -2 10 -4 10 -3 0
-8 -4 -11 -10z"/>
<path d="M7237 5359 c7 -7 15 -10 18 -7 3 3 -2 9 -12 12 -14 6 -15 5 -6 -5z"/>
<path d="M7148 5303 c7 -3 16 -2 19 1 4 3 -2 6 -13 5 -11 0 -14 -3 -6 -6z"/>
<path d="M7056 5242 c6 -4 14 -16 18 -27 l8 -20 8 20 c5 14 2 22 -9 27 -22 9
-39 9 -25 0z"/>
<path d="M6081 5194 c0 -11 3 -14 6 -6 3 7 2 16 -1 19 -3 4 -6 -2 -5 -13z"/>
<path d="M6430 5170 c0 -5 7 -10 16 -10 8 0 12 5 9 10 -3 6 -10 10 -16 10 -5
0 -9 -4 -9 -10z"/>
<path d="M8635 11159 c-4 -6 -5 -12 -2 -15 2 -3 7 2 10 11 7 17 1 20 -8 4z"/>
<path d="M9196 12635 c4 -8 11 -15 16 -15 6 0 5 6 -2 15 -7 8 -14 15 -16 15
-2 0 -1 -7 2 -15z"/>
<path d="M9465 12490 c-7 -12 2 -12 30 0 19 8 19 9 -2 9 -12 1 -25 -3 -28 -9z"/>
<path d="M10150 11740 c0 -5 5 -10 11 -10 5 0 7 5 4 10 -3 6 -8 10 -11 10 -2
0 -4 -4 -4 -10z"/>
<path d="M4025 10970 c-3 -5 -2 -10 4 -10 5 0 13 5 16 10 3 6 2 10 -4 10 -5 0
-13 -4 -16 -10z"/>
<path d="M10187 9867 c-61 -41 -233 -282 -270 -377 -36 -95 -37 -99 -52 -170
-7 -36 -23 -101 -35 -145 -16 -59 -66 -312 -70 -353 0 -2 -6 3 -13 10 -7 7
-19 34 -26 61 -8 26 -19 51 -25 55 -6 4 -19 24 -28 45 -10 20 -22 37 -27 37
-23 0 -20 -23 7 -62 71 -104 112 -217 112 -307 -1 -40 -11 -82 -36 -146 -59
-149 -64 -164 -66 -198 -3 -26 1 -32 17 -32 15 0 19 6 18 23 -2 13 4 37 13 54
41 78 65 203 65 330 -1 88 15 188 38 243 5 11 14 39 20 63 l12 42 59 -4 c33
-3 62 -1 64 2 7 12 -17 39 -42 46 -60 19 -110 96 -63 96 27 0 36 18 18 38 -13
15 -13 25 5 92 29 112 135 323 171 338 4 2 22 16 39 30 17 14 42 26 56 27 18
0 26 6 27 21 2 29 39 75 83 101 44 27 69 29 100 7 32 -22 28 2 -7 37 -42 41
-99 40 -164 -4z"/>
<path d="M10547 9380 c3 -74 7 -137 9 -139 8 -8 2 185 -6 229 -5 29 -6 -4 -3
-90z"/>
<path d="M10413 8880 c0 -25 2 -35 4 -22 2 12 2 32 0 45 -2 12 -4 2 -4 -23z"/>
<path d="M10388 8620 c-10 -41 -78 -233 -89 -254 -6 -11 -7 -16 -1 -12 29 17
105 220 100 263 l-3 28 -7 -25z"/>
<path d="M10437 8451 c-4 -17 -3 -21 5 -13 5 5 8 16 6 23 -3 8 -7 3 -11 -10z"/>
<path d="M10100 8340 c0 -11 -4 -20 -9 -20 -15 0 -43 -108 -36 -139 5 -22 13
-30 37 -35 61 -12 76 -7 111 37 39 48 90 137 83 144 -2 3 -13 -12 -24 -34 -23
-45 -45 -65 -91 -83 -50 -20 -65 4 -57 88 4 40 3 62 -4 62 -5 0 -10 -9 -10
-20z"/>
<path d="M10356 8203 c-6 -14 -5 -15 5 -6 7 7 10 15 7 18 -3 3 -9 -2 -12 -12z"/>
<path d="M10317 8117 c-4 -15 -12 -27 -17 -27 -6 0 -10 -4 -10 -10 0 -11 -63
-102 -92 -134 -10 -11 -18 -24 -18 -29 0 -14 55 48 93 106 47 71 59 96 54 110
-2 7 -7 0 -10 -16z"/>
<path d="M10025 7759 c-11 -17 1 -21 15 -4 8 9 8 15 2 15 -6 0 -14 -5 -17 -11z"/>
</g>
</svg>
