<?xml version="1.0" standalone="no"?>
<!DOCTYPE svg PUBLIC "-//W3C//DTD SVG 20010904//EN"
 "http://www.w3.org/TR/2001/REC-SVG-20010904/DTD/svg10.dtd">
<svg version="1.0" xmlns="http://www.w3.org/2000/svg"
 width="206.000000pt" height="206.000000pt" viewBox="0 0 206.000000 206.000000"
 preserveAspectRatio="xMidYMid meet">
<metadata>
Created by potrace 1.11, written by Peter Selinger 2001-2013
</metadata>
<g transform="translate(0.000000,206.000000) scale(0.100000,-0.100000)"
fill="#000000" stroke="none">
<path d="M938 1995 c-2 -1 -26 -5 -55 -9 -129 -15 -323 -99 -440 -189 -158
-121 -276 -292 -336 -483 -33 -105 -40 -154 -40 -294 -1 -286 122 -546 349
-740 239 -205 625 -276 925 -171 254 89 450 263 565 502 34 70 72 182 80 239
3 19 7 46 10 60 2 14 4 63 5 110 3 532 -411 960 -943 974 -64 2 -118 3 -120 1z"/>
</g>
</svg>
