<?xml version="1.0" standalone="no"?>
<!DOCTYPE svg PUBLIC "-//W3C//DTD SVG 20010904//EN"
 "http://www.w3.org/TR/2001/REC-SVG-20010904/DTD/svg10.dtd">
<svg version="1.0" xmlns="http://www.w3.org/2000/svg"
 width="36.000000pt" height="36.000000pt" viewBox="0 0 36.000000 36.000000"
 preserveAspectRatio="xMidYMid meet">

<g transform="translate(0.000000,36.000000) scale(0.100000,-0.100000)"
fill="#000000" stroke="none">
<path d="M148 328 c-2 -17 -14 -26 -53 -36 -76 -21 -95 -44 -95 -112 0 -51 3
-58 25 -68 l25 -12 0 68 0 68 93 18 c50 9 102 20 115 23 22 5 22 4 22 -94 l0
-99 -106 9 c-58 4 -108 6 -111 3 -3 -2 11 -26 31 -52 35 -45 36 -46 36 -19 0
22 3 26 18 20 9 -4 41 -16 69 -27 l53 -19 45 37 45 38 0 109 0 109 -37 -5
c-30 -3 -50 3 -96 29 -69 40 -75 41 -79 12z"/>
</g>
</svg>
