<svg version="1.0" xmlns="http://www.w3.org/2000/svg"
 width="640.000000pt" height="640.000000pt" viewBox="0 0 640.000000 640.000000"
 preserveAspectRatio="xMidYMid meet">

<g transform="translate(0.000000,640.000000) scale(0.100000,-0.100000)"
fill="#000000" stroke="none">
<path d="M1960 5742 c-174 -45 -316 -200 -350 -381 -5 -29 -10 -167 -10 -306
l0 -252 86 -7 c164 -12 350 -65 489 -139 l65 -35 0 249 0 249 1760 0 1760 0 0
-1440 0 -1440 -320 0 -320 0 0 320 0 320 -640 0 -640 0 0 -320 0 -320 -378 0
-379 0 73 -76 c131 -136 243 -321 296 -492 l23 -72 1241 0 c789 0 1261 4 1295
10 178 33 330 185 374 372 22 95 22 3301 0 3396 -44 187 -196 339 -374 372
-35 6 -742 10 -2020 9 -1817 0 -1971 -1 -2031 -17z"/>
<path d="M1433 4465 c-201 -36 -383 -134 -524 -283 -359 -375 -357 -956 5
-1330 169 -176 393 -276 641 -289 455 -23 853 273 977 726 31 110 31 352 0
462 -103 377 -397 649 -769 714 -102 18 -232 18 -330 0z"/>
<path d="M940 2225 c-293 -47 -576 -227 -747 -476 -147 -214 -228 -552 -178
-744 45 -172 179 -305 352 -350 86 -22 2380 -22 2466 0 173 45 307 178 352
350 40 157 -3 409 -105 614 -111 222 -277 389 -491 497 -119 59 -219 91 -342
110 -127 19 -195 15 -319 -19 -241 -65 -474 -60 -723 17 -60 19 -149 19 -265
1z"/>
</g>
</svg>
