<svg width="448pt" height="448pt" version="1.0" viewBox="0 0 448 448" xmlns="http://www.w3.org/2000/svg">
<g transform="translate(0 448) scale(.1 -.1)">
<path d="m332 3929c-47-23-83-64-107-122-13-32-15-195-15-1367v-1330h2030 2030v1334 1334l-28 53c-17 34-44 65-71 84l-43 30-1876 3-1877 2-43-21zm3157-432c112-74 142-223 68-334-95-142-309-138-399 8l-31 49h-123-124v-94c0-79-3-97-21-120-20-26-23-26-141-26-138 0-130 12-74-115 19-44 42-120 52-170 9-49 18-96 20-102 3-10 61-13 251-13h248l20 36c22 42 67 82 113 101 44 18 140 18 183 0 186-78 198-341 19-432-111-56-247-19-312 86l-31 49h-243c-273 0-246 9-259-85-9-64-51-197-81-257-13-26-24-49-24-52 0-2 52-5 116-8 112-3 117-4 140-31 21-25 24-38 24-118v-89h128 127l20 36c39 73 115 116 205 116 98 0 175-49 216-137 57-122 0-270-123-322-18-7-61-13-95-13-84 0-156 40-200 111l-31 49h-183-183l-20 26c-18 23-21 41-21 120v94h-118-117l-60-56c-181-170-368-251-603-261-186-9-327 20-485 97-389 192-596 597-522 1021 64 367 313 639 692 756 81 25 101 27 263 27s182-2 263-27c148-46 265-113 384-221l61-56h121 121v89c0 81 3 93 24 118l24 28 184 3 184 4 19 35c43 79 111 114 216 111 63-3 82-7 118-31z"/>
<path d="m3301 3344c-12-15-21-37-21-49s9-34 21-49c16-20 29-26 59-26s43 6 59 26c12 15 21 37 21 49s-9 34-21 49c-16 20-29 26-59 26s-43-6-59-26z"/>
<path d="m1673 3289c-439-40-768-466-704-909 26-177 98-319 226-445 228-225 576-298 865-182 232 94 417 309 481 558 23 88 18 287-9 382-92 323-365 567-664 593-35 3-74 6-88 8-14 1-62-1-107-5zm63-316c66-22 145-101 167-167 15-43 17-99 17-403v-354l-25-24c-26-27-70-32-96-12-34 26-39 54-39 231v176h-180-180v-185c0-184 0-186-25-210-32-33-78-33-111 0l-25 25 3 368c3 356 4 368 25 408 36 67 70 101 135 133 57 29 68 31 173 31 78 0 126-5 161-17zm519-8 25-24v-446-446l-25-24c-15-16-36-25-55-25s-40 9-55 25l-25 24v446 446l25 24c15 16 36 25 55 25s40-9 55-25z"/>
<path d="m1470 2817c-13-7-35-28-47-46-19-28-23-47-23-112v-79h180 180v86 86l-78 78h-93c-55 0-104-5-119-13z"/>
<path d="m3381 2544c-12-15-21-37-21-49s9-34 21-49c16-20 29-26 59-26s43 6 59 26c12 15 21 37 21 49s-9 34-21 49c-16 20-29 26-59 26s-43-6-59-26z"/>
<path d="m3301 1744c-12-15-21-37-21-49s9-34 21-49c16-20 29-26 59-26s43 6 59 26c12 15 21 37 21 49s-9 34-21 49c-16 20-29 26-59 26s-43-6-59-26z"/>
<path d="m20 923c-19-24-21-37-17-84 13-143 116-259 255-288 81-17 1652-15 1652 2 0 6-14 99-31 205l-32 192h-903-903l-21-27z"/>
<path d="m2015 907c4-24 19-115 33-203l27-159h165 165l27 159c14 88 29 179 33 203l6 43h-231-231l6-43z"/>
<path d="m2601 758c-17-106-31-199-31-206 0-10 161-12 828-10 940 3 876-2 976 89 62 56 96 125 103 208 4 47 2 60-17 84l-21 27h-903-903l-32-192z"/>
</g>
</svg>