<?xml version="1.0" encoding="iso-8859-1"?>
<!-- Generator: Adobe Illustrator 17.1.0, SVG Export Plug-In . SVG Version: 6.00 Build 0)  -->
<!DOCTYPE svg PUBLIC "-//W3C//DTD SVG 1.1//EN" "http://www.w3.org/Graphics/SVG/1.1/DTD/svg11.dtd">
<svg version="1.1" id="Capa_1" xmlns="http://www.w3.org/2000/svg" xmlns:xlink="http://www.w3.org/1999/xlink" x="0px" y="0px"
	 viewBox="0 0 462.47 462.47" style="enable-background:new 0 0 462.47 462.47;" xml:space="preserve">
<g>
	<path d="M447.29,244.213L330.077,64.029c-4.076-6.263-10.361-9.855-17.243-9.855c-7.206,0-13.833,4.045-17.729,10.821
		l-26.948,46.879L203.589,10.101c-0.254-0.401-0.518-0.792-0.79-1.171C198.718,3.236,192.703,0,186.102,0h0h0
		c-1.54,0-3.046,0.186-4.505,0.529c-5.212,1.223-9.802,4.557-12.982,9.572l-63.379,99.922c0,0,0,0.001-0.001,0.001L20.107,244.235
		c-4.22,6.653-4.683,14.365-1.237,20.63c3.445,6.264,10.205,10.004,18.083,10.004h188.968c0.817,0.084,1.647,0.133,2.491,0.133
		h202.213c7.904,0,14.668-3.77,18.092-10.083C452.147,258.596,451.613,250.854,447.29,244.213z M351.747,143.165
		c-5.179,0.703-8.374,2.781-10.825,4.378c-2.203,1.436-3.115,2.03-5.845,2.03c-2.729,0-3.641-0.594-5.843-2.029
		c-2.995-1.952-7.097-4.625-14.579-4.625c-7.481,0-11.583,2.673-14.578,4.625c-2.202,1.435-3.113,2.029-5.842,2.029
		c-2.806,0-3.67-0.578-5.757-1.976c-2.201-1.473-5.011-3.351-9.477-4.21c0.939-1.765,1.959-3.623,2.934-5.319l31.188-54.254
		L351.747,143.165z M198.942,114.712c-3.792,0-5.157-0.723-7.875-2.163c-3.577-1.896-8.475-4.492-17.24-4.492
		c-8.764,0-13.663,2.596-17.239,4.492c-2.718,1.44-4.082,2.163-7.874,2.163s-5.156-0.723-7.874-2.163
		c-0.402-0.213-0.823-0.436-1.262-0.662l46.523-73.348l44.397,69.996c-2.004-0.291-4.129-0.478-6.44-0.478
		c-8.765,0-13.664,2.596-17.241,4.491C204.1,113.989,202.735,114.712,198.942,114.712z"/>
	<path d="M429.412,304.52H48.829c-6.915,0-14.311,3.849-16.778,6.51c-13.244,14.272-20.538,32.854-20.538,52.321
		c0,42.439,34.527,76.966,76.966,76.966c13.217,0,26.618-7.858,37.386-14.173c4.663-2.734,11.049-6.479,13.055-6.479
		c4.38,0,12.659,5.848,21.425,12.04c18.382,12.984,43.556,30.766,76.496,30.766c45.895,0,81.875-13.286,106.941-39.489
		c20.438-21.364,28.268-45.597,32.474-58.616c0.338-1.046,0.65-2.014,0.942-2.893c0.041-0.123,0.423-1.203,1.238-1.203
		c0.233,0,0.525,0.049,0.845,0.141c4.128,1.189,8.306,1.288,12.579,1.288c25.841,0,44.538-16.051,50.016-42.937
		c0.276-1.359,0.932-6.097-2.257-9.999C438.038,306.826,434.984,304.52,429.412,304.52z"/>
</g>
<g>
</g>
<g>
</g>
<g>
</g>
<g>
</g>
<g>
</g>
<g>
</g>
<g>
</g>
<g>
</g>
<g>
</g>
<g>
</g>
<g>
</g>
<g>
</g>
<g>
</g>
<g>
</g>
<g>
</g>
</svg>
