<svg width="999.9999999999999" height="999.9999999999999" xmlns="http://www.w3.org/2000/svg" xml:space="preserve" enable-background="new 0 0 1000 1000" version="1.1">
 <metadata>Svg Vector Icons : http://www.onlinewebfonts.com/icon</metadata>

 <g>
  <title>Layer 1</title>
  <g id="svg_1">
   <g id="svg_2" transform="translate(0.000000,511.000000) scale(0.100000,-0.100000)">
    <path id="svg_3" d="m4717.5,4997.9c-229.1,-37.7 -369.3,-83.6 -593.1,-191.4c-1051.3,-506.8 -1436.8,-1846.5 -808.7,-2800.8c53.9,-80.9 99.7,-156.4 102.4,-167.1c2.7,-10.8 -124,-105.1 -283,-210.3c-603.8,-401.7 -1054,-973.2 -1272.4,-1625.5l-67.4,-196.8l-741.3,-13.5c-698.2,-13.5 -744,-16.2 -816.8,-70.1c-91.6,-67.4 -156.3,-226.4 -132.1,-320.8c10.8,-37.8 51.2,-107.8 94.4,-156.3c72.8,-80.9 94.4,-86.3 288.4,-99.7l210.3,-13.5l293.8,-1846.6c213,-1339.8 304.6,-1865.4 339.7,-1913.9c27,-37.7 89,-88.9 140.2,-113.2c86.3,-45.8 310,-48.5 3528.7,-48.5c3218.7,0 3442.4,2.7 3531.4,48.5c53.9,24.3 115.9,86.3 142.9,140.2c29.7,62 148.3,733.2 337,1913.9l291.1,1819.6l210.3,13.5c194.1,13.5 215.7,18.9 288.4,99.7c99.7,113.2 121.3,202.2 75.5,323.5c-56.6,145.5 -156.4,204.9 -361.2,218.3l-175.2,10.8l0,1016.3c0,927.3 -5.4,1021.7 -51.2,1124.1c-113.2,245.3 -358.5,428.6 -622.7,461c-113.2,13.5 -142.9,29.6 -218.4,121.3c-48.5,62 -145.6,137.5 -223.8,172.5c-552.6,258.8 -1129.5,-337 -851.8,-878.8c113.2,-221 328.9,-350.4 579.6,-350.4c191.4,0 320.8,53.9 463.7,194.1c102.4,102.4 124,110.5 188.7,86.3l75.5,-24.3l8.1,-965.1l5.4,-965.1l-245.3,8.1l-245.6,8.1l-89,250.7c-48.5,134.8 -134.8,328.9 -188.7,431.3c-264.2,482.5 -733.2,965.1 -1191.5,1223.9c-78.2,45.8 -148.3,91.7 -156.3,102.4s35,94.4 97,186c213,318.1 345.1,827.6 307.3,1186.1c-86.3,862.6 -692.8,1577 -1496.1,1768.4c-218.3,51.2 -590.3,70.1 -768.2,43.1zm660.4,-695.5c560.7,-153.7 943.5,-660.4 948.9,-1250.8c2.7,-415.1 -169.8,-779.1 -485.2,-1027.1c-140.2,-110.5 -199.5,-226.4 -183.3,-355.8c16.2,-140.2 118.6,-239.9 320.8,-312.7c617.3,-223.7 1175.3,-752.1 1434.1,-1361.3c43.1,-97.1 70.1,-180.6 62,-188.7c-8.1,-8.1 -1129.5,-10.8 -2496.2,-8.1l-2482.8,8.1l102.4,218.3c142.9,304.6 301.9,531.1 525.7,752.1c242.6,239.9 558,450.2 843.8,558c288.4,110.5 372,194.1 372,372c0,132.1 -2.7,137.5 -218.4,345c-361.2,347.8 -509.5,741.3 -442.1,1175.3c91.7,598.4 549.9,1043.2 1159.2,1121.4c177.9,24.4 336.9,10.9 539.1,-45.7zm3261.8,-5173c0,-37.7 -514.9,-3210.6 -525.7,-3237.5c-8.1,-27 -655,-35 -3110.8,-35c-1868.1,0 -3105.5,10.8 -3116.2,24.3c-13.5,24.2 -525.7,3172.8 -525.7,3237.5c0,18.9 1218.5,27 3639.2,27c2002.9,-0.2 3639.2,-5.6 3639.2,-16.3z"/>
   </g>
  </g>
  <ellipse stroke="#000000" ry="131.50001" rx="142" id="svg_4" cy="205.49999" cx="501" fill="#000000"/>
  <rect id="svg_5" height="258" width="213" y="295" x="411" stroke="#000000" fill="#000000"/>
  <rect id="svg_6" height="60" width="218" y="490" x="232" stroke="#000000" fill="#000000"/>
  <rect id="svg_7" height="42" width="231" y="457" x="258" stroke="#000000" fill="#000000"/>
  <rect id="svg_8" height="64" width="449" y="420" x="286" stroke="#000000" fill="#000000"/>
  <rect id="svg_9" height="32" width="411" y="401" x="307" stroke="#000000" fill="#000000"/>
  <rect id="svg_10" height="42" width="350" y="374" x="335" stroke="#000000" fill="#000000"/>
  <rect id="svg_11" height="53" width="251" y="351" x="369" stroke="#000000" fill="#000000"/>
  <rect id="svg_12" height="84" width="192" y="460" x="598" stroke="#000000" fill="#000000"/>
 </g>
</svg>