<svg width="512pt" height="512pt" version="1.0" viewBox="0 0 512 512" xmlns="http://www.w3.org/2000/svg">
<g transform="translate(0 512) scale(.1 -.1)">
<path d="m2405 5106c-144-29-264-84-376-174-345-273-422-764-180-1135 75-114 199-224 322-286 142-71 233-93 384-94 234 0 422 74 587 231 135 129 218 278 253 451 23 112 16 294-15 401-48 166-165 340-298 441-80 61-223 131-312 154-90 22-277 28-365 11z"/>
<path d="m3842 3822c-94-34-178-123-203-215-16-61-7-173 20-225 76-148 236-215 390-163l63 22 53-41c84-65 211-202 271-295 89-136 146-277 179-437 26-130 44-118-173-118h-188l-18 77c-91 393-436 706-840 762-50 7-346 11-836 11s-786-4-836-11c-403-56-749-370-840-762l-18-76-751-6-39-24c-42-26-75-86-76-136 0-37 432-1229 459-1265 10-14 33-34 52-45 30-18 55-20 237-23 176-3 202-2 202 12 0 8-20 142-44 298-59 373-60 387-42 485 40 225 211 410 432 467 55 14 199 16 1264 16s1209-2 1264-16c221-57 392-242 432-467 18-98 17-112-42-485-24-156-44-290-44-298 0-14 26-15 203-12 181 3 206 5 236 23 19 11 42 31 52 45 27 36 459 1228 459 1265-1 75-59 143-137 160-28 6-33 11-33 35 0 46-39 235-66 324-36 116-143 326-221 435-81 112-198 233-310 320-76 59-83 67-92 112-17 77-36 115-86 168-83 89-220 123-333 83z"/>
<path d="m1387 1696c-20-8-44-20-53-27-22-18-54-84-54-112 0-12 49-344 110-736 121-786 116-767 194-802 39-18 86-19 976-19s937 1 976 19c78 35 73 15 195 811 101 652 110 726 99 763-15 51-56 92-106 106-63 17-2287 14-2337-3z"/>
</g>
</svg>