<svg id="svg" version="1.1" xmlns="http://www.w3.org/2000/svg" xmlns:xlink="http://www.w3.org/1999/xlink" width="400" height="400" viewBox="0, 0, 400,400"><g id="svgg"><path id="path0" d="M187.700 0.276 C 188.085 0.376,188.715 0.376,189.100 0.276 C 189.485 0.175,189.170 0.093,188.400 0.093 C 187.630 0.093,187.315 0.175,187.700 0.276 M210.900 0.276 C 211.285 0.376,211.915 0.376,212.300 0.276 C 212.685 0.175,212.370 0.093,211.600 0.093 C 210.830 0.093,210.515 0.175,210.900 0.276 M138.200 9.200 C 137.696 9.417,137.622 9.544,138.000 9.544 C 138.330 9.544,138.960 9.389,139.400 9.200 C 139.904 8.983,139.978 8.856,139.600 8.856 C 139.270 8.856,138.640 9.011,138.200 9.200 M133.000 11.014 C 132.000 11.496,131.966 11.551,132.800 11.348 C 133.933 11.071,135.207 10.421,134.600 10.430 C 134.380 10.433,133.660 10.696,133.000 11.014 M280.159 16.600 C 280.576 16.916,281.071 17.080,281.259 16.964 C 281.447 16.848,281.600 16.954,281.600 17.200 C 281.600 17.446,281.780 17.536,282.000 17.400 C 282.220 17.264,282.400 17.354,282.400 17.600 C 282.400 17.846,282.606 17.920,282.858 17.764 C 283.144 17.587,282.805 17.208,281.958 16.757 C 280.267 15.856,279.034 15.748,280.159 16.600 M117.242 17.157 C 116.395 17.608,116.056 17.987,116.342 18.164 C 116.594 18.320,116.800 18.246,116.800 18.000 C 116.800 17.754,116.980 17.664,117.200 17.800 C 117.420 17.936,117.600 17.846,117.600 17.600 C 117.600 17.354,117.780 17.264,118.000 17.400 C 118.220 17.536,118.400 17.446,118.400 17.200 C 118.400 16.954,118.580 16.864,118.800 17.000 C 119.020 17.136,119.200 17.057,119.200 16.824 C 119.200 16.247,118.833 16.310,117.242 17.157 M113.400 18.873 C 112.520 19.333,111.710 19.842,111.600 20.004 C 111.490 20.166,110.095 20.953,108.500 21.754 C 106.905 22.555,105.600 23.297,105.600 23.403 C 105.600 23.509,107.850 22.475,110.600 21.105 C 113.350 19.736,115.600 18.476,115.600 18.307 C 115.600 17.841,115.151 17.956,113.400 18.873 M284.400 18.307 C 284.400 18.476,286.650 19.736,289.400 21.105 C 292.150 22.475,294.400 23.509,294.400 23.403 C 294.400 23.297,293.095 22.555,291.500 21.754 C 289.905 20.953,288.468 20.096,288.306 19.849 C 288.140 19.596,288.007 19.575,288.000 19.800 C 287.993 20.030,287.862 20.011,287.694 19.756 C 287.131 18.905,284.400 17.704,284.400 18.307 M95.746 28.722 C 92.337 30.848,89.685 32.669,90.600 32.257 C 91.149 32.010,99.738 26.796,99.957 26.577 C 100.671 25.863,98.824 26.804,95.746 28.722 M302.000 27.800 C 303.210 28.560,304.380 29.182,304.600 29.182 C 304.820 29.182,304.010 28.560,302.800 27.800 C 301.590 27.040,300.420 26.418,300.200 26.418 C 299.980 26.418,300.790 27.040,302.000 27.800 M306.899 30.808 C 309.371 32.360,309.937 32.354,307.600 30.800 C 306.610 30.142,305.620 29.606,305.400 29.609 C 305.180 29.613,305.854 30.152,306.899 30.808 M87.557 33.977 C 87.030 34.415,86.780 34.774,87.000 34.774 C 87.573 34.775,88.983 33.649,88.727 33.394 C 88.610 33.276,88.083 33.539,87.557 33.977 M83.200 37.000 C 82.917 37.341,82.776 37.709,82.886 37.819 C 82.996 37.929,83.317 37.741,83.600 37.400 C 83.883 37.059,84.024 36.691,83.914 36.581 C 83.804 36.471,83.483 36.659,83.200 37.000 M316.000 36.702 C 316.000 36.922,316.270 37.326,316.600 37.600 C 316.935 37.878,317.200 37.921,317.200 37.698 C 317.200 37.478,316.930 37.074,316.600 36.800 C 316.265 36.522,316.000 36.479,316.000 36.702 M77.200 41.600 C 76.430 42.248,75.980 42.778,76.200 42.778 C 76.420 42.778,77.230 42.248,78.000 41.600 C 78.770 40.952,79.220 40.422,79.000 40.422 C 78.780 40.422,77.970 40.952,77.200 41.600 M322.015 41.584 C 322.777 42.235,323.580 42.770,323.800 42.773 C 324.020 42.776,323.570 42.248,322.800 41.600 C 322.030 40.952,321.227 40.417,321.015 40.411 C 320.803 40.405,321.253 40.933,322.015 41.584 M199.467 43.067 C 199.027 43.506,199.165 44.000,199.726 44.000 C 200.016 44.000,200.768 45.078,201.398 46.395 C 202.027 47.713,202.612 48.721,202.697 48.636 C 202.854 48.479,200.095 42.800,199.862 42.800 C 199.791 42.800,199.613 42.920,199.467 43.067 M72.162 45.662 L 71.400 46.524 72.500 45.816 C 73.634 45.086,73.849 44.800,73.262 44.800 C 73.076 44.800,72.581 45.188,72.162 45.662 M326.400 44.954 C 326.400 45.039,326.895 45.427,327.500 45.816 L 328.600 46.524 327.838 45.662 C 327.164 44.899,326.400 44.523,326.400 44.954 M195.884 50.621 C 194.408 53.584,193.209 56.141,193.221 56.304 C 193.232 56.467,194.503 54.106,196.045 51.057 C 197.587 48.009,198.785 45.452,198.708 45.375 C 198.632 45.298,197.361 47.659,195.884 50.621 M69.762 47.658 C 69.005 48.510,69.006 48.513,69.878 48.056 C 70.850 47.546,71.449 46.800,70.886 46.800 C 70.687 46.800,70.181 47.186,69.762 47.658 M328.800 46.954 C 328.800 47.039,329.295 47.427,329.900 47.816 L 331.000 48.524 330.238 47.662 C 329.564 46.899,328.800 46.523,328.800 46.954 M66.575 50.468 L 65.400 51.736 66.688 50.850 C 68.067 49.900,68.665 49.200,68.098 49.200 C 67.907 49.200,67.221 49.771,66.575 50.468 M332.000 49.525 C 332.000 49.703,332.585 50.271,333.300 50.785 L 334.600 51.721 333.425 50.461 C 332.180 49.125,332.000 49.006,332.000 49.525 M58.262 58.262 C 55.255 61.268,52.893 63.827,53.013 63.947 C 53.133 64.067,55.692 61.705,58.698 58.698 C 61.705 55.692,64.067 53.133,63.947 53.013 C 63.827 52.893,61.268 55.255,58.262 58.262 M336.000 53.048 C 336.000 53.520,346.716 64.218,346.951 63.981 C 347.157 63.772,341.677 57.974,338.300 54.827 C 337.035 53.648,336.000 52.848,336.000 53.048 M189.283 64.221 C 188.137 66.525,187.209 68.542,187.221 68.705 C 187.232 68.867,188.233 67.046,189.445 64.658 C 190.657 62.270,191.586 60.252,191.508 60.174 C 191.430 60.096,190.429 61.918,189.283 64.221 M208.800 61.796 C 208.800 62.331,214.631 73.600,214.908 73.600 C 215.084 73.600,213.848 70.900,212.161 67.600 C 209.398 62.195,208.800 61.164,208.800 61.796 M50.275 66.722 C 49.224 67.819,48.823 68.680,49.581 68.212 C 50.012 67.945,51.737 65.600,51.502 65.600 C 51.418 65.600,50.866 66.105,50.275 66.722 M349.398 66.911 C 350.011 67.742,350.612 68.321,350.735 68.198 C 350.858 68.075,350.357 67.395,349.622 66.687 L 348.285 65.400 349.398 66.911 M352.019 69.895 C 352.527 70.607,353.036 71.097,353.150 70.983 C 353.264 70.869,352.849 70.286,352.226 69.688 L 351.095 68.600 352.019 69.895 M47.462 69.931 C 46.733 70.737,46.572 71.388,47.198 71.001 C 47.615 70.743,48.539 69.200,48.276 69.200 C 48.192 69.200,47.826 69.529,47.462 69.931 M45.398 72.402 C 44.998 72.844,44.766 73.299,44.882 73.415 C 44.997 73.530,45.390 73.169,45.755 72.612 C 46.552 71.396,46.393 71.302,45.398 72.402 M354.206 72.512 C 354.592 73.124,355.009 73.524,355.132 73.401 C 355.255 73.278,354.939 72.778,354.430 72.289 L 353.504 71.400 354.206 72.512 M41.415 77.415 C 40.812 78.206,40.402 78.936,40.504 79.037 C 40.605 79.139,41.182 78.575,41.785 77.785 C 42.388 76.994,42.798 76.264,42.696 76.163 C 42.595 76.061,42.018 76.625,41.415 77.415 M357.222 76.200 C 357.222 76.420,357.752 77.230,358.400 78.000 C 359.048 78.770,359.578 79.220,359.578 79.000 C 359.578 78.780,359.048 77.970,358.400 77.200 C 357.752 76.430,357.222 75.980,357.222 76.200 M181.379 79.966 C 181.503 80.167,181.469 80.392,181.302 80.466 C 180.929 80.631,174.303 94.036,174.498 94.231 C 174.575 94.309,175.794 92.038,177.207 89.186 C 178.620 86.334,179.894 84.000,180.038 84.000 C 180.281 84.000,182.000 80.341,182.000 79.826 C 182.000 79.702,181.809 79.600,181.576 79.600 C 181.343 79.600,181.255 79.765,181.379 79.966 M218.095 80.700 C 218.184 80.865,218.587 81.765,218.989 82.700 C 219.392 83.635,219.847 84.400,220.000 84.400 C 220.153 84.400,220.604 85.122,221.002 86.004 C 221.400 86.886,221.799 87.535,221.888 87.445 C 222.118 87.215,219.178 81.429,218.748 81.266 C 218.554 81.192,218.497 80.967,218.621 80.766 C 218.745 80.565,218.642 80.400,218.390 80.400 C 218.139 80.400,218.006 80.535,218.095 80.700 M36.800 83.400 C 36.522 83.735,36.479 84.000,36.702 84.000 C 36.922 84.000,37.326 83.730,37.600 83.400 C 37.878 83.065,37.921 82.800,37.698 82.800 C 37.478 82.800,37.074 83.070,36.800 83.400 M362.863 84.000 C 363.351 84.660,363.909 85.200,364.102 85.200 C 364.296 85.200,364.070 84.660,363.600 84.000 C 363.130 83.340,362.572 82.800,362.361 82.800 C 362.149 82.800,362.375 83.340,362.863 84.000 M34.119 87.290 C 33.391 88.230,33.150 88.800,33.480 88.800 C 33.877 88.800,34.925 87.192,34.685 86.951 C 34.591 86.857,34.336 87.010,34.119 87.290 M365.200 87.114 C 365.200 87.313,365.586 87.819,366.058 88.238 C 366.910 88.995,366.913 88.994,366.456 88.122 C 365.946 87.150,365.200 86.551,365.200 87.114 M29.174 95.014 C 27.590 97.551,26.382 99.715,26.488 99.822 C 26.595 99.929,27.509 98.617,28.519 96.908 C 29.529 95.199,30.826 93.035,31.401 92.100 C 31.975 91.165,32.357 90.400,32.250 90.400 C 32.142 90.400,30.758 92.476,29.174 95.014 M368.599 92.100 C 369.174 93.035,370.471 95.199,371.481 96.908 C 372.491 98.617,373.405 99.929,373.512 99.822 C 373.718 99.616,368.083 90.400,367.750 90.400 C 367.643 90.400,368.025 91.165,368.599 92.100 M226.017 96.154 C 225.985 96.825,233.733 112.400,234.099 112.400 C 234.300 112.400,234.083 111.781,233.615 111.025 C 233.148 110.268,231.251 106.533,229.400 102.725 C 227.549 98.916,226.026 95.959,226.017 96.154 M169.882 103.421 C 168.847 105.505,168.009 107.343,168.020 107.505 C 168.032 107.667,168.943 106.026,170.045 103.858 C 171.148 101.690,171.986 99.852,171.907 99.774 C 171.829 99.696,170.918 101.337,169.882 103.421 M21.754 108.500 C 20.953 110.095,20.165 111.490,20.003 111.600 C 19.490 111.947,17.934 115.267,18.172 115.505 C 18.297 115.631,18.469 115.658,18.554 115.567 C 18.929 115.163,23.586 105.600,23.408 105.600 C 23.299 105.600,22.555 106.905,21.754 108.500 M378.842 110.500 C 381.532 115.881,381.502 115.831,381.828 115.505 C 382.066 115.267,380.510 111.947,379.997 111.600 C 379.835 111.490,379.047 110.095,378.246 108.500 C 377.445 106.905,376.701 105.600,376.592 105.600 C 376.483 105.600,377.496 107.805,378.842 110.500 M17.066 117.431 C 16.283 119.073,16.265 119.200,16.824 119.200 C 17.057 119.200,17.136 119.020,17.000 118.800 C 16.864 118.580,16.954 118.400,17.200 118.400 C 17.446 118.400,17.536 118.220,17.400 118.000 C 17.264 117.780,17.354 117.600,17.600 117.600 C 17.846 117.600,17.945 117.435,17.821 117.234 C 17.697 117.033,17.812 116.796,18.078 116.707 C 18.393 116.602,18.417 116.458,18.146 116.290 C 17.918 116.150,17.432 116.663,17.066 117.431 M382.113 116.700 C 382.144 117.195,382.323 117.600,382.509 117.600 C 382.695 117.600,382.736 117.780,382.600 118.000 C 382.464 118.220,382.554 118.400,382.800 118.400 C 383.046 118.400,383.136 118.580,383.000 118.800 C 382.864 119.020,382.954 119.200,383.200 119.200 C 383.446 119.200,383.544 119.368,383.417 119.572 C 383.291 119.777,383.370 120.058,383.593 120.196 C 384.269 120.613,384.020 119.505,383.010 117.600 C 382.343 116.342,382.073 116.071,382.113 116.700 M159.200 124.800 C 156.974 129.247,155.218 132.951,155.297 133.031 C 155.377 133.110,156.416 131.200,157.606 128.787 C 158.797 126.374,159.887 124.400,160.029 124.400 C 160.379 124.400,163.680 117.147,163.439 116.906 C 163.333 116.800,161.426 120.353,159.200 124.800 M238.400 121.838 C 238.400 122.206,239.740 124.521,240.300 125.121 C 241.014 125.887,240.923 125.474,239.920 123.411 C 239.162 121.851,238.400 121.062,238.400 121.838 M388.629 132.800 C 388.776 133.350,389.064 134.070,389.267 134.400 C 389.525 134.817,389.557 134.695,389.371 134.000 C 389.224 133.450,388.936 132.730,388.733 132.400 C 388.475 131.983,388.443 132.105,388.629 132.800 M244.400 133.353 C 244.400 133.782,245.590 136.000,245.821 136.000 C 245.931 136.000,245.723 135.415,245.359 134.700 C 244.617 133.240,244.400 132.936,244.400 133.353 M9.029 138.629 C 8.881 139.215,8.838 139.772,8.932 139.866 C 9.027 139.960,9.224 139.558,9.371 138.971 C 9.519 138.385,9.562 137.828,9.468 137.734 C 9.373 137.640,9.176 138.042,9.029 138.629 M390.456 138.000 C 390.456 138.330,390.611 138.960,390.800 139.400 C 391.017 139.904,391.144 139.978,391.144 139.600 C 391.144 139.270,390.989 138.640,390.800 138.200 C 390.583 137.696,390.456 137.622,390.456 138.000 M126.400 140.000 C 126.400 140.220,126.670 140.400,127.000 140.400 C 127.330 140.400,127.600 140.220,127.600 140.000 C 127.600 139.780,127.330 139.600,127.000 139.600 C 126.670 139.600,126.400 139.780,126.400 140.000 M272.400 140.000 C 272.400 140.220,272.670 140.400,273.000 140.400 C 273.330 140.400,273.600 140.220,273.600 140.000 C 273.600 139.780,273.330 139.600,273.000 139.600 C 272.670 139.600,272.400 139.780,272.400 140.000 M123.600 140.400 C 123.600 140.620,123.870 140.800,124.200 140.800 C 124.530 140.800,124.800 140.620,124.800 140.400 C 124.800 140.180,124.530 140.000,124.200 140.000 C 123.870 140.000,123.600 140.180,123.600 140.400 M275.200 140.400 C 275.200 140.620,275.470 140.800,275.800 140.800 C 276.130 140.800,276.400 140.620,276.400 140.400 C 276.400 140.180,276.130 140.000,275.800 140.000 C 275.470 140.000,275.200 140.180,275.200 140.400 M120.800 140.800 C 120.800 141.020,121.070 141.200,121.400 141.200 C 121.730 141.200,122.000 141.020,122.000 140.800 C 122.000 140.580,121.730 140.400,121.400 140.400 C 121.070 140.400,120.800 140.580,120.800 140.800 M277.600 140.800 C 277.600 141.020,277.960 141.200,278.400 141.200 C 278.840 141.200,279.200 141.020,279.200 140.800 C 279.200 140.580,278.840 140.400,278.400 140.400 C 277.960 140.400,277.600 140.580,277.600 140.800 M118.000 141.200 C 118.000 141.420,118.270 141.600,118.600 141.600 C 118.930 141.600,119.200 141.420,119.200 141.200 C 119.200 140.980,118.930 140.800,118.600 140.800 C 118.270 140.800,118.000 140.980,118.000 141.200 M280.800 141.200 C 280.800 141.420,281.070 141.600,281.400 141.600 C 281.730 141.600,282.000 141.420,282.000 141.200 C 282.000 140.980,281.730 140.800,281.400 140.800 C 281.070 140.800,280.800 140.980,280.800 141.200 M115.000 141.600 C 114.864 141.820,115.123 142.000,115.576 142.000 C 116.029 142.000,116.400 141.820,116.400 141.600 C 116.400 141.380,116.141 141.200,115.824 141.200 C 115.507 141.200,115.136 141.380,115.000 141.600 M283.600 141.600 C 283.600 141.820,283.870 142.000,284.200 142.000 C 284.530 142.000,284.800 141.820,284.800 141.600 C 284.800 141.380,284.530 141.200,284.200 141.200 C 283.870 141.200,283.600 141.380,283.600 141.600 M112.400 142.000 C 112.400 142.220,112.670 142.400,113.000 142.400 C 113.330 142.400,113.600 142.220,113.600 142.000 C 113.600 141.780,113.330 141.600,113.000 141.600 C 112.670 141.600,112.400 141.780,112.400 142.000 M286.400 142.000 C 286.400 142.220,286.670 142.400,287.000 142.400 C 287.330 142.400,287.600 142.220,287.600 142.000 C 287.600 141.780,287.330 141.600,287.000 141.600 C 286.670 141.600,286.400 141.780,286.400 142.000 M109.600 142.400 C 109.600 142.620,109.870 142.800,110.200 142.800 C 110.530 142.800,110.800 142.620,110.800 142.400 C 110.800 142.180,110.530 142.000,110.200 142.000 C 109.870 142.000,109.600 142.180,109.600 142.400 M289.200 142.400 C 289.200 142.620,289.470 142.800,289.800 142.800 C 290.130 142.800,290.400 142.620,290.400 142.400 C 290.400 142.180,290.130 142.000,289.800 142.000 C 289.470 142.000,289.200 142.180,289.200 142.400 M297.800 143.600 C 297.664 143.820,297.934 144.000,298.400 144.000 C 298.866 144.000,299.136 143.820,299.000 143.600 C 298.864 143.380,298.594 143.200,298.400 143.200 C 298.206 143.200,297.936 143.380,297.800 143.600 M90.000 145.200 C 89.515 145.514,89.572 145.589,90.300 145.594 C 90.795 145.597,91.200 145.420,91.200 145.200 C 91.200 144.699,90.776 144.699,90.000 145.200 M308.800 145.200 C 308.800 145.420,309.205 145.597,309.700 145.594 C 310.428 145.589,310.485 145.514,310.000 145.200 C 309.224 144.699,308.800 144.699,308.800 145.200 M55.607 155.428 C 58.133 157.973,60.740 160.430,61.400 160.886 C 62.060 161.343,60.173 159.261,57.206 156.259 C 54.239 153.256,51.632 150.800,51.412 150.800 C 51.193 150.800,53.080 152.883,55.607 155.428 M342.395 156.665 C 339.208 159.890,337.320 161.973,338.200 161.293 C 340.346 159.634,349.092 150.800,348.588 150.800 C 348.369 150.800,345.582 153.439,342.395 156.665 M72.792 172.177 C 76.638 176.012,79.869 179.064,79.973 178.960 C 80.229 178.704,66.715 165.199,66.204 165.202 C 65.982 165.203,68.946 168.342,72.792 172.177 M326.285 172.327 C 322.608 176.026,319.600 179.219,319.600 179.422 C 319.600 179.625,322.750 176.645,326.600 172.800 C 330.450 168.955,333.600 165.762,333.600 165.704 C 333.600 165.127,331.999 166.577,326.285 172.327 M84.000 182.953 C 84.000 183.038,87.105 186.042,90.900 189.628 L 97.800 196.150 91.205 189.475 C 85.413 183.613,84.000 182.335,84.000 182.953 M308.396 189.875 L 301.400 196.950 308.250 190.476 C 315.513 183.612,316.306 182.800,315.745 182.800 C 315.550 182.800,312.243 185.984,308.396 189.875 M0.093 188.400 C 0.093 189.170,0.175 189.485,0.276 189.100 C 0.376 188.715,0.376 188.085,0.276 187.700 C 0.175 187.315,0.093 187.630,0.093 188.400 M399.701 188.600 C 399.705 189.480,399.787 189.793,399.883 189.295 C 399.979 188.798,399.975 188.078,399.875 187.695 C 399.775 187.313,399.696 187.720,399.701 188.600 M102.000 200.553 C 102.000 200.638,105.105 203.642,108.900 207.228 L 115.800 213.750 109.205 207.075 C 103.413 201.213,102.000 199.935,102.000 200.553 M290.396 207.498 C 286.548 211.402,284.930 213.150,286.800 211.383 C 294.099 204.485,298.182 200.408,297.796 200.404 C 297.573 200.402,294.243 203.594,290.396 207.498 M399.701 211.400 C 399.705 212.280,399.787 212.593,399.883 212.095 C 399.979 211.598,399.975 210.878,399.875 210.495 C 399.775 210.113,399.696 210.520,399.701 211.400 M0.093 211.600 C 0.093 212.370,0.175 212.685,0.276 212.300 C 0.376 211.915,0.376 211.285,0.276 210.900 C 0.175 210.515,0.093 210.830,0.093 211.600 M119.600 217.510 C 119.600 217.681,120.953 219.164,122.606 220.806 C 124.259 222.448,125.527 224.013,125.423 224.283 C 125.320 224.553,125.407 224.881,125.617 225.011 C 127.093 225.923,125.540 223.033,123.124 220.370 C 120.452 217.425,119.600 216.734,119.600 217.510 M277.011 220.233 C 274.447 222.950,272.778 226.003,274.407 224.996 C 274.630 224.858,274.698 224.558,274.557 224.331 C 274.417 224.103,275.709 222.501,277.429 220.770 C 279.150 219.040,280.432 217.499,280.278 217.345 C 280.125 217.192,278.655 218.491,277.011 220.233 M277.200 243.400 C 277.200 243.730,277.380 244.000,277.600 244.000 C 277.820 244.000,278.000 243.730,278.000 243.400 C 278.000 243.070,277.820 242.800,277.600 242.800 C 277.380 242.800,277.200 243.070,277.200 243.400 M121.600 245.800 C 121.600 246.130,121.780 246.400,122.000 246.400 C 122.220 246.400,122.400 246.130,122.400 245.800 C 122.400 245.470,122.220 245.200,122.000 245.200 C 121.780 245.200,121.600 245.470,121.600 245.800 M277.600 245.800 C 277.600 246.130,277.780 246.400,278.000 246.400 C 278.220 246.400,278.400 246.130,278.400 245.800 C 278.400 245.470,278.220 245.200,278.000 245.200 C 277.780 245.200,277.600 245.470,277.600 245.800 M121.200 248.200 C 121.200 248.530,121.380 248.800,121.600 248.800 C 121.820 248.800,122.000 248.530,122.000 248.200 C 122.000 247.870,121.820 247.600,121.600 247.600 C 121.380 247.600,121.200 247.870,121.200 248.200 M278.000 248.200 C 278.000 248.530,278.180 248.800,278.400 248.800 C 278.620 248.800,278.800 248.530,278.800 248.200 C 278.800 247.870,278.620 247.600,278.400 247.600 C 278.180 247.600,278.000 247.870,278.000 248.200 M120.800 250.600 C 120.800 250.930,120.980 251.200,121.200 251.200 C 121.420 251.200,121.600 250.930,121.600 250.600 C 121.600 250.270,121.420 250.000,121.200 250.000 C 120.980 250.000,120.800 250.270,120.800 250.600 M279.600 257.176 C 279.600 257.629,279.780 258.000,280.000 258.000 C 280.220 258.000,280.400 257.741,280.400 257.424 C 280.400 257.107,280.220 256.736,280.000 256.600 C 279.780 256.464,279.600 256.723,279.600 257.176 M119.600 257.400 C 119.600 257.730,119.780 258.000,120.000 258.000 C 120.220 258.000,120.400 257.730,120.400 257.400 C 120.400 257.070,120.220 256.800,120.000 256.800 C 119.780 256.800,119.600 257.070,119.600 257.400 M8.856 260.400 C 8.856 260.730,9.011 261.360,9.200 261.800 C 9.417 262.304,9.544 262.378,9.544 262.000 C 9.544 261.670,9.389 261.040,9.200 260.600 C 8.983 260.096,8.856 260.022,8.856 260.400 M390.629 261.029 C 390.481 261.615,390.438 262.172,390.532 262.266 C 390.627 262.360,390.824 261.958,390.971 261.371 C 391.119 260.785,391.162 260.228,391.068 260.134 C 390.973 260.040,390.776 260.442,390.629 261.029 M388.844 266.444 C 388.598 267.151,388.466 267.800,388.552 267.885 C 388.638 267.971,388.909 267.462,389.156 266.756 C 389.402 266.049,389.534 265.400,389.448 265.315 C 389.362 265.229,389.091 265.738,388.844 266.444 M197.633 278.367 C 197.212 278.788,196.762 279.028,196.633 278.900 C 196.505 278.772,196.400 278.877,196.400 279.133 C 196.400 279.390,196.055 279.600,195.633 279.600 C 195.212 279.600,194.807 279.758,194.733 279.951 C 194.660 280.144,193.295 280.956,191.700 281.756 C 190.105 282.556,188.800 283.304,188.800 283.420 C 188.800 283.535,191.140 282.439,194.000 280.985 C 196.860 279.531,199.200 278.174,199.200 277.970 C 199.200 277.360,198.450 277.550,197.633 278.367 M200.400 278.024 C 200.400 278.257,200.565 278.345,200.766 278.221 C 200.967 278.097,201.192 278.153,201.266 278.347 C 201.340 278.540,202.339 279.171,203.488 279.749 C 204.747 280.384,205.496 280.593,205.374 280.277 C 205.020 279.354,200.400 277.261,200.400 278.024 M383.281 280.248 C 383.032 280.714,382.942 281.208,383.081 281.347 C 383.220 281.486,383.113 281.600,382.843 281.600 C 382.573 281.600,382.464 281.780,382.600 282.000 C 382.736 282.220,382.695 282.400,382.509 282.400 C 382.323 282.400,382.145 282.805,382.113 283.300 C 382.076 283.899,382.390 283.554,383.051 282.270 C 383.599 281.208,383.976 280.128,383.890 279.871 C 383.801 279.604,383.539 279.767,383.281 280.248 M16.417 281.100 C 16.426 281.265,16.774 282.030,17.190 282.800 C 17.796 283.920,17.935 284.020,17.888 283.300 C 17.856 282.805,17.688 282.400,17.515 282.400 C 17.342 282.400,17.221 282.265,17.247 282.100 C 17.363 281.367,17.168 280.800,16.800 280.800 C 16.580 280.800,16.408 280.935,16.417 281.100 M206.800 281.393 C 206.800 281.503,208.600 282.496,210.800 283.600 C 213.000 284.704,214.800 285.517,214.800 285.407 C 214.800 285.297,213.000 284.304,210.800 283.200 C 208.600 282.096,206.800 281.283,206.800 281.393 M18.000 284.616 C 18.000 284.991,19.694 288.191,20.003 288.400 C 20.165 288.510,20.953 289.905,21.754 291.500 C 22.555 293.095,23.297 294.400,23.403 294.400 C 23.509 294.400,22.475 292.150,21.105 289.400 C 18.990 285.154,18.000 283.628,18.000 284.616 M378.895 289.400 C 377.525 292.150,376.491 294.400,376.597 294.400 C 376.703 294.400,377.445 293.095,378.246 291.500 C 379.047 289.905,379.835 288.510,379.997 288.400 C 380.306 288.191,382.000 284.991,382.000 284.616 C 382.000 283.628,381.010 285.154,378.895 289.400 M181.500 287.029 C 180.005 287.840,180.096 288.178,181.600 287.400 C 182.260 287.059,182.800 286.694,182.800 286.590 C 182.800 286.332,182.757 286.347,181.500 287.029 M175.458 290.045 C 173.290 291.148,171.603 292.136,171.708 292.242 C 171.814 292.347,173.768 291.439,176.050 290.223 C 181.223 287.467,180.786 287.336,175.458 290.045 M221.528 289.043 C 222.478 289.612,223.350 289.983,223.466 289.867 C 223.680 289.654,220.701 287.997,220.116 288.004 C 219.942 288.006,220.577 288.473,221.528 289.043 M224.000 290.161 C 224.000 290.473,232.475 294.858,232.681 294.653 C 232.793 294.541,230.885 293.446,228.442 292.221 C 225.999 290.996,224.000 290.069,224.000 290.161 M166.260 294.846 C 164.973 295.510,164.010 296.143,164.120 296.254 C 164.373 296.506,168.256 294.557,168.595 294.008 C 168.930 293.465,168.947 293.460,166.260 294.846 M239.600 298.385 C 239.600 298.583,242.120 300.023,245.200 301.586 C 248.280 303.149,250.800 304.333,250.800 304.218 C 250.800 304.102,249.138 303.173,247.106 302.153 C 245.075 301.133,242.870 299.898,242.206 299.408 C 240.766 298.345,239.600 297.888,239.600 298.385 M157.813 299.074 C 157.160 299.428,156.373 299.970,156.063 300.280 C 155.752 300.590,153.542 301.826,151.149 303.025 C 148.757 304.225,146.800 305.309,146.800 305.434 C 146.800 305.559,149.680 304.166,153.200 302.338 C 156.720 300.510,159.600 298.876,159.600 298.707 C 159.600 298.259,159.149 298.352,157.813 299.074 M371.481 303.092 C 367.819 309.289,367.545 309.785,368.289 308.872 C 369.426 307.477,373.676 300.343,373.484 300.151 C 373.392 300.059,372.491 301.383,371.481 303.092 M27.368 301.794 C 27.699 302.736,31.992 309.600,32.250 309.600 C 32.507 309.600,31.964 308.653,29.382 304.600 C 28.121 302.620,27.214 301.357,27.368 301.794 M138.560 309.444 C 137.482 310.018,135.160 311.216,133.400 312.105 C 131.640 312.994,130.422 313.799,130.694 313.892 C 130.966 313.986,131.686 313.711,132.294 313.281 C 132.902 312.851,135.065 311.665,137.100 310.646 C 139.135 309.626,140.800 308.704,140.800 308.596 C 140.800 308.279,140.617 308.348,138.560 309.444 M263.969 311.216 C 266.042 312.316,267.971 313.410,268.256 313.646 C 268.540 313.882,269.004 313.996,269.287 313.898 C 269.750 313.738,261.236 309.189,260.507 309.208 C 260.338 309.212,261.896 310.116,263.969 311.216 M362.863 316.000 C 362.375 316.660,362.149 317.200,362.361 317.200 C 362.572 317.200,363.130 316.660,363.600 316.000 C 364.070 315.340,364.296 314.800,364.102 314.800 C 363.909 314.800,363.351 315.340,362.863 316.000 M36.800 316.600 C 37.074 316.930,37.478 317.200,37.698 317.200 C 37.921 317.200,37.878 316.935,37.600 316.600 C 37.326 316.270,36.922 316.000,36.702 316.000 C 36.479 316.000,36.522 316.265,36.800 316.600 M123.900 317.026 C 122.855 317.570,122.000 318.202,122.000 318.431 C 122.000 318.659,122.900 318.341,124.000 317.723 C 126.993 316.042,126.910 315.459,123.900 317.026 M275.600 317.122 C 275.600 317.582,277.535 318.598,277.837 318.297 C 277.967 318.166,277.518 317.771,276.837 317.419 C 276.157 317.067,275.600 316.934,275.600 317.122 M116.708 320.986 C 112.454 323.276,112.261 323.661,116.400 321.600 C 120.030 319.792,120.224 319.676,119.967 319.461 C 119.875 319.384,118.409 320.071,116.708 320.986 M280.000 319.534 C 280.000 319.691,281.755 320.687,283.900 321.746 C 286.045 322.806,287.620 323.504,287.400 323.297 C 286.707 322.645,280.000 319.234,280.000 319.534 M358.852 321.424 C 357.897 322.648,357.195 323.728,357.292 323.826 C 357.390 323.923,358.309 322.922,359.334 321.601 C 360.360 320.281,361.062 319.200,360.894 319.200 C 360.727 319.200,359.808 320.201,358.852 321.424 M40.411 321.015 C 40.417 321.227,40.952 322.030,41.600 322.800 C 42.248 323.570,42.776 324.020,42.773 323.800 C 42.770 323.580,42.235 322.777,41.584 322.015 C 40.933 321.253,40.405 320.803,40.411 321.015 M110.400 324.400 C 109.190 325.039,108.341 325.571,108.513 325.581 C 108.938 325.607,112.800 323.636,112.800 323.393 C 112.800 323.126,112.855 323.103,110.400 324.400 M44.800 326.738 C 44.800 326.924,45.188 327.419,45.662 327.838 L 46.524 328.600 45.816 327.500 C 45.086 326.366,44.800 326.151,44.800 326.738 M354.206 327.488 L 353.504 328.600 354.430 327.711 C 354.939 327.222,355.255 326.722,355.132 326.599 C 355.009 326.476,354.592 326.876,354.206 327.488 M46.800 329.114 C 46.800 329.313,47.186 329.819,47.658 330.238 C 48.510 330.995,48.513 330.994,48.056 330.122 C 47.546 329.150,46.800 328.551,46.800 329.114 M352.019 330.105 L 351.095 331.400 352.226 330.312 C 352.849 329.714,353.264 329.131,353.150 329.017 C 353.036 328.903,352.527 329.393,352.019 330.105 M49.200 331.925 C 49.200 332.104,49.770 332.779,50.466 333.425 L 51.733 334.600 50.619 333.100 C 49.489 331.579,49.200 331.339,49.200 331.925 M349.036 333.500 L 347.872 335.000 349.336 333.622 C 350.864 332.183,350.995 332.000,350.500 332.000 C 350.335 332.000,349.676 332.675,349.036 333.500 M54.827 338.300 C 57.974 341.677,63.772 347.157,63.981 346.951 C 64.218 346.716,53.520 336.000,53.048 336.000 C 52.848 336.000,53.648 337.035,54.827 338.300 M341.300 341.313 C 338.385 344.235,336.000 346.766,336.000 346.938 C 336.000 347.442,341.667 342.166,344.578 338.952 C 348.823 334.264,347.081 335.519,341.300 341.313 M333.000 349.409 C 332.120 350.168,331.590 350.791,331.822 350.794 C 332.053 350.797,332.854 350.170,333.600 349.400 C 335.319 347.627,335.063 347.631,333.000 349.409 M66.687 349.622 C 67.395 350.357,68.075 350.858,68.198 350.735 C 68.321 350.612,67.742 350.011,66.911 349.398 L 65.400 348.285 66.687 349.622 M69.688 352.219 C 70.286 352.845,70.882 353.252,71.011 353.122 C 71.140 352.993,70.651 352.481,69.923 351.984 L 68.600 351.080 69.688 352.219 M329.800 352.212 C 329.140 352.753,328.794 353.197,329.030 353.198 C 329.267 353.199,329.883 352.750,330.400 352.200 C 331.585 350.938,331.348 350.943,329.800 352.212 M72.289 354.430 C 72.778 354.939,73.278 355.255,73.401 355.132 C 73.524 355.009,73.124 354.592,72.512 354.206 L 71.400 353.504 72.289 354.430 M327.200 354.400 C 326.650 354.830,326.397 355.186,326.638 355.191 C 326.879 355.196,327.402 354.840,327.800 354.400 C 328.712 353.392,328.488 353.392,327.200 354.400 M77.200 358.400 C 77.970 359.048,78.780 359.578,79.000 359.578 C 79.220 359.578,78.770 359.048,78.000 358.400 C 77.230 357.752,76.420 357.222,76.200 357.222 C 75.980 357.222,76.430 357.752,77.200 358.400 M322.015 358.416 C 321.253 359.067,320.803 359.595,321.015 359.589 C 321.227 359.583,322.030 359.048,322.800 358.400 C 323.570 357.752,324.020 357.224,323.800 357.227 C 323.580 357.230,322.777 357.765,322.015 358.416 M79.600 359.902 C 79.600 360.122,79.870 360.526,80.200 360.800 C 80.535 361.078,80.800 361.121,80.800 360.898 C 80.800 360.678,80.530 360.274,80.200 360.000 C 79.865 359.722,79.600 359.679,79.600 359.902 M82.800 362.368 C 82.800 362.585,83.610 363.319,84.600 364.000 C 85.590 364.681,86.393 365.095,86.384 364.919 C 86.361 364.444,82.800 361.909,82.800 362.368 M315.606 363.182 C 315.059 363.602,314.706 364.040,314.822 364.155 C 314.937 364.270,315.564 363.929,316.216 363.397 C 317.609 362.258,317.060 362.064,315.606 363.182 M89.200 366.922 C 89.200 367.349,99.582 373.751,99.847 373.487 C 99.929 373.404,98.152 372.229,95.898 370.875 C 93.644 369.520,91.215 368.032,90.500 367.567 C 89.785 367.102,89.200 366.812,89.200 366.922 M307.200 369.000 C 305.990 369.760,305.164 370.386,305.365 370.391 C 305.763 370.401,309.600 368.016,309.600 367.758 C 309.600 367.503,309.505 367.552,307.200 369.000 M302.600 371.810 C 301.720 372.352,301.180 372.796,301.400 372.796 C 301.620 372.796,302.520 372.352,303.400 371.810 C 304.280 371.268,304.820 370.825,304.600 370.825 C 304.380 370.825,303.480 371.268,302.600 371.810 M105.600 376.592 C 105.600 376.701,106.905 377.445,108.500 378.246 C 110.095 379.047,111.490 379.834,111.600 379.995 C 111.949 380.506,114.464 381.669,114.704 381.429 C 114.830 381.303,114.858 381.131,114.767 381.046 C 114.362 380.671,105.600 376.414,105.600 376.592 M289.400 378.866 C 284.117 381.535,284.170 381.503,284.495 381.828 C 284.733 382.066,288.053 380.510,288.400 379.997 C 288.510 379.835,289.905 379.047,291.500 378.246 C 293.095 377.445,294.400 376.702,294.400 376.595 C 294.400 376.325,294.707 376.186,289.400 378.866 M116.800 382.610 C 118.705 383.620,119.813 383.869,119.396 383.193 C 119.258 382.970,118.977 382.891,118.772 383.017 C 118.568 383.144,118.400 383.046,118.400 382.800 C 118.400 382.554,118.220 382.464,118.000 382.600 C 117.780 382.736,117.600 382.646,117.600 382.400 C 117.600 382.154,117.420 382.064,117.200 382.200 C 116.980 382.336,116.800 382.295,116.800 382.109 C 116.800 381.923,116.395 381.744,115.900 381.713 C 115.271 381.673,115.542 381.943,116.800 382.610 M282.400 382.509 C 282.400 382.695,282.220 382.736,282.000 382.600 C 281.780 382.464,281.600 382.554,281.600 382.800 C 281.600 383.046,281.447 383.152,281.259 383.036 C 281.071 382.920,280.576 383.084,280.159 383.400 C 278.908 384.347,280.351 384.096,282.400 383.010 C 283.658 382.343,283.929 382.073,283.300 382.113 C 282.805 382.144,282.400 382.323,282.400 382.509 M132.400 388.733 C 132.730 388.936,133.450 389.224,134.000 389.371 C 134.695 389.557,134.817 389.525,134.400 389.267 C 134.070 389.064,133.350 388.776,132.800 388.629 C 132.105 388.443,131.983 388.475,132.400 388.733 M137.600 390.600 C 138.370 390.897,139.270 391.139,139.600 391.139 C 139.930 391.139,139.570 390.897,138.800 390.600 C 138.030 390.303,137.130 390.061,136.800 390.061 C 136.470 390.061,136.830 390.303,137.600 390.600 M187.700 399.876 C 188.085 399.976,188.715 399.976,189.100 399.876 C 189.485 399.775,189.170 399.693,188.400 399.693 C 187.630 399.693,187.315 399.775,187.700 399.876 M210.900 399.876 C 211.285 399.976,211.915 399.976,212.300 399.876 C 212.685 399.775,212.370 399.693,211.600 399.693 C 210.830 399.693,210.515 399.775,210.900 399.876 " stroke="none" fill="#c8c8c8" fill-rule="evenodd"></path><path id="path1" d="M192.000 0.243 C 182.771 0.676,171.486 1.934,165.000 3.253 C 162.800 3.700,160.640 4.116,160.200 4.178 C 159.760 4.239,158.950 4.402,158.400 4.541 C 157.850 4.679,156.950 4.874,156.400 4.974 C 150.115 6.123,129.551 12.709,122.466 15.842 C 120.748 16.602,120.187 16.705,119.935 16.309 C 119.688 15.919,119.609 15.940,119.597 16.400 C 119.587 16.772,117.190 18.166,113.291 20.067 C 72.319 40.040,39.224 73.243,19.664 114.000 C 18.238 116.970,16.920 119.460,16.734 119.534 C 16.547 119.608,16.493 119.828,16.614 120.022 C 16.734 120.217,16.575 120.877,16.259 121.488 C 15.212 123.521,10.504 136.529,9.052 141.405 C 7.475 146.702,5.263 154.838,4.976 156.400 C 4.875 156.950,4.679 157.850,4.541 158.400 C 4.402 158.950,4.239 159.760,4.178 160.200 C 4.116 160.640,3.700 162.800,3.253 165.000 C -0.789 184.874,-0.708 218.410,3.424 236.000 C 3.760 237.430,4.092 239.050,4.162 239.600 C 4.232 240.150,4.402 241.050,4.541 241.600 C 4.679 242.150,4.875 243.050,4.977 243.600 C 5.174 244.663,7.675 254.077,8.366 256.357 C 8.592 257.103,8.691 257.853,8.586 258.023 C 8.481 258.193,8.531 258.392,8.698 258.466 C 8.864 258.540,9.780 260.940,10.734 263.800 C 32.479 329.019,90.923 381.676,156.400 395.042 C 156.950 395.154,159.020 395.589,161.000 396.008 C 182.832 400.629,210.388 401.069,232.991 397.155 C 235.636 396.697,238.340 396.240,239.000 396.140 C 239.660 396.039,240.740 395.793,241.400 395.593 C 242.060 395.393,243.050 395.146,243.600 395.044 C 244.882 394.808,253.197 392.614,255.768 391.834 C 256.851 391.506,257.870 391.320,258.034 391.421 C 258.198 391.522,258.392 391.469,258.466 391.302 C 258.540 391.136,261.018 390.200,263.974 389.222 C 319.641 370.804,365.768 326.319,386.823 270.747 C 389.723 263.092,394.123 248.567,395.046 243.600 C 395.148 243.050,395.326 242.287,395.442 241.903 C 395.557 241.520,395.732 240.710,395.831 240.103 C 395.930 239.497,396.185 238.190,396.398 237.200 C 400.865 216.453,400.865 183.547,396.398 162.800 C 396.185 161.810,395.930 160.503,395.831 159.897 C 395.732 159.290,395.557 158.480,395.442 158.097 C 395.326 157.713,395.148 156.950,395.046 156.400 C 393.621 148.733,387.555 130.250,383.104 120.011 C 361.126 69.458,316.639 28.470,264.915 11.118 C 261.442 9.953,258.510 8.910,258.400 8.800 C 258.290 8.690,258.020 8.597,257.800 8.593 C 256.832 8.575,253.176 7.485,252.971 7.153 C 252.847 6.952,252.611 6.870,252.448 6.971 C 252.284 7.072,250.452 6.708,248.375 6.163 C 246.299 5.617,244.150 5.086,243.600 4.981 C 243.050 4.877,242.150 4.675,241.600 4.533 C 240.038 4.130,239.494 4.019,238.120 3.824 C 237.417 3.724,236.157 3.464,235.320 3.246 C 228.154 1.382,203.769 -0.309,192.000 0.243 M221.203 85.200 C 247.736 138.919,246.039 135.563,246.772 135.765 C 247.117 135.860,253.520 136.794,261.000 137.841 C 268.480 138.888,274.690 139.847,274.800 139.972 C 274.910 140.098,276.170 140.255,277.600 140.322 C 279.030 140.389,280.248 140.578,280.306 140.741 C 280.365 140.904,281.040 140.965,281.806 140.875 C 282.573 140.786,283.200 140.876,283.200 141.076 C 283.200 141.276,283.830 141.366,284.600 141.276 C 285.494 141.171,286.000 141.281,286.000 141.580 C 286.000 141.837,286.188 141.931,286.418 141.789 C 286.946 141.463,297.200 142.801,297.200 143.196 C 297.200 143.357,297.647 143.404,298.193 143.299 C 298.740 143.195,299.505 143.246,299.893 143.414 C 300.282 143.582,301.002 143.680,301.493 143.632 C 301.985 143.584,302.612 143.684,302.888 143.854 C 303.163 144.024,303.976 144.113,304.694 144.051 C 305.468 143.985,306.000 144.124,306.000 144.393 C 306.000 144.643,306.190 144.730,306.422 144.587 C 306.879 144.304,319.732 146.045,319.906 146.414 C 319.965 146.537,320.640 146.565,321.406 146.475 C 322.173 146.386,322.800 146.476,322.800 146.676 C 322.800 146.876,323.430 146.966,324.200 146.876 C 324.970 146.786,325.600 146.876,325.600 147.076 C 325.600 147.276,326.230 147.366,327.000 147.276 C 327.788 147.184,328.400 147.290,328.400 147.519 C 328.400 147.742,328.757 147.832,329.194 147.717 C 329.631 147.603,330.306 147.646,330.694 147.812 C 331.082 147.979,331.877 148.077,332.460 148.031 C 333.044 147.986,333.624 148.116,333.751 148.320 C 333.877 148.525,334.436 148.606,334.993 148.499 C 335.549 148.393,336.266 148.523,336.585 148.787 C 336.904 149.052,337.338 149.162,337.549 149.032 C 337.922 148.801,343.600 149.457,344.800 149.869 C 345.130 149.983,346.176 150.129,347.123 150.195 C 349.824 150.381,349.713 150.593,344.135 155.947 C 341.240 158.726,324.468 175.102,306.866 192.339 L 274.860 223.677 274.930 225.636 C 274.969 226.713,275.155 227.595,275.345 227.597 C 275.535 227.599,275.612 228.140,275.515 228.800 C 275.418 229.460,275.451 230.000,275.588 230.000 C 275.945 230.000,277.311 238.296,277.029 238.752 C 276.901 238.961,276.945 239.192,277.128 239.266 C 277.568 239.444,279.332 250.263,279.006 250.790 C 278.867 251.016,278.964 251.200,279.222 251.200 C 279.515 251.200,279.625 251.649,279.515 252.400 C 279.418 253.060,279.508 253.600,279.715 253.600 C 279.922 253.600,280.012 254.140,279.915 254.800 C 279.818 255.460,279.863 256.000,280.015 256.000 C 280.167 256.000,280.402 256.765,280.538 257.700 C 280.731 259.021,282.977 271.982,283.814 276.600 C 283.978 277.505,284.439 280.294,284.575 281.200 C 284.624 281.530,284.800 282.390,284.966 283.110 C 285.132 283.831,285.351 285.091,285.452 285.910 C 285.553 286.730,285.721 287.850,285.824 288.400 C 287.117 295.298,287.966 300.122,287.925 300.336 C 287.896 300.481,287.979 300.870,288.110 301.200 C 288.526 302.256,290.039 312.094,289.819 312.314 C 289.702 312.431,289.807 312.767,290.051 313.061 C 290.295 313.355,290.400 313.957,290.285 314.398 C 290.169 314.839,290.258 315.200,290.483 315.200 C 290.709 315.200,290.812 315.736,290.715 316.400 C 290.618 317.060,290.656 317.600,290.800 317.600 C 290.944 317.600,291.285 319.085,291.558 320.900 C 291.831 322.715,292.151 324.605,292.270 325.100 C 292.606 326.495,291.687 326.248,286.915 323.658 C 284.542 322.370,277.110 318.481,270.400 315.016 C 263.690 311.550,252.800 305.876,246.200 302.406 C 239.600 298.935,227.990 292.853,220.400 288.890 C 201.931 279.246,200.225 278.323,200.052 277.885 C 199.962 277.660,199.803 277.668,199.652 277.907 C 199.320 278.430,187.547 284.745,167.800 294.992 C 159.000 299.558,151.620 303.426,151.400 303.587 C 150.948 303.918,146.984 306.000,127.000 316.398 C 119.300 320.405,111.890 324.302,110.533 325.057 C 109.177 325.813,107.980 326.289,107.875 326.116 C 107.672 325.783,108.292 321.425,108.687 320.400 C 108.815 320.070,108.882 319.412,108.836 318.938 C 108.790 318.464,108.946 317.957,109.183 317.811 C 109.419 317.664,109.518 317.391,109.401 317.202 C 109.198 316.874,111.829 300.440,112.283 299.200 C 112.404 298.870,112.557 298.240,112.622 297.800 C 112.815 296.511,113.148 294.482,113.361 293.299 C 113.470 292.694,113.663 291.480,113.789 290.600 C 113.916 289.720,114.206 288.010,114.435 286.800 C 114.956 284.049,114.828 284.774,116.769 273.600 C 117.668 268.430,118.704 262.400,119.072 260.200 C 119.440 258.000,119.858 256.151,120.000 256.090 C 120.142 256.030,120.180 255.445,120.084 254.790 C 119.975 254.047,120.085 253.600,120.378 253.600 C 120.636 253.600,120.729 253.409,120.584 253.175 C 120.291 252.699,124.002 230.263,124.403 230.090 C 124.544 230.030,124.580 229.445,124.484 228.790 C 124.388 228.136,124.465 227.599,124.655 227.597 C 124.845 227.595,125.032 226.707,125.071 225.623 L 125.141 223.653 88.071 187.397 C 52.614 152.719,49.859 149.953,51.333 150.519 C 51.686 150.654,52.088 150.581,52.227 150.357 C 52.366 150.132,52.956 149.986,53.540 150.031 C 54.123 150.077,54.918 149.979,55.306 149.812 C 55.694 149.646,56.369 149.603,56.806 149.717 C 57.242 149.832,57.707 149.750,57.839 149.536 C 57.971 149.323,58.556 149.186,59.140 149.231 C 59.723 149.277,60.470 149.212,60.800 149.087 C 61.895 148.671,70.803 147.554,71.177 147.786 C 71.379 147.911,71.665 147.818,71.812 147.581 C 71.959 147.343,72.556 147.186,73.140 147.231 C 73.723 147.277,74.518 147.179,74.906 147.012 C 75.294 146.846,75.969 146.803,76.406 146.917 C 76.842 147.032,77.307 146.950,77.439 146.736 C 77.571 146.523,78.156 146.386,78.740 146.431 C 79.323 146.477,80.070 146.412,80.400 146.287 C 81.511 145.864,96.010 143.959,96.379 144.187 C 96.580 144.311,96.865 144.218,97.012 143.981 C 97.159 143.743,97.756 143.586,98.340 143.631 C 98.923 143.677,99.718 143.579,100.107 143.412 C 100.495 143.246,101.260 143.195,101.807 143.299 C 102.353 143.404,102.800 143.314,102.800 143.101 C 102.800 142.887,103.430 142.786,104.200 142.876 C 104.970 142.966,105.600 142.918,105.600 142.769 C 105.600 142.396,113.089 141.484,113.593 141.796 C 113.817 141.934,114.000 141.837,114.000 141.580 C 114.000 141.282,114.504 141.171,115.394 141.275 C 116.160 141.365,116.838 141.285,116.901 141.098 C 116.963 140.911,118.224 140.722,119.703 140.679 C 121.182 140.636,122.394 140.445,122.396 140.256 C 122.398 140.067,123.027 139.986,123.794 140.075 C 124.560 140.165,125.235 140.127,125.294 139.992 C 125.352 139.857,131.700 138.858,139.400 137.773 L 153.400 135.800 157.800 126.995 C 162.612 117.366,176.939 88.383,190.799 60.242 C 196.005 49.671,199.791 42.431,200.002 42.642 C 200.199 42.839,209.739 61.990,221.203 85.200 " stroke="none" fill="#040404" fill-rule="evenodd"></path><path id="path2" d="M192.705 0.283 C 193.202 0.379,193.922 0.375,194.305 0.275 C 194.687 0.175,194.280 0.096,193.400 0.101 C 192.520 0.105,192.207 0.187,192.705 0.283 M205.905 0.283 C 206.402 0.379,207.122 0.375,207.505 0.275 C 207.887 0.175,207.480 0.096,206.600 0.101 C 205.720 0.105,205.407 0.187,205.905 0.283 M249.388 6.380 C 250.922 6.807,252.245 7.088,252.329 7.005 C 252.515 6.818,249.852 6.085,247.978 5.807 C 247.220 5.695,247.855 5.952,249.388 6.380 M149.400 6.400 C 148.381 6.838,149.432 6.838,150.800 6.400 C 151.604 6.143,151.643 6.077,151.000 6.068 C 150.560 6.062,149.840 6.211,149.400 6.400 M146.056 7.259 C 145.317 7.472,144.790 7.723,144.885 7.818 C 144.980 7.913,145.854 7.740,146.829 7.435 C 148.818 6.811,148.145 6.658,146.056 7.259 M141.800 8.586 C 140.222 9.308,140.579 9.320,142.800 8.621 C 143.790 8.309,144.240 8.050,143.800 8.045 C 143.360 8.040,142.460 8.283,141.800 8.586 M67.578 50.300 L 66.200 51.800 67.700 50.422 C 69.096 49.138,69.384 48.800,69.078 48.800 C 69.012 48.800,68.337 49.475,67.578 50.300 M332.000 50.200 C 332.746 50.970,333.447 51.600,333.557 51.600 C 333.667 51.600,333.146 50.970,332.400 50.200 C 331.654 49.430,330.953 48.800,330.843 48.800 C 330.733 48.800,331.254 49.430,332.000 50.200 M193.484 54.614 C 192.671 56.256,192.093 57.600,192.198 57.600 C 192.465 57.600,195.285 51.951,195.106 51.773 C 195.027 51.693,194.297 52.972,193.484 54.614 M336.000 53.800 C 336.746 54.570,337.447 55.200,337.557 55.200 C 337.667 55.200,337.146 54.570,336.400 53.800 C 335.654 53.030,334.953 52.400,334.843 52.400 C 334.733 52.400,335.254 53.030,336.000 53.800 M62.175 55.300 L 61.000 56.600 62.300 55.425 C 63.512 54.330,63.784 54.000,63.475 54.000 C 63.406 54.000,62.821 54.585,62.175 55.300 M206.000 54.942 C 206.000 55.377,209.186 61.600,209.409 61.600 C 209.588 61.600,206.528 55.240,206.154 54.833 C 206.069 54.742,206.000 54.791,206.000 54.942 M54.778 62.700 L 53.400 64.200 54.900 62.822 C 56.296 61.538,56.584 61.200,56.278 61.200 C 56.212 61.200,55.537 61.875,54.778 62.700 M345.983 63.700 C 346.964 64.745,347.819 65.600,347.883 65.600 C 348.184 65.600,347.866 65.241,346.100 63.583 L 344.200 61.800 345.983 63.700 M349.600 67.800 C 350.346 68.570,351.047 69.200,351.157 69.200 C 351.267 69.200,350.746 68.570,350.000 67.800 C 349.254 67.030,348.553 66.400,348.443 66.400 C 348.333 66.400,348.854 67.030,349.600 67.800 M224.800 92.949 C 224.800 93.381,226.389 96.400,226.616 96.400 C 226.726 96.400,226.430 95.635,225.959 94.700 C 225.032 92.861,224.800 92.511,224.800 92.949 M8.446 142.039 C 8.201 142.743,8.012 143.608,8.027 143.960 C 8.041 144.312,8.304 143.797,8.609 142.816 C 9.249 140.762,9.115 140.122,8.446 142.039 M390.863 141.000 C 390.862 141.220,391.103 142.030,391.400 142.800 C 391.697 143.570,391.945 143.930,391.952 143.600 C 391.958 143.270,391.717 142.460,391.414 141.800 C 391.112 141.140,390.864 140.780,390.863 141.000 M7.200 146.400 C 6.951 147.324,6.826 148.159,6.921 148.255 C 7.017 148.350,7.290 147.663,7.527 146.727 C 7.765 145.791,7.890 144.957,7.806 144.873 C 7.722 144.788,7.449 145.476,7.200 146.400 M63.200 148.800 C 62.667 149.145,62.667 149.188,63.200 149.188 C 63.530 149.188,64.070 149.013,64.400 148.800 C 64.933 148.455,64.933 148.412,64.400 148.412 C 64.070 148.412,63.530 148.587,63.200 148.800 M6.200 150.000 C 6.048 150.691,6.007 151.341,6.109 151.442 C 6.211 151.544,6.409 151.053,6.550 150.350 C 6.883 148.683,6.560 148.360,6.200 150.000 M393.256 149.200 C 393.256 149.530,393.411 150.160,393.600 150.600 C 393.817 151.104,393.944 151.178,393.944 150.800 C 393.944 150.470,393.789 149.840,393.600 149.400 C 393.383 148.896,393.256 148.822,393.256 149.200 M52.245 150.328 C 52.133 150.508,52.573 150.577,53.221 150.482 C 53.870 150.387,54.400 150.240,54.400 150.155 C 54.400 149.850,52.443 150.007,52.245 150.328 M347.200 150.517 C 348.190 150.803,349.075 150.983,349.167 150.918 C 349.535 150.657,348.882 150.426,347.185 150.217 L 345.400 149.997 347.200 150.517 M50.800 150.711 C 50.800 150.882,52.105 152.277,53.700 153.811 L 56.600 156.600 53.888 153.778 C 52.397 152.226,51.302 150.831,51.455 150.678 C 51.608 150.525,51.523 150.400,51.267 150.400 C 51.010 150.400,50.800 150.540,50.800 150.711 M344.989 154.900 L 342.200 157.800 345.100 155.011 C 346.695 153.477,348.000 152.172,348.000 152.111 C 348.000 151.817,347.580 152.206,344.989 154.900 M71.600 171.400 C 73.460 173.270,75.072 174.800,75.182 174.800 C 75.292 174.800,73.860 173.270,72.000 171.400 C 70.140 169.530,68.528 168.000,68.418 168.000 C 68.308 168.000,69.740 169.530,71.600 171.400 M326.591 172.900 L 323.400 176.200 326.700 173.009 C 328.515 171.255,330.000 169.770,330.000 169.709 C 330.000 169.418,329.554 169.835,326.591 172.900 M89.193 188.500 C 91.499 190.865,93.434 192.800,93.493 192.800 C 93.782 192.800,93.294 192.287,89.300 188.393 L 85.000 184.200 89.193 188.500 M308.592 190.500 L 305.000 194.200 308.700 190.608 C 312.136 187.272,312.582 186.800,312.292 186.800 C 312.232 186.800,310.567 188.465,308.592 190.500 M0.093 193.600 C 0.093 194.370,0.175 194.685,0.276 194.300 C 0.376 193.915,0.376 193.285,0.276 192.900 C 0.175 192.515,0.093 192.830,0.093 193.600 M399.693 193.600 C 399.693 194.370,399.775 194.685,399.876 194.300 C 399.976 193.915,399.976 193.285,399.876 192.900 C 399.775 192.515,399.693 192.830,399.693 193.600 M106.600 205.600 C 109.674 208.680,112.279 211.200,112.389 211.200 C 112.499 211.200,110.074 208.680,107.000 205.600 C 103.926 202.520,101.321 200.000,101.211 200.000 C 101.101 200.000,103.526 202.520,106.600 205.600 M291.394 207.300 L 286.200 212.600 291.500 207.406 C 294.415 204.549,296.800 202.164,296.800 202.106 C 296.800 201.819,296.219 202.377,291.394 207.300 M399.693 206.400 C 399.693 207.170,399.775 207.485,399.876 207.100 C 399.976 206.715,399.976 206.085,399.876 205.700 C 399.775 205.315,399.693 205.630,399.693 206.400 M121.800 220.400 C 123.550 222.160,125.071 223.600,125.181 223.600 C 125.291 223.600,123.950 222.160,122.200 220.400 C 120.450 218.640,118.929 217.200,118.819 217.200 C 118.709 217.200,120.050 218.640,121.800 220.400 M277.188 221.100 L 274.600 223.800 277.300 221.212 C 278.785 219.788,280.000 218.573,280.000 218.512 C 280.000 218.217,279.593 218.592,277.188 221.100 M6.068 249.000 C 6.062 249.440,6.211 250.160,6.400 250.600 C 6.838 251.619,6.838 250.568,6.400 249.200 C 6.143 248.396,6.077 248.357,6.068 249.000 M393.429 249.829 C 393.281 250.415,393.238 250.972,393.332 251.066 C 393.427 251.160,393.624 250.758,393.771 250.171 C 393.919 249.585,393.962 249.028,393.868 248.934 C 393.773 248.840,393.576 249.242,393.429 249.829 M391.280 257.480 C 391.030 258.294,390.892 259.026,390.973 259.106 C 391.054 259.187,391.336 258.599,391.600 257.800 C 391.864 257.001,392.002 256.269,391.907 256.174 C 391.812 256.078,391.530 256.666,391.280 257.480 M184.700 285.829 C 183.205 286.640,183.296 286.978,184.800 286.200 C 185.460 285.859,186.000 285.494,186.000 285.390 C 186.000 285.132,185.957 285.147,184.700 285.829 M223.600 290.600 C 224.150 290.914,224.780 291.172,225.000 291.172 C 225.220 291.172,224.950 290.914,224.400 290.600 C 223.850 290.286,223.220 290.028,223.000 290.028 C 222.780 290.028,223.050 290.286,223.600 290.600 M286.048 290.400 C 285.981 291.258,287.139 297.672,287.410 297.943 C 287.661 298.194,287.395 296.352,286.611 292.400 C 286.327 290.970,286.074 290.070,286.048 290.400 M112.214 299.300 C 112.125 299.575,111.582 302.680,111.006 306.200 C 110.431 309.720,109.854 313.050,109.724 313.600 C 109.594 314.150,109.622 314.476,109.786 314.325 C 110.103 314.032,112.796 298.800,112.531 298.800 C 112.445 298.800,112.302 299.025,112.214 299.300 M253.600 306.179 C 253.600 306.289,254.140 306.659,254.800 307.000 C 255.460 307.341,256.000 307.531,256.000 307.421 C 256.000 307.311,255.460 306.941,254.800 306.600 C 254.140 306.259,253.600 306.069,253.600 306.179 M109.900 325.029 C 108.405 325.840,108.496 326.178,110.000 325.400 C 110.660 325.059,111.200 324.694,111.200 324.590 C 111.200 324.332,111.157 324.347,109.900 325.029 M50.000 332.200 C 50.746 332.970,51.447 333.600,51.557 333.600 C 51.667 333.600,51.146 332.970,50.400 332.200 C 49.654 331.430,48.953 330.800,48.843 330.800 C 48.733 330.800,49.254 331.430,50.000 332.200 M349.578 332.300 L 348.200 333.800 349.700 332.422 C 351.096 331.138,351.384 330.800,351.078 330.800 C 351.012 330.800,350.337 331.475,349.578 332.300 M346.181 336.100 L 344.600 337.800 346.300 336.219 C 347.235 335.349,348.000 334.584,348.000 334.519 C 348.000 334.216,347.652 334.519,346.181 336.100 M63.583 346.100 C 64.564 347.145,65.419 348.000,65.483 348.000 C 65.784 348.000,65.466 347.641,63.700 345.983 L 61.800 344.200 63.583 346.100 M335.781 346.500 L 334.200 348.200 335.900 346.619 C 337.481 345.148,337.784 344.800,337.481 344.800 C 337.416 344.800,336.651 345.565,335.781 346.500 M67.600 349.800 C 68.346 350.570,69.047 351.200,69.157 351.200 C 69.267 351.200,68.746 350.570,68.000 349.800 C 67.254 349.030,66.553 348.400,66.443 348.400 C 66.333 348.400,66.854 349.030,67.600 349.800 M331.978 349.900 L 330.600 351.400 332.100 350.022 C 333.496 348.738,333.784 348.400,333.478 348.400 C 333.412 348.400,332.737 349.075,331.978 349.900 M309.407 367.022 C 308.311 367.780,307.559 368.400,307.735 368.400 C 308.118 368.400,311.600 366.040,311.600 365.781 C 311.600 365.511,311.559 365.534,309.407 367.022 M141.800 391.414 C 142.460 391.717,143.270 391.958,143.600 391.952 C 143.930 391.945,143.570 391.697,142.800 391.400 C 140.974 390.697,140.255 390.707,141.800 391.414 M256.500 391.612 C 255.161 392.151,255.411 392.424,256.800 391.940 C 257.460 391.710,258.000 391.449,258.000 391.361 C 258.000 391.124,257.513 391.205,256.500 391.612 M250.200 393.415 C 248.623 393.961,248.620 393.965,250.000 393.732 C 251.632 393.457,253.300 392.848,252.400 392.856 C 252.070 392.859,251.080 393.111,250.200 393.415 M149.400 393.600 C 149.840 393.789,150.470 393.944,150.800 393.944 C 151.178 393.944,151.104 393.817,150.600 393.600 C 150.160 393.411,149.530 393.256,149.200 393.256 C 148.822 393.256,148.896 393.383,149.400 393.600 M192.900 399.876 C 193.285 399.976,193.915 399.976,194.300 399.876 C 194.685 399.775,194.370 399.693,193.600 399.693 C 192.830 399.693,192.515 399.775,192.900 399.876 M205.700 399.876 C 206.085 399.976,206.715 399.976,207.100 399.876 C 207.485 399.775,207.170 399.693,206.400 399.693 C 205.630 399.693,205.315 399.775,205.700 399.876 " stroke="none" fill="#575757" fill-rule="evenodd"></path><path id="path3" d="M266.000 11.031 C 266.000 11.301,268.078 12.056,268.276 11.857 C 268.367 11.767,267.892 11.501,267.220 11.267 C 266.549 11.033,266.000 10.927,266.000 11.031 M283.371 18.209 C 283.795 18.529,284.240 18.694,284.359 18.574 C 284.610 18.323,283.594 17.609,283.000 17.619 C 282.780 17.622,282.947 17.888,283.371 18.209 M309.200 32.420 C 310.587 33.361,311.378 33.635,310.400 32.836 C 309.850 32.386,309.220 32.017,309.000 32.015 C 308.780 32.013,308.870 32.196,309.200 32.420 M65.185 52.029 L 63.800 53.258 65.300 52.181 C 66.626 51.230,67.057 50.800,66.685 50.800 C 66.622 50.800,65.947 51.353,65.185 52.029 M185.683 71.013 C 184.982 72.436,184.493 73.600,184.598 73.600 C 184.866 73.600,187.285 68.751,187.106 68.572 C 187.025 68.492,186.385 69.590,185.683 71.013 M366.399 89.100 C 366.922 89.815,367.413 90.400,367.489 90.400 C 367.793 90.400,366.801 88.900,366.145 88.367 C 365.713 88.016,365.810 88.296,366.399 89.100 M228.000 99.739 C 228.000 100.174,233.585 111.200,233.805 111.200 C 233.984 111.200,228.532 100.040,228.155 99.633 C 228.070 99.542,228.000 99.589,228.000 99.739 M165.800 111.200 C 165.459 111.860,165.269 112.400,165.379 112.400 C 165.489 112.400,165.859 111.860,166.200 111.200 C 166.541 110.540,166.731 110.000,166.621 110.000 C 166.511 110.000,166.141 110.540,165.800 111.200 M61.200 160.924 C 61.200 161.022,62.235 161.969,63.500 163.027 C 65.085 164.353,65.427 164.543,64.600 163.639 C 63.418 162.347,61.200 160.576,61.200 160.924 M335.765 163.439 L 333.400 165.679 335.900 163.600 C 338.158 161.722,338.673 161.200,338.265 161.200 C 338.190 161.200,337.065 162.208,335.765 163.439 M80.089 179.266 C 80.174 179.522,80.864 180.189,81.622 180.748 L 83.000 181.764 81.622 180.282 C 80.172 178.723,79.833 178.499,80.089 179.266 M317.785 180.869 L 315.800 182.939 317.507 181.630 C 318.917 180.550,320.395 178.800,319.899 178.800 C 319.828 178.800,318.877 179.731,317.785 180.869 M95.484 194.418 C 98.171 197.139,100.458 199.275,100.567 199.166 C 100.676 199.057,98.478 196.831,95.683 194.220 L 90.600 189.471 95.484 194.418 M303.000 195.458 C 300.140 198.218,298.160 200.291,298.600 200.065 C 299.360 199.674,308.800 190.378,308.393 190.420 C 308.287 190.432,305.860 192.699,303.000 195.458 M111.400 209.938 C 112.940 211.545,115.100 213.598,116.200 214.500 C 118.488 216.375,117.751 215.617,112.400 210.588 C 108.847 207.249,108.782 207.207,111.400 209.938 M285.400 212.675 C 282.760 215.224,281.140 216.918,281.800 216.441 C 283.041 215.543,290.755 207.993,290.400 208.023 C 290.290 208.033,288.040 210.126,285.400 212.675 M10.867 266.020 C 11.101 266.692,11.367 267.167,11.457 267.076 C 11.656 266.878,10.901 264.800,10.631 264.800 C 10.527 264.800,10.633 265.349,10.867 266.020 M175.100 290.629 C 173.549 291.470,173.725 291.761,175.300 290.959 C 176.808 290.193,177.075 289.994,176.567 290.016 C 176.365 290.025,175.705 290.301,175.100 290.629 M227.200 292.179 C 227.200 292.289,227.740 292.659,228.400 293.000 C 229.060 293.341,229.600 293.531,229.600 293.421 C 229.600 293.311,229.060 292.941,228.400 292.600 C 227.740 292.259,227.200 292.069,227.200 292.179 M169.300 293.596 C 167.960 294.413,167.453 295.129,168.700 294.443 C 169.629 293.933,171.052 292.828,170.800 292.814 C 170.690 292.808,170.015 293.160,169.300 293.596 M256.400 307.379 C 256.400 307.489,256.940 307.859,257.600 308.200 C 258.260 308.541,258.800 308.731,258.800 308.621 C 258.800 308.511,258.260 308.141,257.600 307.800 C 256.940 307.459,256.400 307.269,256.400 307.379 M263.633 311.349 C 264.045 311.717,266.400 312.800,266.400 312.621 C 266.400 312.390,264.182 311.200,263.753 311.200 C 263.596 311.200,263.542 311.267,263.633 311.349 M133.900 312.229 C 132.349 313.070,132.525 313.361,134.100 312.559 C 135.608 311.793,135.875 311.594,135.367 311.616 C 135.165 311.625,134.505 311.901,133.900 312.229 M128.800 314.800 C 128.030 315.222,127.544 315.574,127.720 315.583 C 128.144 315.605,130.400 314.432,130.400 314.190 C 130.400 313.928,130.377 313.937,128.800 314.800 M270.000 314.600 C 270.550 314.914,271.180 315.172,271.400 315.172 C 271.620 315.172,271.350 314.914,270.800 314.600 C 270.250 314.286,269.620 314.028,269.400 314.028 C 269.180 314.028,269.450 314.286,270.000 314.600 M51.600 334.400 C 52.297 335.280,52.957 336.000,53.067 336.000 C 53.177 336.000,52.697 335.280,52.000 334.400 C 51.303 333.520,50.643 332.800,50.533 332.800 C 50.423 332.800,50.903 333.520,51.600 334.400 M310.900 366.446 C 309.537 367.319,309.095 367.906,310.300 367.243 C 311.218 366.739,312.656 365.627,312.400 365.619 C 312.290 365.616,311.615 365.988,310.900 366.446 " stroke="none" fill="#7c7c7c" fill-rule="evenodd"></path><path id="path4" d="M188.684 64.614 C 187.871 66.256,187.293 67.600,187.398 67.600 C 187.665 67.600,190.485 61.951,190.306 61.773 C 190.227 61.693,189.497 62.972,188.684 64.614 M117.000 215.562 C 118.103 216.763,119.600 217.857,119.600 217.462 C 119.600 217.371,118.745 216.612,117.700 215.776 C 115.870 214.312,115.844 214.304,117.000 215.562 M281.096 217.016 C 280.493 217.575,280.000 218.149,280.000 218.291 C 280.000 218.433,280.540 218.032,281.200 217.400 C 282.303 216.344,282.572 216.000,282.296 216.000 C 282.239 216.000,281.699 216.457,281.096 217.016 " stroke="none" fill="#747474" fill-rule="evenodd"></path></g></svg>