<?xml version="1.0" encoding="utf-8"?>
<!-- Generator: Adobe Illustrator 18.0.0, SVG Export Plug-In . SVG Version: 6.00 Build 0)  -->
<!DOCTYPE svg PUBLIC "-//W3C//DTD SVG 1.1//EN" "http://www.w3.org/Graphics/SVG/1.1/DTD/svg11.dtd">
<svg version="1.1" id="Layer_1" xmlns="http://www.w3.org/2000/svg" xmlns:xlink="http://www.w3.org/1999/xlink" x="0px" y="0px"
	 viewBox="0 0 64 64" enable-background="new 0 0 64 64" xml:space="preserve">
<g>
	<g>
		<g>
			<rect x="23" y="52" width="18" height="4"/>
		</g>
	</g>
	<g>
		<g>
			<path d="M31.9,64c3.2,0,6.1-2.7,6.1-6H26C26,61.3,28.6,64,31.9,64z"/>
		</g>
	</g>
	<g>
		<g>
			<rect x="30" width="4" height="8"/>
		</g>
	</g>
	<g>
		<g>
			<rect x="54" y="30" width="9" height="4"/>
		</g>
	</g>
	<g>
		<g>
			<rect x="50.9" y="16.4" transform="matrix(0.8682 -0.4961 0.4961 0.8682 -1.7945 30.0908)" width="9.8" height="4"/>
		</g>
	</g>
	<g>
		<g>
			<rect x="43.1" y="2.9" transform="matrix(-0.8814 -0.4724 0.4724 -0.8814 81.1436 35.6701)" width="4" height="9.5"/>
		</g>
	</g>
	<g>
		<g>
			<rect x="1" y="30" width="9" height="4"/>
		</g>
	</g>
	<g>
		<g>
			<rect x="3.4" y="16.4" transform="matrix(-0.8682 -0.4961 0.4961 -0.8682 6.2576 38.5099)" width="9.8" height="4"/>
		</g>
	</g>
	<g>
		<g>
			<rect x="14.2" y="5.6" transform="matrix(0.4723 0.8814 -0.8814 0.4723 16.7406 -12.6674)" width="9.5" height="4"/>
		</g>
	</g>
	<g>
		<g>
			<path d="M32,14c-9.4,0-17,7.7-17,17.2c0,6.2,3.2,11.4,8.1,14.5V50H30v-6.3c-2.4-0.6-4.2-2.2-4.8-4.3l3.9-1.1
				c0.2,0.8,1.3,1.7,3,1.7c1.6,0,3-0.9,3-2c0-0.7-1.5-1.5-3.8-2C27.1,35,25,33,25,30c0-2.7,2.1-5,5-5.7V22h4v2.3
				c2.4,0.6,4.2,2.2,4.8,4.3L35,29.7c-0.2-0.8-1.3-1.7-3-1.7c-1.6,0-3,0.9-3,2c0,0.4,0,1.4,3.1,2c4.6,1,6.9,3,6.9,6
				c0,2.7-2.1,5-5,5.7V50h6.9v-4.3c4.9-3,8.1-8.3,8.1-14.5C49,21.7,41.4,14,32,14z"/>
		</g>
	</g>
</g>
</svg>
